<svg width="83" height="27" viewBox="0 0 83 27" fill="none" xmlns="http://www.w3.org/2000/svg">
<g clip-path="url(#clip0_341_508)">
<path d="M59.208 2.38628C59.1967 2.20746 59.0948 2.03059 59.0399 1.86838C58.9188 1.50976 58.7925 1.15407 58.6697 0.795452C58.6131 0.629333 58.5521 0.472009 58.5086 0.301004C58.4842 0.205241 58.4868 0.118273 58.411 0.0567114C58.1932 -0.120156 57.8474 0.17104 57.661 0.277552C57.31 0.476894 56.9633 0.68894 56.6097 0.881443C56.2438 1.08079 55.8614 1.30065 55.5304 1.57426C55.3083 1.75796 55.0383 1.99737 54.8684 2.2485C54.6289 2.60322 54.3745 2.91493 54.0775 3.20906C53.9199 3.36541 53.777 3.55302 53.6089 3.69374C53.48 3.8022 53.3153 3.85986 53.2004 3.99275L53.0924 4.18525V9.92613C53.0924 10.0424 53.0915 10.1597 53.0924 10.276C53.0941 10.4538 53.135 10.5828 52.946 10.5544C52.8345 10.5378 49.8991 10.276 49.6804 10.276C49.3573 10.276 48.3503 10.147 48.1779 10.144C48.0159 10.1411 47.9575 10.1284 47.9122 9.89388C47.8364 9.50399 47.8495 7.22718 47.8504 6.87931C47.8504 6.65554 47.765 6.26858 47.9967 6.18161C48.1387 6.12884 49.7493 5.82006 50.1769 5.73798C50.3808 5.69889 52.3633 5.57479 52.4478 5.46144C52.5462 5.3305 52.5166 4.98262 52.487 4.82041C52.4608 4.67482 52.4034 4.44323 52.284 4.38264C52.1995 4.33965 52.0636 4.3758 51.9722 4.3758C51.7117 4.37678 51.4504 4.3758 51.19 4.3758C50.6578 4.3758 49.1221 4.24486 48.8817 4.24779C48.4479 4.2517 47.3269 4.15398 46.7406 4.53606C46.5055 4.68947 46.2868 4.90543 46.1196 5.15754C46.0072 5.32659 45.4741 6.1435 45.367 7.2907C45.34 7.58385 45.3139 8.97632 45.3879 9.30562C45.4759 9.69845 45.7825 10.7313 46.3008 11.2727C46.5647 11.5492 47.9845 12.4326 48.0577 12.5146C48.1779 12.6505 48.0551 12.7326 47.9566 12.84C47.7354 13.0814 46.3992 14.6224 46.3373 14.7358C46.2163 14.9537 46.117 14.983 46.2781 15.2107C46.3617 15.3299 46.6501 15.8009 46.7232 15.9162C46.7816 16.008 47.083 16.5425 47.1736 16.7175C47.2833 16.9305 47.3626 17.1621 47.4706 17.3761C47.5586 17.549 47.637 17.721 47.7136 17.9037C47.7633 18.022 47.9357 18.277 47.8983 18.4226C47.8669 18.5448 47.6561 18.5995 47.5786 18.6415C47.4157 18.7304 46.8338 19.1174 46.6588 19.219C46.5002 19.3118 45.5299 20.1395 45.4158 20.2763C45.2346 20.4932 45.0734 20.7297 44.928 20.9818C44.7764 21.2447 44.7607 21.4391 44.766 21.7509C44.7686 21.9101 44.874 22.3499 44.8879 22.4554C44.9559 22.9743 45.0569 23.5195 45.2511 23.9915C45.3696 24.2778 45.4663 24.6218 45.6309 24.8798C45.732 25.0381 45.867 25.1573 45.9976 25.2804C46.3739 25.638 46.8826 25.7485 47.3338 25.9195C47.9706 26.1608 48.5507 26.0973 49.2501 26.1139C49.6386 26.1139 50.0271 26.112 50.4156 26.111C50.9722 26.1032 51.5671 26.1804 52.1229 26.1081C52.3885 26.0739 53.3763 25.6146 53.6054 25.4397C54.0078 25.1328 55.1027 23.8889 55.2456 23.6241C55.3937 23.3495 55.5017 23.0779 55.608 22.7779C55.7421 22.3987 55.8127 21.9951 55.8963 21.5965C55.9912 21.1479 56.1428 19.5991 56.121 19.3001C56.1079 19.1154 56.0417 18.9395 55.9572 18.7764C55.7151 18.3083 55.3196 17.9653 54.8641 17.7894C54.0017 17.4562 53.1002 17.3194 52.4809 17.121C52.2004 17.0311 51.0645 16.737 50.7832 16.6383C50.6281 16.5836 49.7902 16.2504 49.6317 16.1888C49.177 16.0119 49.0332 15.9611 48.7554 15.7901C48.6117 15.7012 48.474 15.6777 48.4444 15.4706C48.4261 15.3406 48.4287 15.1413 48.4401 15.0055C48.4523 14.8559 48.724 13.7879 48.7876 13.612C48.8338 13.482 48.8721 13.356 48.9139 13.225C49.0202 12.8938 49.4696 13.0032 49.7153 13.0179C50.5663 13.0697 50.9139 13.0413 51.1421 13.0355C51.4556 13.0267 53.8066 13.0697 55.2447 11.8785C55.5792 11.601 55.7343 11.2072 55.9163 10.7968C56.0548 10.4851 56.1323 10.101 56.2151 9.76196C56.2734 9.52255 56.3004 9.26067 56.3231 9.01247C56.3605 8.60597 56.3318 8.1809 56.3353 7.77244C56.3388 7.32001 56.2482 6.96139 56.1175 6.54023C55.9346 5.95002 55.7491 5.37642 55.4799 4.83116C55.2491 4.36212 54.7752 4.22727 54.4608 3.86181C54.5339 3.64781 54.9573 3.73576 55.1176 3.73771C55.3954 3.74162 55.6829 3.68885 55.959 3.64781C56.2107 3.61068 56.4572 3.54423 56.7003 3.46117C57.0295 3.34782 57.3596 3.25596 57.6906 3.16118C57.9685 3.08105 58.2229 2.93252 58.5007 2.84946C58.7263 2.78301 59.2324 2.78302 59.2071 2.38628H59.208ZM50.3616 20.3955C50.8755 20.4287 52.9216 20.7209 53.0453 20.7727C53.2047 20.8392 53.162 21.0444 53.1603 21.2134C53.1568 21.6414 53.1638 22.0694 53.1586 22.4964C53.1542 22.857 53.1829 24.3619 52.9478 24.4244C52.7744 24.4703 50.0515 23.9954 49.8721 23.9778C49.5027 23.9407 48.5516 23.8576 47.8626 23.8576C47.7781 23.8576 47.7136 23.7726 47.7275 23.6798C47.8016 23.1697 48.049 20.4444 48.1108 20.3682C48.2136 20.2411 50.1491 20.3818 50.3607 20.3955H50.3616Z" fill="currentColor"/>
<path d="M0.162903 10.2563C0.0879929 9.79219 1.2883 4.17737 1.55223 3.89008C1.7038 3.72494 1.93114 3.50996 2.13671 3.45426C2.39715 3.38391 7.27244 3.13375 8.01719 3.02138C8.79416 2.90412 9.5816 2.84255 10.3621 2.76536C10.8969 2.71259 11.4317 2.6608 11.9683 2.62562C12.2766 2.6051 12.8202 2.45462 12.9343 2.82497C13.0397 3.16698 12.9613 3.72298 12.9665 4.08649C12.9726 4.50863 12.9752 4.93077 12.9726 5.35193C12.9674 6.21965 12.943 7.0864 12.9003 7.95218C12.8742 8.47203 12.6747 8.68896 12.2061 8.63229C10.9701 8.48278 9.73403 8.33327 8.49801 8.18377C8.10952 8.13686 7.49281 7.98442 7.17575 8.35575C6.92053 8.65476 7.07645 9.09742 7.30902 9.34757C7.93008 10.014 8.76106 10.4909 9.4762 11.0205C10.3925 11.5345 11.2558 12.3328 12.105 12.9758C12.5519 13.3139 13.0353 13.6256 13.4587 13.9999C13.6642 14.1816 14.1442 14.5383 14.1842 14.8627C14.3558 16.2523 13.9395 17.9476 13.4735 19.2189C12.9465 20.6564 12.085 22.2374 10.9239 23.1325C10.4169 23.5234 9.80633 23.709 9.22534 23.9094C8.5764 24.1322 7.93618 24.3843 7.28637 24.6031C6.65834 24.8142 -0.000854492 26.8575 -0.000854492 25.8148C-0.000854492 23.8556 -0.000854492 25.55 -0.000854492 24.0344C-0.000854492 22.7876 6.3979 21.185 8.71141 17.7112C9.16436 17.0301 8.62954 16.4164 8.12781 16.0373C7.48323 15.5506 6.77942 15.1461 6.11132 14.6995C5.2124 14.0996 4.3187 13.4898 3.42935 12.8722C2.99382 12.5693 2.5583 12.2644 2.12539 11.9566C1.74561 11.6859 1.38238 11.3097 0.982564 11.086C0.775253 10.9179 0.215167 10.5798 0.162903 10.2573V10.2563Z" fill="currentColor"/>
<path d="M32.958 26.1411C32.9092 26.1411 32.8595 26.1411 32.8099 26.1391C31.7002 26.1215 31.9101 24.9186 31.9092 23.9542C31.9092 22.5304 31.9354 19.3175 31.8935 18.5231C31.8578 17.842 36.0006 17.7042 36.4457 17.3114C37.5258 16.3596 37.5275 13.2981 37.6033 12.8105C37.6791 12.3219 37.7601 10.8435 37.8385 10.3539C37.9596 9.60248 38.0066 8.8354 38.1059 8.07614C38.2069 7.3032 38.2993 6.03093 38.321 5.24919C38.3358 4.72347 38.4108 4.21144 38.4439 3.6867C38.4665 3.3271 38.5771 2.989 38.8742 2.84047C39.5745 2.49259 40.5135 2.60301 41.3262 2.64796C41.7965 2.67435 42.3871 3.01929 42.3871 3.54696C42.3871 5.94005 42.4646 8.16604 42.4646 10.5582C42.4646 11.6594 42.3436 16.2345 42.3035 17.3143C42.2617 18.4615 41.9516 23.2213 41.9133 23.6552C41.8793 24.0441 41.8166 24.5053 41.7199 24.8747C41.6188 25.2606 41.4455 25.3789 41.111 25.5157C40.3166 25.8391 39.578 25.8401 38.7435 25.8401C37.5023 25.8401 36.9866 25.8802 35.0468 25.9877C34.3342 26.0277 33.667 26.1421 32.9588 26.1391L32.958 26.1411Z" fill="currentColor"/>
<path d="M82.9103 4.3082C82.6211 3.65838 81.4722 3.4307 80.9173 3.26556C80.4565 3.12875 79.9566 2.95579 79.4818 2.93723C79.2858 2.92941 79.0594 2.88348 78.8791 2.99488C78.4784 3.24406 77.8547 6.79509 77.7511 7.19085C77.6657 7.51624 77.6613 7.88659 77.3573 8.00288C77.1187 8.09375 76.853 7.88855 76.6614 7.71852C76.0185 7.15176 74.1972 4.97463 73.7895 4.59548C73.3331 4.17042 72.0021 2.59326 71.8688 2.5962C71.5927 2.60206 71.4699 3.4864 71.449 3.76587C71.3236 5.45246 71.2408 9.19991 71.172 10.5025C71.0875 12.1099 70.0962 21.7477 69.8933 25.1512C69.8645 25.6398 70.2069 26.0551 70.6433 26.061C71.5631 26.0737 72.7512 26.102 73.5082 26.1216C73.9402 26.1323 74.3078 25.7727 74.3583 25.291C74.3818 25.0652 74.401 24.8424 74.4027 24.69C74.414 23.9855 74.9471 18.4312 74.9663 17.6759C74.9794 17.1805 75.0403 16.6586 75.1065 16.173C75.1196 16.0753 75.1405 15.8808 75.164 15.6707C75.2058 15.2945 75.6475 15.186 75.8243 15.5085C76.0673 15.9522 76.2964 16.514 76.3887 16.6977C76.806 17.5264 77.8016 20.54 77.9636 21.1595C78.0463 21.4751 79.4165 24.8131 79.7902 25.4649C80.4261 26.573 81.0994 26.1186 81.2675 25.4111C81.7701 23.3005 81.9443 20.9543 82.1551 18.7635C82.2779 17.4844 82.4748 14.3662 82.5697 13.1008C82.6673 11.8099 83.2091 4.98635 82.9077 4.3082H82.9103Z" fill="currentColor"/>
<path d="M66.4186 24.6856C66.4038 24.6416 66.3881 24.6006 66.3837 24.5488C66.3794 24.496 66.3559 24.4257 66.3167 24.3729C66.3001 24.3514 66.2801 24.3123 66.2792 24.2879C66.2757 24.1892 66.2313 24.1012 66.2026 24.0074C66.1834 23.9488 66.1921 23.8726 66.1703 23.8413C66.1346 23.7885 66.1268 23.7309 66.1094 23.6762C66.0972 23.6371 66.0754 23.5951 66.0919 23.5511C66.0963 23.5394 66.0885 23.5003 66.0789 23.4905C66.0266 23.4348 66.0231 23.3527 66.004 23.2814L65.8629 22.7703C65.8237 22.6296 65.7409 22.5153 65.7069 22.3756C65.6399 22.3111 65.6198 22.2163 65.5841 22.1332C65.5728 22.1059 65.5545 22.056 65.5458 22.015C65.5353 21.972 65.5284 21.93 65.5223 21.8889C65.5092 21.8078 65.4866 21.7355 65.4892 21.6554C65.4909 21.6055 65.4813 21.5567 65.4674 21.5088C65.4526 21.459 65.4378 21.4218 65.4204 21.3681C65.4038 21.3134 65.3594 21.2616 65.382 21.1971C65.3855 21.1883 65.3759 21.1639 65.3672 21.156C65.3002 21.1013 65.2801 21.0075 65.2749 20.9372C65.2644 20.8199 65.2252 20.7114 65.207 20.603C65.1921 20.5121 65.1695 20.4241 65.1564 20.3372C65.1469 20.2746 65.1251 20.2238 65.1277 20.1535C65.1294 20.1007 65.0867 20.044 65.0676 19.9844C65.0484 19.9258 65.0345 19.8623 65.0206 19.7978C65.0127 19.7626 65.0057 19.7264 65.0005 19.6913L64.9857 19.5916L64.957 19.3923C64.9465 19.3199 64.9326 19.2486 64.9273 19.1763C64.923 19.1108 64.9282 19.0307 64.9247 18.9584C64.9178 18.8568 64.9038 18.76 64.8873 18.6691C64.8716 18.5753 64.8516 18.504 64.8429 18.4014C64.7984 18.3574 64.8159 18.3017 64.8132 18.246C64.8106 18.1952 64.8159 18.1337 64.7706 18.0916C64.7575 18.0799 64.7557 18.0535 64.7496 18.033C64.7357 17.9881 64.7645 17.9412 64.7287 17.8913C64.7035 17.8561 64.7113 17.7936 64.6991 17.7447C64.6861 17.6939 64.7017 17.6294 64.6486 17.5952C64.7017 17.4887 64.5815 17.4262 64.5981 17.3324C64.6024 17.3021 64.6007 17.2718 64.6016 17.2405C64.6016 17.2249 64.6077 17.2063 64.6016 17.1946C64.5354 17.0627 64.5066 16.919 64.477 16.7734C64.4657 16.8115 64.4901 16.8643 64.4709 16.8946C64.3977 17.0109 64.4195 17.1399 64.4422 17.2493C64.4639 17.3519 64.4883 17.4575 64.4631 17.5493C64.4143 17.7311 64.4335 17.9109 64.4274 18.0907C64.4213 18.2753 64.4204 18.461 64.423 18.6467C64.4239 18.7219 64.3951 18.804 64.4544 18.8734C64.4666 18.888 64.4596 18.9222 64.4544 18.9457C64.4439 19.0024 64.4195 19.059 64.4195 19.1157C64.4195 19.1724 64.4422 19.2291 64.4509 19.2857C64.4578 19.3317 64.45 19.3747 64.4805 19.4225C64.5031 19.4567 64.4831 19.5183 64.4518 19.5721C64.389 19.6805 64.3263 19.7929 64.3359 19.9317C64.3446 20.0548 64.3333 20.1789 64.3359 20.302C64.3368 20.3538 64.3315 20.4026 64.3594 20.4583C64.3838 20.5082 64.3716 20.5922 64.3533 20.6518C64.3237 20.7476 64.3194 20.8346 64.3507 20.9284C64.3612 20.9606 64.3612 20.9987 64.3603 21.0339L64.3524 21.6818C64.3524 21.7336 64.3612 21.7883 64.3237 21.8303C64.3681 21.8635 64.3533 21.9182 64.3498 21.9632C64.3455 22.0326 64.3263 22.1 64.3237 22.1694C64.3202 22.2515 64.3254 22.3316 64.3533 22.4117C64.3786 22.486 64.342 22.5788 64.3786 22.658C64.3856 22.6726 64.3629 22.7058 64.3655 22.7283C64.3768 22.8202 64.3446 22.9237 64.403 23.0049C64.4082 23.0117 64.4082 23.0312 64.4047 23.04C64.3551 23.1514 64.4021 23.254 64.4221 23.3576C64.4439 23.4729 64.4073 23.5833 64.4143 23.6977C64.423 23.8276 64.4439 23.9615 64.4317 24.0856C64.4108 24.2996 64.4387 24.5087 64.4491 24.7188C64.4596 24.9338 64.477 25.1478 64.5005 25.3608C64.5101 25.4536 64.5336 25.5426 64.5467 25.6354C64.5615 25.738 64.572 25.8416 64.5859 25.9442C64.5929 25.9989 64.6007 26.0526 64.6077 26.1074C64.7618 26.1259 64.9117 26.1367 65.0528 26.1377C65.6712 26.1435 66.2008 25.6559 66.5858 25.096C66.5693 25.051 66.5519 25.0071 66.5336 24.9641C66.4935 24.8712 66.4526 24.7794 66.4195 24.6827L66.4186 24.6856Z" fill="currentColor"/>
<path d="M58.5802 10.709C58.6307 10.7325 58.6926 10.755 58.7527 10.7989C58.9582 10.8849 59.0941 11.0481 59.2509 11.1898C59.2988 11.2338 59.3545 11.2729 59.3763 11.3471C59.3955 11.4106 59.4791 11.4233 59.4826 11.5064C59.4826 11.5132 59.4991 11.5132 59.5061 11.5181C59.5244 11.5299 59.5488 11.5367 59.5584 11.5553C59.615 11.6667 59.6133 11.6676 59.6986 11.7233C59.7091 11.7302 59.7012 11.7575 59.7091 11.7693C59.7422 11.8132 59.7735 11.8582 59.8127 11.8963C59.8476 11.9295 59.8554 11.995 59.926 11.9891C59.9416 11.9882 59.9469 12.0116 59.9573 12.0233C59.9895 12.0624 60.02 12.1035 60.0558 12.1386C60.0967 12.1767 60.1176 12.2461 60.1847 12.2412C60.2143 12.2393 60.196 12.3077 60.2143 12.3077C60.2474 12.3057 60.2674 12.3165 60.2831 12.337C60.2979 12.3565 60.2996 12.3927 60.3179 12.4093C60.3336 12.424 60.3676 12.4152 60.385 12.4279C60.4294 12.4601 60.459 12.5217 60.5174 12.5334C60.5801 12.5451 60.6185 12.5911 60.6655 12.6302C60.7117 12.6683 60.7421 12.7113 60.7866 12.7415C60.8205 12.765 60.8301 12.8129 60.8493 12.852C60.8684 12.8911 60.9303 12.8784 60.9146 12.9595C60.9146 12.9634 60.919 12.9634 60.9207 12.9653C60.9747 13.0279 61.0252 13.0953 61.0879 13.1461C61.1942 13.234 61.3135 13.3005 61.4364 13.3826C61.4703 13.405 61.5191 13.405 61.5226 13.4822C61.5226 13.4979 61.547 13.4901 61.5513 13.5047C61.5688 13.5585 61.6524 13.4676 61.6594 13.5389C61.6646 13.6024 61.709 13.5975 61.7369 13.622C61.7682 13.6493 61.8057 13.6659 61.8379 13.6923C61.8597 13.7099 61.8867 13.7158 61.9233 13.6982C61.9128 13.7813 61.9738 13.7627 61.9869 13.8145C61.9956 13.8487 62.0139 13.8897 62.0417 13.878C62.1027 13.8526 62.121 13.8995 62.1559 13.9181C62.209 13.9484 62.2377 13.9972 62.3074 13.9806C62.3362 13.9738 62.3536 14.0001 62.3719 14.0207C62.3884 14.0392 62.3945 14.0783 62.4128 14.0949C62.4485 14.1233 62.4886 14.1418 62.5426 14.1272C62.5896 14.1125 62.6045 14.1995 62.6689 14.1409C62.6776 14.133 62.6863 14.1428 62.6916 14.1516C62.7168 14.2014 62.7438 14.2366 62.8022 14.2122C62.8501 14.1917 62.8841 14.2405 62.9241 14.2581C62.9677 14.2767 63.0173 14.2806 63.053 14.3187C63.0766 14.3431 63.1245 14.2444 63.1358 14.3236C63.1419 14.3666 63.182 14.3627 63.209 14.3764C63.236 14.39 63.2708 14.3861 63.2926 14.4135C63.3814 14.5259 63.5042 14.5444 63.6184 14.5923C63.5722 14.4907 63.5278 14.3881 63.4825 14.2855C63.4729 14.263 63.472 14.2249 63.452 14.221C63.3675 14.2044 63.3056 14.1809 63.3901 14.0744C63.3945 14.0695 63.3858 14.051 63.3779 14.05C63.2934 14.0412 63.3004 13.9659 63.2821 13.9142C63.2098 13.7177 63.0609 13.5594 63.0182 13.3425C63.0147 13.3249 63.0051 13.3073 62.9982 13.2897C62.9912 13.2731 62.9886 13.2604 62.9964 13.2477C63.0295 13.192 62.9511 13.2086 62.9555 13.1715C62.959 13.1393 62.9189 13.1158 62.9285 13.0855C62.9633 12.9731 62.9015 12.8959 62.8466 12.8363C62.7943 12.7797 62.7368 12.723 62.7264 12.6468C62.7046 12.4963 62.6219 12.3829 62.5618 12.251C62.5008 12.1152 62.4355 11.9774 62.3745 11.8328C62.3614 11.8025 62.3562 11.7702 62.3457 11.7448C62.3353 11.7185 62.3179 11.696 62.2804 11.6872C62.2656 11.6833 62.2621 11.6569 62.2595 11.6383C62.2517 11.5944 62.2569 11.5445 62.2395 11.5054C62.2229 11.4663 62.1837 11.4409 62.1576 11.4067C62.1367 11.3794 62.1289 11.3461 62.087 11.3305C62.0557 11.3188 62.0531 11.268 62.0618 11.2133C62.0792 11.1048 62.0931 10.9924 62.0357 10.9025C61.9843 10.8224 61.9494 10.7296 61.9041 10.6436C61.885 10.6074 61.8728 10.5703 61.8292 10.5449C61.79 10.5234 61.7717 10.453 61.7691 10.4032C61.7665 10.326 61.7395 10.2644 61.6794 10.2214C61.6585 10.2068 61.6454 10.1804 61.6324 10.156C61.5932 10.0817 61.5522 10.0045 61.5139 9.92241C61.4764 9.84033 61.4433 9.76118 61.4102 9.68398C61.3946 9.64685 61.3693 9.61363 61.3902 9.56477C61.3406 9.56477 61.3371 9.51982 61.3257 9.48855C61.3083 9.44067 61.3031 9.38595 61.2813 9.341C61.2683 9.31461 61.2543 9.29018 61.2352 9.26771C61.2151 9.24328 61.1925 9.2208 61.1646 9.20224C61.1141 9.16706 61.108 9.08009 61.047 9.04687C61.0357 9.04003 61.0426 9.00387 61.0313 8.98921C60.9878 8.93058 60.9791 8.83873 60.9007 8.81137C60.8937 8.80942 60.8867 8.79476 60.8867 8.78694C60.8928 8.67847 60.8179 8.62962 60.7683 8.56317C60.7134 8.48988 60.7134 8.39021 60.6725 8.31106C60.6263 8.22018 60.5679 8.13321 60.5427 8.0355C60.4991 7.8684 60.4146 7.72867 60.3476 7.57818C60.2787 7.42477 60.2056 7.27233 60.1324 7.12087C60.1002 7.05442 60.0584 6.99481 60.0261 6.92836C59.9904 6.8541 59.9599 6.7769 59.9286 6.69971C59.899 6.6274 59.8693 6.55508 59.8432 6.47984C59.831 6.44564 59.8092 6.41046 59.8153 6.37138C59.8162 6.36356 59.8101 6.34206 59.8049 6.33424C59.7639 6.27952 59.7457 6.21601 59.7404 6.14467C59.7387 6.12415 59.7256 6.09875 59.7213 6.07627C59.7073 6.01276 59.6768 5.96683 59.6551 5.91308C59.635 5.86325 59.6289 5.79876 59.595 5.7626C59.5906 5.75771 59.5819 5.73231 59.5819 5.72351C59.5767 5.60528 59.4887 5.51831 59.473 5.40202C59.4443 5.36782 59.4443 5.31701 59.4312 5.28476C59.412 5.23884 59.3946 5.19389 59.3789 5.14405C59.3772 5.13917 59.3763 5.13526 59.3746 5.13037C59.2762 5.28183 59.183 5.42059 59.1202 5.61896C59.0575 5.8183 59.0366 6.02546 58.9852 6.22773C58.9173 6.49939 58.6882 7.43258 58.6455 7.63681C58.6081 7.81759 58.4513 9.6703 58.4077 10.5673C58.426 10.5859 58.4434 10.6035 58.46 10.6221C58.4957 10.6641 58.5314 10.6856 58.5845 10.71L58.5802 10.709Z" fill="currentColor"/>
<path d="M67.1442 22.468C67.125 22.4338 67.1059 22.4016 67.0998 22.3547C67.0937 22.3078 67.0615 22.2492 67.0153 22.2218C66.997 22.212 66.9717 22.1886 66.9683 22.1661C66.963 22.1202 66.943 22.0782 66.9195 22.0332C66.896 21.9892 66.8707 21.9355 66.8559 21.8856C66.8367 21.8212 66.8637 21.7508 66.842 21.7244C66.8054 21.6795 66.808 21.6374 66.7923 21.6042C66.781 21.5798 66.7548 21.5495 66.7766 21.5075C66.7827 21.4958 66.7714 21.4645 66.7601 21.4606C66.6939 21.4342 66.686 21.3658 66.6555 21.3101C66.5832 21.1792 66.5049 21.0384 66.4465 20.8723C66.4221 20.799 66.3925 20.7512 66.362 20.6955C66.3306 20.6417 66.3028 20.587 66.2914 20.5235C66.2148 20.4736 66.2061 20.3847 66.1773 20.3075C66.1556 20.2489 66.1503 20.1824 66.1364 20.1199C66.1233 20.0564 66.0902 20.0046 66.0885 19.9313C66.0867 19.8414 66.0232 19.7632 65.9935 19.6763C65.977 19.6294 65.9265 19.5932 65.9604 19.5258C65.9648 19.517 65.9552 19.4955 65.9448 19.4916C65.8655 19.4584 65.8481 19.3753 65.8472 19.3098C65.8455 19.2043 65.7949 19.1271 65.7653 19.0372C65.7409 18.9629 65.7044 18.8926 65.6808 18.8193C65.6643 18.7665 65.6321 18.7235 65.6347 18.6581C65.6373 18.6072 65.5833 18.5701 65.5589 18.5242C65.5345 18.4783 65.5171 18.4284 65.4962 18.3805L65.4265 18.2242L65.3559 18.0688C65.3298 18.0131 65.2993 17.9594 65.2784 17.8998C65.2584 17.8441 65.2566 17.7786 65.234 17.7239C65.1721 17.5763 65.045 17.4728 64.991 17.3203L65.1286 18.1382C65.1469 18.2389 65.1678 18.3327 65.1904 18.4382C65.214 18.5564 65.2235 18.6678 65.2314 18.7685C65.2357 18.8252 65.2436 18.876 65.2192 18.9336C65.2009 18.9776 65.2105 19.044 65.2549 19.1017C65.2636 19.1115 65.2723 19.1349 65.2688 19.1447C65.2174 19.2737 65.3019 19.3733 65.3194 19.4857C65.3281 19.5395 65.3333 19.6001 65.3376 19.6479C65.342 19.6948 65.3472 19.7437 65.3551 19.7935C65.3699 19.8952 65.3908 20.0026 65.4204 20.116C65.4326 20.1639 65.4265 20.2303 65.4753 20.2557C65.4465 20.3007 65.4683 20.3241 65.4918 20.3642C65.5162 20.4062 65.531 20.4775 65.518 20.5205C65.5014 20.5792 65.5206 20.6231 65.5284 20.6701C65.538 20.7228 65.5528 20.7639 65.5693 20.8186L65.6669 21.1557C65.6835 21.2143 65.6991 21.2642 65.7157 21.3296C65.7322 21.3941 65.7436 21.4576 65.7523 21.5182C65.7592 21.5661 65.7523 21.614 65.7549 21.6599C65.7566 21.7068 65.7845 21.7479 65.7618 21.7977C65.7531 21.8163 65.7732 21.8573 65.7828 21.8856C65.7906 21.9111 65.7984 21.9365 65.8071 21.9619C65.8167 21.9902 65.8272 22.0185 65.8368 22.0469C65.8585 22.1036 65.8794 22.1573 65.9099 22.2023C65.9692 22.2912 65.9753 22.4104 66.0458 22.4876C66.0658 22.5091 66.0676 22.5628 66.0807 22.6C66.1338 22.7504 66.139 22.9205 66.2209 23.0553C66.2061 23.1198 66.227 23.1833 66.2435 23.2449C66.2557 23.2898 66.2523 23.3475 66.2923 23.3749C66.2967 23.3778 66.301 23.3944 66.3019 23.4042C66.3071 23.4618 66.3002 23.5165 66.3202 23.5762C66.3367 23.626 66.3655 23.6612 66.3786 23.7159C66.4029 23.8156 66.4204 23.9172 66.4413 24.0169C66.4648 24.1175 66.4918 24.2172 66.5292 24.3139C66.5249 24.3765 66.5493 24.437 66.5676 24.4986C66.6007 24.6071 66.6582 24.6989 66.6869 24.8123C66.6947 24.8426 66.7026 24.8738 66.7113 24.9051C66.7984 24.7634 66.8768 24.6198 66.9447 24.482C67.0048 24.3589 67.2278 23.6104 67.4134 22.9048C67.3733 22.8296 67.3332 22.7534 67.2862 22.683C67.2374 22.6117 67.1869 22.5433 67.1451 22.4671L67.1442 22.468Z" fill="currentColor"/>
<path d="M64.3159 25.6059C64.2113 25.2189 64.1957 24.8153 64.1504 24.4206C64.1356 24.2974 64.1129 24.1743 64.1329 24.0443C64.1512 23.9339 64.0877 23.8069 64.1277 23.6896C64.1312 23.6799 64.1181 23.6593 64.1138 23.6427C64.1042 23.6036 64.0877 23.5626 64.0885 23.5255C64.0955 23.2988 64.0964 23.2968 64.0519 23.1092C64.0467 23.0867 64.0667 23.0574 64.0659 23.031C64.0606 22.9255 64.0572 22.82 64.045 22.7154C64.0336 22.6206 64.0615 22.519 64.0023 22.432C63.9892 22.4125 63.9971 22.3714 63.9962 22.3402C63.991 22.2405 63.991 22.1398 63.9831 22.0411C63.9735 21.9278 63.9971 21.8115 63.9457 21.7001C63.923 21.6513 63.9796 21.5809 63.9666 21.5526C63.9431 21.4998 63.9361 21.45 63.9396 21.3982C63.9431 21.3474 63.9657 21.2975 63.9657 21.2467C63.9657 21.2027 63.937 21.1588 63.9352 21.1138C63.9291 21.0034 63.9526 20.8842 63.9221 20.7826C63.8899 20.6731 63.8951 20.5695 63.8899 20.463C63.8838 20.3516 63.8908 20.2402 63.8821 20.1298C63.8751 20.0438 63.9012 19.9666 63.9152 19.8855C63.9291 19.8044 63.8812 19.7145 63.9474 19.6412C63.95 19.6383 63.9474 19.6295 63.9474 19.6227C63.957 19.4546 63.9753 19.2875 63.977 19.1194C63.9805 18.8292 63.9727 18.539 63.9727 18.2488C63.9727 18.1667 63.9483 18.0807 64.0066 18.0035C64.0188 17.9878 64.0005 17.9527 64.0093 17.9312C64.0424 17.851 63.9291 17.7875 63.9805 17.7103C64.0267 17.6419 64.0005 17.5686 64.004 17.4983C64.0093 17.4182 64.0023 17.338 64.0049 17.2579C64.0066 17.2022 63.9971 17.1524 63.964 17.1064C64.0328 17.0459 63.9857 16.9589 64.018 16.8876C64.0389 16.8407 64.0598 16.7674 64.0363 16.7332C63.984 16.6569 64.0084 16.5807 64.0023 16.5045C63.9979 16.4468 64.0005 16.3882 63.9988 16.3306C63.9892 16.3638 63.9683 16.3921 63.9561 16.4224C63.8751 16.6227 63.862 16.8475 63.7749 17.0468C63.761 17.0791 63.7593 17.1299 63.7366 17.1426C63.6878 17.1709 63.7384 17.213 63.7148 17.2452C63.6948 17.2716 63.7009 17.3253 63.6791 17.3449C63.599 17.4182 63.5833 17.5286 63.5737 17.6234C63.565 17.7123 63.5572 17.8041 63.518 17.8725C63.4405 18.0074 63.41 18.1618 63.3595 18.3064C63.3081 18.4559 63.2584 18.6054 63.2114 18.7559C63.1922 18.8175 63.1504 18.8741 63.173 18.9484C63.1774 18.9631 63.1635 18.9885 63.1539 19.007C63.1312 19.05 63.099 19.0881 63.0833 19.1331C63.0676 19.178 63.0685 19.2298 63.0598 19.2787C63.052 19.3178 63.0354 19.35 63.0433 19.3969C63.0494 19.4311 63.0197 19.4741 62.9832 19.5083C62.91 19.5757 62.8368 19.6481 62.8072 19.7614C62.7802 19.863 62.7427 19.9568 62.7105 20.0594C62.6975 20.1024 62.6809 20.1406 62.6844 20.1933C62.6879 20.2412 62.6556 20.3057 62.6243 20.3487C62.5755 20.4161 62.5468 20.4845 62.5389 20.5686C62.5363 20.5979 62.5241 20.6282 62.5128 20.6565C62.4431 20.8275 62.3673 20.9946 62.2881 21.1597C62.2689 21.1998 62.255 21.2457 62.2149 21.2633C62.2314 21.3073 62.2018 21.3425 62.1827 21.3757C62.153 21.4255 62.1147 21.4695 62.086 21.5203C62.052 21.5799 62.0233 21.6415 62.0076 21.7138C61.9928 21.7802 61.9318 21.8311 61.9213 21.9063C61.9196 21.92 61.8909 21.9337 61.883 21.9512C61.8517 22.0216 61.7889 22.0793 61.7933 22.1652C61.7933 22.1721 61.7863 22.1867 61.7802 22.1916C61.7045 22.2483 61.694 22.345 61.6661 22.4301C61.6356 22.5229 61.5703 22.5874 61.532 22.6753C61.4884 22.775 61.4518 22.8835 61.3952 22.9714C61.2977 23.1239 61.2262 23.287 61.14 23.4414C61.052 23.5988 60.9658 23.7561 60.8874 23.9154C60.8534 23.9847 60.8273 24.06 60.7933 24.1313C60.7916 24.1352 60.789 24.1391 60.7872 24.144C61.262 24.6179 61.8334 24.9951 62.3943 25.3557C62.9413 25.7075 63.7035 25.9743 64.4012 26.0876C64.3943 26.0495 64.3882 26.0114 64.3812 25.9733C64.3585 25.8531 64.3359 25.7339 64.3211 25.6127L64.3159 25.6059Z" fill="currentColor"/>
<path d="M59.62 5.49098C59.6497 5.55645 59.6801 5.61606 59.7141 5.67665C59.7472 5.73528 59.7603 5.81345 59.8056 5.86231C59.8099 5.86622 59.8134 5.8799 59.8169 5.88869C59.8814 6.04602 59.9563 6.19943 60.0094 6.35089C60.0704 6.52972 60.1645 6.68899 60.2437 6.85707C60.4214 7.10136 60.5468 7.38767 60.6984 7.65444C60.7463 7.7375 60.8021 7.81567 60.8204 7.91925C60.836 8.00817 60.9292 8.06876 60.9275 8.17234C60.9275 8.18113 60.9449 8.18993 60.9536 8.1997C60.9737 8.22315 61.0007 8.24367 61.0111 8.27103C61.073 8.43813 61.0712 8.4391 61.1688 8.54562C61.1801 8.55832 61.1723 8.58959 61.1818 8.60718C61.2202 8.67656 61.2594 8.74691 61.3064 8.80848C61.3482 8.86417 61.363 8.94919 61.4449 8.96775C61.4632 8.97166 61.4719 9.00293 61.485 9.02248C61.5294 9.08501 61.5764 9.16612 61.6182 9.23452C61.6696 9.31563 61.6862 9.41432 61.7681 9.46806C61.8038 9.49152 61.775 9.56969 61.7951 9.58337C61.8325 9.60878 61.8543 9.63809 61.8674 9.67425C61.8796 9.70845 61.8752 9.75242 61.8926 9.78467C61.9074 9.81301 61.9475 9.82571 61.9658 9.85405C62.0111 9.92343 62.0372 10.0202 62.1017 10.0788C62.1365 10.1101 62.1644 10.1521 62.1844 10.1882C62.2036 10.2224 62.2219 10.2576 62.2402 10.2918C62.2811 10.3632 62.3133 10.4423 62.3595 10.5127C62.3952 10.5674 62.4004 10.6348 62.417 10.6983C62.4335 10.7618 62.5076 10.798 62.4762 10.8859C62.4745 10.8898 62.4806 10.8947 62.4823 10.8986C62.5337 11.0218 62.5773 11.1517 62.6321 11.2758C62.6792 11.3823 62.728 11.4947 62.7715 11.6002C62.8116 11.698 62.8577 11.7947 62.9048 11.8924C62.9309 11.9481 62.9823 11.9921 62.9588 12.0771C62.9536 12.0947 62.9814 12.1084 62.9814 12.1279C62.9814 12.2012 63.1016 12.1807 63.0851 12.2628C63.0703 12.3361 63.1191 12.3712 63.1408 12.424C63.1652 12.4826 63.2001 12.5364 63.2262 12.595C63.2436 12.636 63.2698 12.6673 63.3151 12.6839C63.275 12.7641 63.3455 12.8051 63.3394 12.8755C63.3351 12.9214 63.3377 12.9859 63.3699 13.0015C63.4405 13.0396 63.4396 13.11 63.4631 13.1608C63.4997 13.238 63.5102 13.3298 63.5877 13.3865C63.6199 13.4109 63.6269 13.4608 63.6365 13.5028C63.6452 13.5419 63.6347 13.5898 63.6469 13.6279C63.6696 13.6982 63.7001 13.7627 63.7628 13.8106C63.8168 13.8526 63.7889 13.9543 63.8821 13.9748C63.8943 13.9777 63.8995 13.9982 63.8995 14.0129C63.8995 14.0784 63.9074 14.136 63.9509 14.181C63.9457 14.1507 63.9466 14.1184 63.9413 14.0901C63.903 13.8556 63.8011 13.6386 63.7828 13.3943C63.7793 13.3552 63.7584 13.3054 63.7715 13.28C63.8002 13.2243 63.7384 13.2136 63.7462 13.1696C63.7523 13.1325 63.7244 13.0855 63.7358 13.0533C63.7758 12.938 63.7445 12.8237 63.714 12.7279C63.6861 12.638 63.6548 12.5461 63.6617 12.4592C63.6757 12.2882 63.64 12.1279 63.6225 11.9638C63.606 11.7937 63.5807 11.6315 63.5555 11.4674C63.545 11.4009 63.5555 11.3237 63.5023 11.2719C63.4919 11.2612 63.4927 11.2299 63.4927 11.2084C63.4927 11.182 63.4954 11.1556 63.4971 11.1293C63.4988 11.1078 63.4997 11.0863 63.4945 11.0648C63.4849 11.0218 63.4544 10.9817 63.4344 10.9319C63.4178 10.8908 63.4126 10.8469 63.3795 10.8009C63.3673 10.7843 63.3621 10.757 63.3621 10.7247C63.3621 10.6934 63.3682 10.6524 63.3786 10.6329C63.417 10.5361 63.4527 10.4286 63.4274 10.3075C63.4056 10.2 63.3952 10.0886 63.3752 9.97815C63.3664 9.93222 63.363 9.88727 63.3342 9.84134C63.309 9.8003 63.3055 9.72213 63.3107 9.66448C63.3194 9.5736 63.3116 9.49249 63.2785 9.41041C63.2671 9.38207 63.2637 9.3469 63.2602 9.31367C63.2401 9.11531 63.2271 8.91694 63.2123 8.72248C63.2088 8.67558 63.1975 8.62672 63.2227 8.5847C63.187 8.55734 63.194 8.50751 63.1931 8.46647C63.1914 8.40393 63.1992 8.34139 63.1957 8.27787C63.1914 8.20165 63.1818 8.12837 63.1565 8.0541C63.1339 7.98668 63.1565 7.89971 63.126 7.8274C63.1208 7.81372 63.1365 7.78245 63.133 7.76193C63.1217 7.67691 63.1435 7.5831 63.0973 7.50884C63.0938 7.50298 63.0921 7.48441 63.0947 7.47659C63.1286 7.37497 63.0894 7.28214 63.0703 7.19028C63.0485 7.09061 63.0677 6.99094 63.052 6.88931C63.0337 6.77401 63.0041 6.65479 63.0023 6.53949C62.9971 6.34112 62.971 6.14764 62.9562 5.95807C62.9414 5.76166 62.9231 5.56623 62.9039 5.37079C62.8952 5.28578 62.8778 5.20272 62.8691 5.11771C62.8586 5.02292 62.8525 4.92716 62.8447 4.83237L62.822 4.56365C62.8185 4.52163 62.809 4.4757 62.8194 4.4376C62.822 4.42978 62.8203 4.40339 62.8177 4.39362C62.7959 4.31936 62.7915 4.24509 62.7976 4.16496C62.7994 4.14249 62.7933 4.11024 62.7924 4.08386C62.7907 4.00959 62.7741 3.94803 62.7654 3.88061C62.7576 3.81807 62.7619 3.74576 62.7419 3.69201C62.7393 3.68517 62.7367 3.65391 62.7384 3.64413C62.7532 3.51417 62.7018 3.3803 62.7036 3.25327C62.6853 3.20636 62.6905 3.15262 62.6818 3.11451C62.6705 3.05881 62.6591 3.00506 62.6496 2.94546C62.6409 2.88976 62.6313 2.83406 62.6226 2.77934C62.6191 2.75686 62.6165 2.73439 62.613 2.71289C61.8674 2.81647 61.0233 2.99822 60.4815 3.23372C59.9371 4.17083 59.4903 4.93986 59.4903 4.93986C59.4685 4.97699 59.4467 5.01217 59.4249 5.04637C59.4336 5.06787 59.4415 5.08937 59.4511 5.11087C59.5059 5.24083 59.5608 5.362 59.6227 5.49001L59.62 5.49098Z" fill="currentColor"/>
<path d="M61.0808 23.0769C61.1226 22.9831 61.1539 22.8873 61.2166 22.8013C61.2706 22.728 61.2776 22.6068 61.3482 22.5365C61.3543 22.5306 61.3534 22.5091 61.3578 22.4954C61.3665 22.4622 61.3717 22.4241 61.3874 22.3968C61.4814 22.2297 61.4823 22.2316 61.5302 22.0723C61.5363 22.0538 61.5607 22.0411 61.5712 22.0215C61.6104 21.9424 61.6539 21.8613 61.6896 21.7831C61.7219 21.7118 61.7802 21.6522 61.7776 21.5632C61.7776 21.5437 61.7985 21.5183 61.8098 21.4948C61.8455 21.4215 61.8839 21.3492 61.9152 21.273C61.9509 21.187 62.0084 21.1108 62.0119 21.0082C62.0137 20.9632 62.0746 20.933 62.0764 20.9066C62.079 20.8577 62.0903 20.8176 62.1095 20.7795C62.1286 20.7424 62.16 20.7131 62.1765 20.674C62.1905 20.6408 62.1853 20.5968 62.1974 20.5616C62.2279 20.4747 62.2802 20.3916 62.288 20.3037C62.2976 20.2089 62.3307 20.1307 62.3542 20.0467C62.3804 19.9587 62.4117 19.8766 62.4352 19.7818C62.4527 19.7095 62.4919 19.6548 62.5224 19.5933C62.5537 19.5317 62.5441 19.4447 62.6103 19.4056C62.6129 19.4037 62.6138 19.3959 62.6156 19.391C62.6678 19.2591 62.7253 19.1301 62.7715 18.9962C62.8516 18.7646 62.9239 18.5311 62.9979 18.2985C63.0189 18.233 63.0232 18.1568 63.0833 18.1119C63.0964 18.1021 63.0912 18.0689 63.1033 18.0542C63.1469 17.9985 63.0816 17.9174 63.1364 17.8695C63.1852 17.8265 63.1844 17.7601 63.2035 17.7034C63.2262 17.6399 63.2401 17.5725 63.2619 17.508C63.2767 17.463 63.2819 17.42 63.2697 17.3741C63.3333 17.3428 63.3211 17.2588 63.3612 17.2099C63.3882 17.1777 63.4204 17.1239 63.4126 17.0888C63.3943 17.0116 63.4309 16.9568 63.4465 16.8933C63.4692 16.7985 63.5145 16.7135 63.5093 16.608C63.5075 16.5631 63.5336 16.5161 63.5537 16.4732C63.5728 16.4341 63.6051 16.4018 63.6225 16.3618C63.6538 16.2875 63.68 16.2113 63.6826 16.1233C63.6861 16.0471 63.7619 15.9904 63.7383 15.8986C63.7349 15.8859 63.7462 15.8663 63.7558 15.8556C63.8002 15.8038 63.8342 15.753 63.8437 15.6777C63.8437 15.6777 63.8429 15.6787 63.842 15.6797C63.8089 15.7168 63.7706 15.7452 63.7479 15.7979C63.7261 15.8517 63.6634 15.8634 63.6164 15.8927C63.5746 15.9181 63.5319 15.9425 63.4979 15.9846L63.2401 16.3031C63.2296 16.3168 63.2087 16.3295 63.2096 16.3432C63.2096 16.3999 63.2061 16.4448 63.1382 16.4302C63.1347 16.4302 63.126 16.4409 63.126 16.4458C63.1312 16.4995 63.0903 16.521 63.0641 16.5503C62.9666 16.6608 62.8986 16.8034 62.7811 16.8992C62.7628 16.9148 62.7462 16.9441 62.7288 16.9441C62.6913 16.9441 62.7079 16.9871 62.6844 16.9979C62.6643 17.0067 62.6521 17.0409 62.6321 17.0448C62.5624 17.0595 62.5189 17.1191 62.484 17.1708C62.4509 17.2197 62.4187 17.2715 62.3743 17.2969C62.2872 17.3467 62.2245 17.4259 62.153 17.4933C62.0799 17.5637 62.0093 17.636 61.9396 17.7112C61.9117 17.7415 61.8708 17.763 61.8656 17.8148C61.8647 17.8256 61.849 17.8363 61.8386 17.8441C61.8133 17.8627 61.7846 17.8764 61.7637 17.8988C61.7428 17.9213 61.7306 17.9536 61.7123 17.9809C61.6983 18.0024 61.6792 18.0171 61.6722 18.0493C61.667 18.0728 61.6382 18.0894 61.6069 18.1001C61.545 18.1207 61.4814 18.1422 61.4335 18.2037C61.3917 18.2584 61.3421 18.3053 61.2976 18.3581C61.2794 18.3796 61.2593 18.3982 61.2489 18.4324C61.2393 18.4627 61.2044 18.493 61.1748 18.5105C61.1295 18.5389 61.0956 18.5731 61.072 18.6239C61.0642 18.6415 61.0494 18.6571 61.0363 18.6718L60.7916 18.9366C60.7715 18.9581 60.7541 18.9835 60.7245 18.9864C60.7271 19.0187 60.701 19.0343 60.6827 19.0509C60.6548 19.0773 60.6217 19.0969 60.5938 19.1232C60.5607 19.1545 60.5311 19.1887 60.5085 19.2317C60.4876 19.2718 60.4388 19.2923 60.4179 19.3382C60.4144 19.347 60.3935 19.3499 60.3857 19.3597C60.3526 19.3998 60.3012 19.4242 60.2881 19.4809C60.2872 19.4858 60.2794 19.4936 60.275 19.4955C60.2158 19.5161 60.1897 19.5757 60.1557 19.6255C60.1182 19.6783 60.0642 19.7056 60.0233 19.7535C59.9771 19.8082 59.9345 19.8708 59.8848 19.9167C59.7986 19.9958 59.7315 20.0936 59.6601 20.1864C59.586 20.2812 59.5155 20.3789 59.4458 20.4786C59.4162 20.5225 59.3909 20.5694 59.3622 20.6134C59.3299 20.6623 59.2951 20.7102 59.262 20.759L59.2341 20.8001C59.4066 21.5779 59.6653 22.429 60.0747 23.198C60.235 23.499 60.4344 23.7658 60.6583 24.0071C60.6618 23.9993 60.6653 23.9915 60.6688 23.9837C60.7733 23.6612 60.951 23.3739 61.0825 23.0769H61.0808Z" fill="currentColor"/>
<path d="M59.6636 19.9404C59.7037 19.8818 59.742 19.8222 59.7977 19.7762C59.8456 19.7381 59.8726 19.66 59.9319 19.6297C59.9371 19.6267 59.9406 19.6131 59.9458 19.6052C59.958 19.5857 59.9685 19.5613 59.9833 19.5466C60.0756 19.4596 60.0756 19.4606 60.1366 19.3688C60.1435 19.358 60.1618 19.3551 60.1714 19.3443C60.2115 19.3013 60.2533 19.2603 60.2907 19.2144C60.3238 19.1743 60.3726 19.1479 60.3874 19.0893C60.3909 19.0766 60.4092 19.0639 60.4205 19.0512C60.4571 19.0111 60.4955 18.972 60.5294 18.929C60.5695 18.8802 60.6209 18.844 60.6435 18.7785C60.654 18.7502 60.6993 18.7443 60.7054 18.7268C60.7167 18.6955 60.7324 18.673 60.7533 18.6525C60.7733 18.633 60.7994 18.6212 60.8186 18.6007C60.8352 18.5821 60.8413 18.5528 60.8569 18.5333C60.8953 18.4854 60.9475 18.4453 60.9745 18.3916C61.0033 18.3339 61.0433 18.2929 61.0808 18.246C61.1191 18.1981 61.1627 18.1541 61.2001 18.1043C61.2289 18.0652 61.2672 18.0437 61.3012 18.0154C61.336 17.987 61.3526 17.9304 61.4022 17.9265C61.4048 17.9265 61.4066 17.9216 61.4092 17.9186C61.4745 17.8532 61.5425 17.7897 61.606 17.7203C61.7167 17.6011 61.8247 17.4799 61.937 17.3656C61.9693 17.3333 61.9945 17.2884 62.0433 17.2825C62.0538 17.2815 62.0607 17.26 62.0721 17.2551C62.1147 17.2376 62.1017 17.1652 62.1487 17.1564C62.1905 17.1486 62.2106 17.1095 62.2393 17.0832C62.2724 17.0538 62.3011 17.0196 62.3334 16.9894C62.356 16.9688 62.3717 16.9454 62.3787 16.9131C62.4248 16.918 62.444 16.8643 62.4823 16.8506C62.5076 16.8408 62.5424 16.8213 62.5485 16.7978C62.5607 16.746 62.599 16.7265 62.6252 16.6942C62.6644 16.6473 62.714 16.6112 62.7358 16.5447C62.7454 16.5174 62.7724 16.4959 62.7942 16.4763C62.8142 16.4578 62.8421 16.448 62.8612 16.4275C62.8969 16.3894 62.9283 16.3483 62.9475 16.2936C62.964 16.2467 63.0224 16.2272 63.0224 16.1636C63.0224 16.1548 63.0328 16.1451 63.0407 16.1402C63.0833 16.1128 63.1173 16.0845 63.1365 16.0249C63.1522 15.977 63.1983 15.9418 63.2314 15.9018C63.2663 15.8588 63.2985 15.8089 63.3403 15.7747C63.3673 15.7532 63.3429 15.7014 63.3926 15.6946C63.4196 15.6917 63.4413 15.6506 63.4666 15.6272C63.4919 15.6027 63.511 15.5685 63.5398 15.551C63.6147 15.5041 63.6791 15.4444 63.7445 15.3839C63.7706 15.3594 63.7985 15.335 63.8264 15.3106C63.8176 15.3008 63.8098 15.292 63.7994 15.2832C63.7933 15.2793 63.7889 15.2734 63.7845 15.2686C63.7811 15.2725 63.7776 15.2764 63.7732 15.2783C63.7671 15.2822 63.7593 15.2852 63.7523 15.2832C63.687 15.2627 63.687 15.2637 63.6312 15.3008C63.6173 15.3096 63.6007 15.3057 63.5859 15.3116C63.5476 15.3252 63.5075 15.3164 63.4701 15.3545C63.4326 15.3936 63.3821 15.3389 63.3368 15.3194C63.2968 15.3018 63.2567 15.2803 63.2157 15.2881C63.113 15.3076 63.0084 15.3164 62.9048 15.3301C62.8917 15.3321 62.8726 15.3223 62.8673 15.337C62.8438 15.3985 62.8212 15.4405 62.7828 15.3458C62.7811 15.3409 62.7706 15.3428 62.768 15.3487C62.7489 15.4132 62.7123 15.3878 62.6835 15.3887C62.5729 15.3956 62.4719 15.4757 62.3595 15.464C62.3412 15.462 62.3186 15.4806 62.3064 15.462C62.2802 15.4229 62.2759 15.4913 62.255 15.4786C62.2376 15.4679 62.2167 15.4953 62.201 15.4796C62.1461 15.4249 62.0938 15.4503 62.0494 15.4747C62.0085 15.4982 61.9658 15.5246 61.9257 15.5089C61.8456 15.4777 61.7715 15.5041 61.6958 15.5089C61.6174 15.5138 61.5398 15.5236 61.4623 15.5353C61.431 15.5402 61.3944 15.5207 61.37 15.5744C61.3648 15.5852 61.35 15.5812 61.3395 15.5783C61.3151 15.5725 61.289 15.5558 61.2655 15.5578C61.2419 15.5607 61.2202 15.5832 61.1966 15.593C61.1775 15.6008 61.1592 15.5969 61.1418 15.6252C61.1287 15.6457 61.1017 15.633 61.0764 15.6096C61.0259 15.5627 60.9745 15.5168 60.9179 15.5324C60.8683 15.5461 60.816 15.5441 60.7655 15.5549C60.7446 15.5588 60.7237 15.5578 60.7036 15.5852C60.6862 15.6086 60.6505 15.6057 60.6235 15.5949C60.5808 15.5783 60.5442 15.5803 60.5094 15.6145C60.4981 15.6262 60.4815 15.6291 60.4676 15.6321L60.2002 15.6829C60.1784 15.6868 60.1575 15.6995 60.134 15.6721C60.1261 15.7112 60.1017 15.7044 60.0826 15.7053C60.053 15.7073 60.0216 15.6966 59.9929 15.6995C59.958 15.7034 59.9249 15.7132 59.8953 15.7415C59.8674 15.7669 59.823 15.7435 59.7943 15.7786C59.789 15.7855 59.7716 15.7679 59.7629 15.7718C59.7254 15.7865 59.6775 15.765 59.6488 15.8167C59.6462 15.8207 59.6383 15.8226 59.634 15.8197C59.5808 15.7825 59.5425 15.8255 59.499 15.8451C59.4519 15.8656 59.4014 15.8382 59.3535 15.848C59.2986 15.8578 59.2437 15.8793 59.1897 15.8715C59.0957 15.8578 59.0086 15.8842 58.9188 15.891L58.6427 15.9145C58.6384 15.9145 58.6331 15.9164 58.6288 15.9164C58.7115 17.1731 58.7952 18.2167 58.8404 18.4512C58.9171 18.843 58.992 19.6805 59.1967 20.6489C59.2272 20.599 59.2577 20.5502 59.2899 20.5023C59.3936 20.299 59.5321 20.1212 59.661 19.9365L59.6636 19.9404Z" fill="currentColor"/>
<path d="M62.8038 3.41435C62.8168 3.49741 62.8282 3.57363 62.8438 3.65181C62.8595 3.72705 62.8578 3.81695 62.8848 3.88731C62.8874 3.89317 62.8883 3.9088 62.8891 3.91955C62.9153 4.11401 62.951 4.31237 62.9649 4.50292C62.9806 4.72474 63.0172 4.94167 63.039 5.15958C63.1156 5.51038 63.1391 5.87487 63.1888 6.22958C63.2045 6.33707 63.2315 6.44358 63.2271 6.56084C63.2236 6.66149 63.2837 6.77093 63.2646 6.88135C63.2628 6.89015 63.275 6.90871 63.2794 6.92337C63.2898 6.95855 63.3064 6.99568 63.3081 7.03086C63.3177 7.24486 63.3151 7.24291 63.3552 7.41489C63.3595 7.43541 63.3456 7.46277 63.3473 7.48622C63.3543 7.58198 63.3595 7.67775 63.3726 7.77155C63.3839 7.85559 63.3673 7.94842 63.4161 8.02366C63.4266 8.04028 63.4231 8.07741 63.4257 8.10477C63.4353 8.19272 63.444 8.27871 63.4588 8.37056C63.4754 8.47316 63.4666 8.58065 63.5137 8.67739C63.5346 8.71941 63.4971 8.78781 63.5093 8.81224C63.5311 8.85817 63.5398 8.90214 63.5416 8.95002C63.5433 8.99595 63.5302 9.04285 63.5346 9.08878C63.5381 9.12787 63.5633 9.165 63.5694 9.20409C63.5842 9.3018 63.579 9.40929 63.613 9.49333C63.6496 9.58421 63.66 9.67606 63.6801 9.76889C63.7001 9.86661 63.7123 9.96726 63.7358 10.0669C63.7541 10.1441 63.7454 10.2194 63.7454 10.2966C63.7454 10.3728 63.7915 10.4539 63.7489 10.5301C63.7471 10.533 63.7506 10.5418 63.7506 10.5477L63.7541 10.6542C63.7558 10.6835 63.7593 10.7138 63.7654 10.747C63.7767 10.8135 63.7968 10.8868 63.8159 10.9698C63.8342 11.0461 63.8403 11.1115 63.8517 11.177L63.8821 11.3744C63.9022 11.5063 63.9248 11.6392 63.9422 11.7701C63.9518 11.8434 63.9806 11.9187 63.9466 11.9949C63.9396 12.0105 63.9571 12.0398 63.9536 12.0604C63.9388 12.1366 64.0302 12.1796 64.0015 12.2548C63.9753 12.3222 64.0041 12.3848 64.0093 12.4483C64.0154 12.5206 64.0302 12.5919 64.0372 12.6642C64.0424 12.7141 64.0555 12.7581 64.0851 12.7942C64.0415 12.8587 64.0868 12.93 64.0712 12.9984C64.0633 13.0326 64.0581 13.0805 64.0659 13.1137C64.0677 13.0883 64.0703 13.062 64.0746 13.0385C64.0834 12.9857 64.0973 12.9379 64.1121 12.8958C64.1252 12.8607 64.133 12.8265 64.14 12.7952L64.1487 12.7493L64.1548 12.7131C64.1635 12.6662 64.1757 12.6242 64.2227 12.5753C64.1922 12.5343 64.1905 12.4903 64.1914 12.4414C64.1914 12.3945 64.1948 12.3369 64.1722 12.2988C64.1435 12.247 64.1452 12.1991 64.1435 12.1473C64.1408 12.0604 64.1391 11.9685 64.1435 11.8679C64.1478 11.7623 64.167 11.6568 64.1861 11.5669L64.241 11.3216C64.2558 11.2503 64.2645 11.1809 64.2706 11.1047C64.2863 10.9073 64.2593 10.6972 64.2462 10.4783C64.2419 10.4168 64.2332 10.3552 64.2698 10.2848C64.2968 10.233 64.2968 10.1402 64.2471 10.0718C64.2375 10.0591 64.2288 10.0308 64.2358 10.02C64.3255 9.88615 64.2349 9.7513 64.2436 9.60961C64.261 9.35164 64.3499 9.11809 64.3804 8.87673C64.3873 8.82494 64.4213 8.77022 64.3708 8.72039C64.4248 8.69009 64.4056 8.65589 64.3917 8.6041C64.3769 8.55134 64.3874 8.46925 64.4196 8.43114C64.4649 8.37838 64.4588 8.32268 64.4701 8.26796C64.4814 8.20933 64.484 8.14874 64.4928 8.09109C64.5119 7.96699 64.5267 7.84387 64.538 7.72074C64.5494 7.5986 64.5537 7.46375 64.5633 7.33574C64.5668 7.28492 64.5868 7.23607 64.5964 7.18525C64.606 7.13444 64.5816 7.07874 64.6269 7.03086C64.6434 7.01327 64.6312 6.9605 64.6321 6.92337C64.633 6.79439 64.6609 6.65367 64.6278 6.53739C64.5947 6.42208 64.6373 6.29994 64.5781 6.19245C64.5616 6.16313 64.5799 6.10743 64.5764 6.06542C64.565 5.89246 64.6147 5.71364 64.5546 5.54459C64.5947 5.48205 64.5877 5.40876 64.5859 5.33743C64.5851 5.28564 64.6069 5.22603 64.565 5.18303C64.5598 5.17815 64.5607 5.15958 64.5624 5.14883C64.5738 5.08629 64.6016 5.02962 64.5947 4.96024C64.5894 4.90161 64.565 4.8547 64.5668 4.79021C64.5738 4.5596 64.6225 4.33289 64.6086 4.10131C64.64 4.03779 64.6347 3.96548 64.6373 3.89415C64.64 3.76809 64.6077 3.64888 64.6173 3.52184C64.626 3.40067 64.6339 3.27071 64.6164 3.15541C64.5964 3.02251 64.5981 2.88864 64.6008 2.75477C64.4161 2.70102 64.2297 2.65607 64.0433 2.62969C63.7976 2.59451 63.2637 2.6248 62.6592 2.70688C62.6731 2.78115 62.6888 2.85737 62.7062 2.93554C62.7437 3.09189 62.7776 3.25214 62.8038 3.41533V3.41435Z" fill="currentColor"/>
<path d="M68.2939 14.4517C68.2277 14.4839 68.158 14.4673 68.0927 14.482C68.0013 14.5045 67.9107 14.4908 67.8236 14.5045C67.7748 14.5123 67.7338 14.523 67.6816 14.524C67.6589 14.524 67.6372 14.525 67.6136 14.5103C67.5901 14.4957 67.5553 14.4937 67.5257 14.5162C67.5135 14.525 67.4934 14.5318 67.4839 14.525C67.4429 14.4927 67.3994 14.5084 67.361 14.5152C67.3358 14.5191 67.3088 14.4927 67.2905 14.5103C67.2635 14.5396 67.2356 14.5348 67.2086 14.5426C67.1894 14.5475 67.1685 14.5631 67.1485 14.5348C67.1433 14.5269 67.1241 14.5279 67.1198 14.5348C67.0919 14.5797 67.0536 14.566 67.0205 14.5729C66.9394 14.5895 66.868 14.6051 66.794 14.6295C66.7287 14.6491 66.679 14.7185 66.6084 14.7253C66.5806 14.7839 66.5301 14.782 66.4874 14.7976C66.4543 14.8093 66.4168 14.8054 66.3811 14.8084C66.3454 14.8113 66.3149 14.8308 66.274 14.822C66.2234 14.8113 66.1764 14.8504 66.1259 14.8602C66.0989 14.865 66.0736 14.9012 66.0396 14.8602C66.0353 14.8543 66.0231 14.8592 66.0196 14.866C65.9926 14.9237 65.9438 14.9217 65.9081 14.908C65.8506 14.8875 65.8001 14.91 65.7513 14.9119C65.7095 14.9139 65.6686 14.9266 65.6268 14.9276C65.5972 14.9276 65.5693 14.9442 65.5353 14.9256C65.5101 14.9119 65.4813 14.9452 65.4534 14.953C65.4256 14.9608 65.3968 14.9618 65.3681 14.9657L65.2749 14.9794L65.1817 14.993C65.1477 14.9979 65.1146 15.0067 65.0806 15.0057C65.0484 15.0057 65.0144 14.9872 64.9831 14.9891C64.8933 14.995 64.8132 15.0663 64.7209 15.0566C64.7008 15.1005 64.6747 15.0742 64.6486 15.0702C64.6303 15.0673 64.6085 15.0595 64.5911 15.0761C64.5885 15.081 64.5859 15.0859 64.5833 15.0917C64.6155 15.1044 64.6468 15.1162 64.6799 15.1259L64.7505 15.1465C64.7758 15.1533 64.7914 15.1562 64.8332 15.1728C64.8733 15.1885 64.9151 15.2022 64.9334 15.2627C64.9474 15.3077 64.99 15.3399 65.0467 15.3155C65.058 15.3106 65.0737 15.3116 65.0745 15.3214C65.0806 15.4474 65.1756 15.3937 65.22 15.4201C65.3106 15.4738 65.3846 15.5862 65.4944 15.6438C65.5179 15.6565 65.5327 15.6976 65.5771 15.6517C65.5728 15.7113 65.5972 15.6956 65.6294 15.6888C65.6634 15.681 65.7034 15.7054 65.7104 15.7455C65.7147 15.7728 65.7252 15.7885 65.7374 15.7992C65.7478 15.809 65.7592 15.8139 65.7688 15.8236C65.7897 15.8442 65.8167 15.8549 65.8393 15.8735C65.936 15.9507 66.0431 16.0259 66.1511 16.109C66.1721 16.1256 66.1851 16.1588 66.2034 16.1823C66.2217 16.2057 66.2583 16.1969 66.2574 16.2546C66.2574 16.2761 66.2862 16.279 66.3018 16.2897C66.3585 16.3288 66.4029 16.3982 66.4708 16.408C66.537 16.4168 66.5544 16.4901 66.6302 16.4656C66.6511 16.4588 66.6625 16.491 66.6807 16.5008C66.7565 16.5389 66.8044 16.6376 66.9098 16.6347C66.9142 16.6914 66.9499 16.7099 66.9804 16.7324C67.003 16.75 67.0144 16.7901 67.0588 16.7695C67.064 16.7666 67.0718 16.7744 67.0753 16.7803C67.0954 16.8145 67.0997 16.8604 67.132 16.8839C67.1607 16.9054 67.186 16.8956 67.206 16.9171C67.2722 16.9923 67.3323 17.0998 67.4342 17.1506C67.4438 17.1975 67.4769 17.2132 67.5056 17.2357C67.557 17.2738 67.625 17.2767 67.6746 17.3275C67.7208 17.3744 67.7722 17.433 67.8236 17.4565C67.9159 17.4995 67.9769 17.5845 68.0544 17.6441C68.0744 17.6597 68.1014 17.6695 68.1032 17.7086C68.1032 17.7184 68.1267 17.733 68.1371 17.7301C68.1589 17.7242 68.1676 17.7467 68.1824 17.7506C68.2243 17.7633 68.226 17.8493 68.2844 17.8307C68.2905 17.8356 68.2974 17.8395 68.3035 17.8444C68.3871 17.1106 68.4812 16.3015 68.4812 15.9233C68.4812 15.5852 68.5108 15.0634 68.5422 14.3979C68.4943 14.4146 68.4446 14.437 68.3924 14.4429C68.3584 14.4468 68.3218 14.4341 68.2922 14.4478L68.2939 14.4517Z" fill="currentColor"/>
<path d="M59.1854 15.625C59.2333 15.6377 59.2803 15.582 59.3335 15.6133C59.3378 15.6162 59.3457 15.6045 59.3517 15.6006C59.3674 15.5918 59.3831 15.5762 59.3988 15.5762C59.4955 15.5762 59.4955 15.5781 59.5695 15.5342C59.5782 15.5293 59.593 15.5449 59.6035 15.543C59.647 15.5342 59.6906 15.5263 59.7324 15.5107C59.7699 15.496 59.816 15.5127 59.8448 15.4579C59.8509 15.4462 59.8691 15.4501 59.8822 15.4462C59.9232 15.4355 59.9641 15.4276 60.0042 15.413C60.0495 15.3964 60.1009 15.4052 60.14 15.3524C60.1566 15.329 60.1941 15.37 60.2045 15.3563C60.2228 15.3319 60.2428 15.3211 60.2655 15.3192C60.2873 15.3172 60.3116 15.3319 60.3326 15.327C60.3508 15.3231 60.3657 15.2957 60.3839 15.2899C60.4301 15.2752 60.4832 15.284 60.5224 15.2518C60.5651 15.2166 60.6095 15.2117 60.6548 15.2C60.7019 15.1873 60.7507 15.1853 60.7977 15.1697C60.8343 15.1579 60.87 15.1755 60.9066 15.1824C60.9423 15.1892 60.978 15.1443 61.0137 15.1961C61.0155 15.198 61.0189 15.1961 61.0216 15.1961C61.093 15.1961 61.1644 15.2009 61.235 15.1931C61.3569 15.1804 61.478 15.157 61.5991 15.1423C61.6339 15.1384 61.6679 15.113 61.7045 15.157C61.7123 15.1658 61.7254 15.1492 61.7349 15.155C61.7715 15.1785 61.789 15.0807 61.8255 15.1189C61.8578 15.154 61.8865 15.1277 61.9161 15.1277C61.9501 15.1277 61.9832 15.1169 62.0172 15.115C62.0407 15.114 62.0607 15.1022 62.0773 15.0729C62.1086 15.1267 62.1409 15.0827 62.174 15.1062C62.1957 15.1208 62.228 15.1345 62.2402 15.113C62.268 15.0651 62.302 15.0808 62.3334 15.072C62.3795 15.0583 62.4292 15.07 62.4719 15.0211C62.4902 15.0006 62.5172 15.0075 62.5407 15.0104C62.5624 15.0123 62.586 15.0329 62.6069 15.0319C62.6469 15.0319 62.6861 15.0231 62.7219 14.9869C62.7532 14.9547 62.8002 15.0036 62.8281 14.9371C62.8316 14.9283 62.8429 14.9293 62.8508 14.9332C62.8908 14.9537 62.9257 14.9645 62.964 14.9234C62.9649 14.9224 62.9666 14.9224 62.9675 14.9215C62.9353 14.8755 62.9056 14.8277 62.8595 14.8111C62.7428 14.77 62.6286 14.7133 62.5137 14.6557C62.4989 14.6488 62.4849 14.6244 62.4701 14.6371C62.4083 14.6899 62.3577 14.7202 62.3778 14.5853C62.3787 14.5785 62.3665 14.5726 62.3612 14.5785C62.3003 14.6361 62.2794 14.5785 62.2489 14.557C62.1896 14.5179 62.1226 14.4935 62.0546 14.4681C61.9893 14.4397 61.9161 14.4026 61.8804 14.3528C61.8673 14.3361 61.8351 14.3361 61.8386 14.3068C61.8456 14.2453 61.7916 14.3127 61.7846 14.2824C61.7785 14.257 61.7402 14.2677 61.7384 14.2404C61.7323 14.1378 61.6679 14.1221 61.6121 14.1134C61.5599 14.1055 61.5041 14.1006 61.4789 14.0508C61.4292 13.9541 61.3447 13.9238 61.2724 13.8681C61.1975 13.8104 61.1209 13.7596 61.039 13.7088C61.0041 13.6873 60.9841 13.6345 60.9214 13.6687C60.9083 13.6756 60.897 13.658 60.8892 13.6463C60.87 13.6179 60.8587 13.5769 60.8351 13.5573C60.8116 13.5378 60.7742 13.5407 60.7446 13.528C60.721 13.5183 60.708 13.4958 60.6697 13.5065C60.6418 13.5143 60.6278 13.4743 60.6252 13.4274C60.62 13.3326 60.6156 13.2388 60.5564 13.1968C60.5042 13.1587 60.465 13.103 60.4179 13.059C60.3988 13.0404 60.3831 13.016 60.3465 13.0199C60.3134 13.0228 60.2934 12.9857 60.2846 12.9486C60.2707 12.8909 60.2411 12.8567 60.1862 12.8518C60.1671 12.8499 60.1531 12.8362 60.14 12.8235C60.0599 12.7463 59.9763 12.6623 59.8979 12.5665C59.8796 12.544 59.8509 12.5245 59.8657 12.4795C59.8221 12.4981 59.8151 12.4639 59.803 12.4424C59.7847 12.4092 59.7777 12.3662 59.7585 12.3339C59.7359 12.2958 59.708 12.2645 59.6627 12.2489C59.6209 12.2343 59.6226 12.1668 59.5713 12.158C59.5617 12.1561 59.5695 12.1248 59.5608 12.117C59.526 12.0838 59.5225 12.0134 59.4545 12.0173C59.4493 12.0173 59.4432 12.0095 59.4432 12.0027C59.4519 11.9167 59.3875 11.903 59.3448 11.8688C59.2986 11.8317 59.2977 11.7554 59.2612 11.7105C59.2202 11.6587 59.1671 11.6157 59.141 11.5522C59.0957 11.4437 59.0147 11.3743 58.945 11.2932C58.8744 11.2102 58.7969 11.134 58.7159 11.0646C58.6985 11.0499 58.6793 11.0372 58.6593 11.0255L58.6079 10.9972L58.4781 10.918C58.4502 10.9014 58.4206 10.8799 58.3918 10.8574C58.3918 10.8819 58.3918 10.9053 58.3918 10.9248C58.3918 11.7896 58.5025 13.9404 58.6183 15.7306C58.7542 15.6934 58.8927 15.6817 59.0295 15.6475C59.08 15.6338 59.1288 15.6133 59.1845 15.628L59.1854 15.625Z" fill="currentColor"/>
<path d="M64.9004 3.76328C64.9004 3.81507 64.903 3.86393 64.8873 3.91963C64.8708 3.9763 64.8708 4.05839 64.8986 4.12874C64.91 4.15806 64.9187 4.20692 64.91 4.23134C64.8734 4.33492 64.8908 4.44437 64.8943 4.55088C64.896 4.6183 64.8594 4.69355 64.876 4.73459C64.9039 4.80299 64.8934 4.86455 64.8978 4.92807C64.9004 4.97302 64.9143 5.02481 64.8786 5.06487C64.869 5.07562 64.8664 5.11959 64.8751 5.13327C64.9248 5.20949 64.9021 5.29744 64.9047 5.37854C64.9117 5.57593 64.9143 5.77332 64.9143 5.97168C64.9143 6.13487 64.9744 6.29317 64.9544 6.45734C65.0101 6.55799 64.9892 6.66938 64.9901 6.77687C64.991 6.85895 64.9727 6.94006 64.9631 7.02116C64.9535 7.10227 64.9648 7.1824 64.9404 7.26839C64.91 7.37392 64.9404 7.50095 64.9361 7.61821C64.9335 7.68075 64.9648 7.7599 64.9065 7.8156C64.8986 7.82342 64.8986 7.85371 64.9056 7.86544C64.9614 7.95632 64.937 8.06576 64.9073 8.13905C64.8586 8.25924 64.8629 8.37943 64.8411 8.49767C64.8237 8.59538 64.8185 8.69603 64.8002 8.79277C64.7871 8.86215 64.7906 8.93251 64.754 9.00091C64.7262 9.05368 64.7506 9.13283 64.7462 9.20025C64.7418 9.2667 64.7314 9.33315 64.7236 9.39862C64.7157 9.47093 64.7087 9.54226 64.7035 9.6136C64.6974 9.68591 64.6939 9.75235 64.6922 9.82271C64.6905 9.89893 64.6957 9.97613 64.6913 10.0533C64.687 10.1266 64.6635 10.2009 64.6635 10.2761C64.6635 10.4862 64.7471 10.6953 64.7148 10.921C64.7619 10.9836 64.7236 11.0422 64.7105 11.1057C64.6974 11.1644 64.6704 11.2298 64.7105 11.2982C64.7227 11.3168 64.7148 11.35 64.7131 11.3764C64.7105 11.436 64.6547 11.4702 64.6748 11.5406C64.6896 11.5904 64.6513 11.6461 64.6469 11.6959C64.6425 11.7477 64.5981 11.7976 64.6574 11.8435C64.6077 11.8738 64.6182 11.9217 64.6364 11.9647C64.6547 12.0086 64.6809 12.0536 64.6608 12.1034C64.6478 12.1347 64.6443 12.1699 64.6364 12.2041C64.6321 12.2217 64.6208 12.2412 64.626 12.2568C64.6486 12.3311 64.6608 12.3927 64.6669 12.4669C64.673 12.5402 64.6713 12.6233 64.6591 12.7122C64.653 12.7562 64.6434 12.8011 64.6321 12.8441C64.6269 12.8656 64.6199 12.8871 64.6138 12.9086L64.5964 12.9614C64.5746 13.0278 64.5589 13.0816 64.5589 13.1216C64.5589 13.1431 64.5755 13.1578 64.5842 13.1773C64.5877 13.193 64.5894 13.2096 64.5851 13.2242C64.5476 13.364 64.5493 13.3649 64.5851 13.4998C64.5938 13.534 64.5868 13.5711 64.5912 13.6063C64.6016 13.6923 64.5903 13.7783 64.6225 13.8692C64.6373 13.8457 64.6565 13.8252 64.6817 13.8086C64.6661 13.7138 64.741 13.6464 64.7384 13.5623C64.7366 13.5096 64.754 13.4724 64.7706 13.4324C64.8751 13.1685 64.984 12.9057 65.0816 12.6389C65.1451 12.463 65.1939 12.2813 65.2532 12.1024C65.2697 12.0516 65.2819 12.0008 65.3289 11.9588C65.3629 11.9275 65.3917 11.8562 65.3768 11.7878C65.3742 11.7741 65.3768 11.7507 65.3838 11.7448C65.4831 11.6725 65.4552 11.5425 65.4901 11.4429C65.5589 11.2464 65.6686 11.0754 65.7409 10.8829C65.7566 10.8419 65.7932 10.8028 65.7662 10.752C65.8115 10.7373 65.8054 10.7061 65.8071 10.6592C65.808 10.6113 65.8341 10.5448 65.8672 10.5194C65.9125 10.4852 65.9213 10.4364 65.9439 10.3934C65.9674 10.3474 65.9848 10.2966 66.0075 10.2497C66.1042 10.0514 66.2052 9.85496 66.3132 9.66441C66.3341 9.62825 66.3655 9.59894 66.3899 9.56474C66.4143 9.53054 66.4169 9.47972 66.4648 9.46018C66.4822 9.45334 66.4918 9.40839 66.5049 9.38103C66.5502 9.28331 66.6146 9.18657 66.6294 9.08495C66.6442 8.98528 66.7113 8.90417 66.7026 8.80157C66.7 8.77323 66.7287 8.7361 66.7392 8.7019C66.7827 8.56216 66.8655 8.44099 66.8733 8.28269C66.9195 8.2436 66.9378 8.18204 66.9604 8.12537C66.9761 8.08335 67.0118 8.04524 66.9979 7.9954C66.9961 7.98954 67.0031 7.97586 67.0075 7.96804C67.0362 7.92309 67.0745 7.88987 67.0946 7.83417C67.1111 7.78727 67.112 7.74134 67.1355 7.69346C67.2209 7.52148 67.3306 7.37001 67.3881 7.18728C67.4273 7.14917 67.4447 7.09152 67.463 7.03582C67.497 6.93615 67.5048 6.82866 67.5475 6.72801C67.5876 6.63225 67.632 6.53062 67.6546 6.43388C67.6947 6.26581 67.7705 6.1163 67.8306 5.95898C67.8428 5.92771 67.8532 5.89156 67.8733 5.86419C67.4456 4.90559 66.9134 4.1434 66.666 3.9079C66.2758 3.53755 66.0641 3.25222 65.5676 3.08122C65.3255 2.99816 65.0781 2.90435 64.829 2.82227C64.8542 3.02063 64.8525 3.22193 64.8751 3.42029C64.8882 3.53365 64.9012 3.64797 64.903 3.76035L64.9004 3.76328Z" fill="currentColor"/>
<path d="M68.4909 11.6226C68.4317 11.6881 68.3533 11.7282 68.2897 11.7819C68.2026 11.8571 68.1059 11.9177 68.0223 11.9949C67.977 12.036 67.9343 12.0799 67.8873 12.118C67.8664 12.1356 67.8463 12.1532 67.8185 12.1659C67.7906 12.1776 67.7566 12.2079 67.7366 12.2441C67.7279 12.2597 67.7122 12.2812 67.6991 12.2861C67.646 12.3076 67.6085 12.3565 67.5693 12.3985C67.5441 12.4249 67.5031 12.4395 67.4944 12.462C67.4788 12.5001 67.45 12.5226 67.4265 12.55C67.4099 12.5695 67.3925 12.5959 67.3646 12.5959C67.3568 12.5959 67.3385 12.6115 67.3359 12.6203C67.3202 12.6711 67.2767 12.6936 67.2427 12.7249C67.1617 12.7991 67.0772 12.8685 66.9936 12.9359C66.923 12.9916 66.8777 13.0698 66.8002 13.1206C66.7697 13.1832 66.7114 13.2105 66.6634 13.2437C66.6269 13.2691 66.5859 13.2848 66.5493 13.3043C66.5119 13.3248 66.4805 13.3532 66.4544 13.3639C66.4143 13.3805 66.3986 13.448 66.3551 13.5125C66.3438 13.5291 66.3324 13.5516 66.3185 13.5691C66.3063 13.5848 66.2915 13.5985 66.2706 13.5994C66.2645 13.5994 66.2541 13.6131 66.2523 13.6209C66.2401 13.6815 66.1896 13.7196 66.1513 13.7382C66.0886 13.7695 66.0433 13.8193 65.9901 13.8584C65.9457 13.8906 65.9048 13.9278 65.8603 13.9581C65.8281 13.9796 65.802 14.0089 65.7619 14.0206C65.7323 14.0294 65.7105 14.0694 65.6844 14.0939C65.6583 14.1183 65.6295 14.1408 65.6016 14.1652L65.511 14.2453L65.4178 14.3264C65.3839 14.3558 65.3508 14.387 65.3124 14.4115C65.2759 14.4359 65.2367 14.4457 65.2044 14.4691C65.1226 14.5268 65.0616 14.6128 64.9814 14.6743C65.0006 14.6753 65.0224 14.6655 65.0372 14.6372C65.0415 14.6284 65.052 14.6206 65.0572 14.6255C65.1191 14.6948 65.1626 14.6098 65.2149 14.602C65.3168 14.5854 65.4222 14.6196 65.5232 14.604C65.545 14.601 65.5729 14.6196 65.5842 14.5688C65.6051 14.6069 65.6156 14.5864 65.6347 14.5659C65.6539 14.5444 65.6887 14.5395 65.7096 14.56C65.7375 14.5874 65.7619 14.5746 65.7837 14.5746C65.8081 14.5746 65.8316 14.5678 65.856 14.5659C65.9588 14.559 66.0642 14.5434 66.1704 14.5268C66.1913 14.5238 66.2149 14.5346 66.2375 14.5356C66.2601 14.5375 66.2767 14.5102 66.3054 14.5404C66.3159 14.5522 66.3351 14.5356 66.3499 14.5307C66.4021 14.515 66.4648 14.518 66.504 14.475C66.5432 14.433 66.6025 14.4505 66.6338 14.388C66.6425 14.3704 66.6687 14.3782 66.6861 14.3694C66.7201 14.3538 66.7593 14.3489 66.8011 14.3411C66.842 14.3343 66.8795 14.3235 66.9143 14.2922C66.9465 14.3206 66.9779 14.3098 67.0084 14.3049C67.0302 14.301 67.058 14.3167 67.072 14.2786C67.0737 14.2737 67.0816 14.2737 67.0859 14.2747C67.1129 14.2805 67.1382 14.301 67.166 14.2913C67.1896 14.2835 67.2052 14.26 67.2305 14.2571C67.2418 14.2561 67.2531 14.2551 67.2645 14.2541C67.2775 14.2541 67.2932 14.2522 67.3072 14.2532C67.3359 14.2532 67.3629 14.2571 67.3899 14.26C67.443 14.2668 67.4936 14.2756 67.5441 14.2717C67.5702 14.2991 67.6007 14.2962 67.6303 14.2991C67.6826 14.304 67.7296 14.2756 67.7871 14.2864C67.8394 14.2962 67.8942 14.3069 67.9439 14.2962C68.0284 14.2776 68.1094 14.3001 68.1904 14.2962C68.2113 14.2962 68.234 14.2874 68.2531 14.3089C68.2583 14.3147 68.2801 14.3108 68.2862 14.304C68.2984 14.2893 68.3141 14.2971 68.3263 14.2913C68.3576 14.2756 68.4003 14.3225 68.4282 14.2776C68.4665 14.2698 68.5066 14.259 68.5467 14.2483C68.5484 14.2483 68.5501 14.2483 68.551 14.2473C68.5859 13.4949 68.6216 12.5724 68.6224 11.5278C68.612 11.5356 68.6015 11.5444 68.5911 11.5513C68.558 11.5747 68.5179 11.5913 68.4909 11.6207V11.6226Z" fill="currentColor"/>
<path d="M68.0395 17.893C67.9576 17.8744 67.9054 17.8031 67.8348 17.7699C67.7852 17.7474 67.7407 17.7161 67.6981 17.6839L67.6336 17.636C67.6136 17.6223 67.5927 17.6087 67.57 17.5989C67.5221 17.5764 67.4716 17.5588 67.4254 17.5295C67.4045 17.5158 67.3827 17.5051 67.3679 17.4738C67.3531 17.4425 67.3183 17.4201 67.2739 17.4259C67.2556 17.4279 67.2303 17.423 67.2233 17.4064C67.1981 17.3399 67.1415 17.3223 67.0935 17.2881C67.0631 17.2666 67.0544 17.2051 67.0273 17.2051C66.9812 17.2031 66.962 17.167 66.9341 17.1455C66.9176 17.1328 66.8932 17.1289 66.9028 17.0859C66.9054 17.0741 66.8923 17.0575 66.8819 17.0614C66.8244 17.081 66.8096 17.0351 66.7774 17.0136C66.7016 16.9618 66.6206 16.911 66.5387 16.8523C66.4716 16.8044 66.3697 16.8113 66.3096 16.7341C66.2687 16.739 66.2504 16.737 66.2303 16.7224C66.2103 16.7097 66.1946 16.6901 66.1746 16.6774C66.145 16.6569 66.1241 16.6198 66.0971 16.5895C66.0701 16.5592 66.0326 16.5514 66.0091 16.5064C65.9795 16.4507 65.9124 16.4497 65.8636 16.4165C65.8375 16.3989 65.7905 16.4146 65.7905 16.3442C65.7905 16.3344 65.7765 16.3286 65.7687 16.3334C65.7042 16.3725 65.6624 16.3286 65.6406 16.2856C65.6223 16.2504 65.5979 16.2289 65.5718 16.2113L65.5318 16.1859C65.5204 16.1791 65.5091 16.1712 65.4978 16.1624C65.4612 16.1331 65.4168 16.1175 65.3784 16.0892C65.3506 16.0686 65.3149 16.0657 65.2948 16.0217C65.2791 15.9875 65.2312 16.0041 65.199 15.9924C65.1668 15.9797 65.138 15.9602 65.1076 15.9426L65.0065 15.882C64.9734 15.8615 64.9386 15.838 64.9063 15.8155C64.8715 15.7911 64.8358 15.7716 64.8088 15.7442C64.7835 15.7188 64.7696 15.6748 64.7426 15.6553C64.7243 15.6416 64.7034 15.6348 64.6825 15.6318C64.672 15.6299 64.6616 15.6299 64.6502 15.6289L64.6128 15.625C64.6145 15.6357 64.6154 15.6455 64.6154 15.6563C64.6154 15.6631 64.6154 15.67 64.6163 15.6758C64.6572 15.7589 64.7365 15.8214 64.706 15.9445C64.7948 15.9719 64.7853 16.0823 64.8541 16.1185C64.8976 16.1419 64.9124 16.1771 64.9307 16.2133C65.0518 16.4468 65.165 16.6862 65.2879 16.9207C65.3689 17.0751 65.4656 17.2207 65.5474 17.3761C65.5709 17.4191 65.5971 17.4601 65.5858 17.5295C65.577 17.5803 65.6049 17.6468 65.6711 17.6692C65.6842 17.6741 65.6999 17.6888 65.6964 17.6995C65.6572 17.8383 65.7817 17.8803 65.8236 17.9712C65.9063 18.1471 65.929 18.3503 66.0039 18.5291C66.0195 18.5673 66.0134 18.6239 66.0779 18.6288C66.0448 18.6806 66.0744 18.6914 66.1075 18.7177C66.1415 18.7441 66.1659 18.8037 66.1537 18.8487C66.1363 18.9093 66.1641 18.9444 66.1763 18.9874C66.1894 19.0343 66.212 19.0764 66.2269 19.1233C66.2896 19.3187 66.354 19.5141 66.4133 19.7135C66.4246 19.7526 66.4202 19.7985 66.4263 19.8405C66.4315 19.8825 66.4699 19.9128 66.442 19.9685C66.4316 19.989 66.4568 20.0232 66.4673 20.0506C66.5021 20.1473 66.5143 20.2636 66.5753 20.3369C66.6362 20.4102 66.6275 20.5206 66.7085 20.5793C66.7312 20.5959 66.7277 20.6447 66.7408 20.677C66.7852 20.7854 66.7939 20.9261 66.9045 21.0102C66.8906 21.0747 66.9228 21.1226 66.949 21.1724C66.9681 21.2095 66.969 21.2642 67.0213 21.275C67.0273 21.276 67.0334 21.2906 67.0352 21.2994C67.0465 21.3541 67.0395 21.4108 67.0657 21.4655C67.0892 21.5144 67.1258 21.5584 67.1345 21.6151C67.1502 21.7186 67.1458 21.7929 67.158 21.8505C67.1711 21.9131 67.2138 21.9883 67.2686 22.0743C67.2651 22.1359 67.2965 22.1828 67.3209 22.2326C67.3644 22.3215 67.4359 22.3841 67.4725 22.4808C67.482 22.5053 67.4916 22.5307 67.5012 22.5561C67.5683 22.2854 67.624 22.0411 67.6545 21.8662C67.7373 21.3991 68.1615 19.6031 68.1789 19.1311C68.1867 18.9044 68.2285 18.5096 68.2782 18.0679C68.2268 18.0386 68.171 18.0152 68.1257 17.9761C68.0953 17.9507 68.0735 17.9086 68.0369 17.8989L68.0395 17.893Z" fill="currentColor"/>
<path d="M67.7523 6.73088C67.7296 6.82371 67.7096 6.91557 67.6817 7.00644C67.6695 7.04748 67.6591 7.08657 67.6321 7.12957C67.6051 7.17256 67.5816 7.23901 67.5789 7.30546C67.5781 7.33282 67.5685 7.37581 67.5545 7.39242C67.4962 7.46278 67.4709 7.55463 67.4361 7.63867C67.4143 7.69144 67.3629 7.73541 67.3594 7.77254C67.3542 7.83508 67.3255 7.87808 67.3063 7.92791C67.2924 7.96309 67.2845 8.00706 67.2471 8.02465C67.2366 8.02954 67.2209 8.06179 67.2218 8.07547C67.2296 8.15169 67.187 8.20934 67.1634 8.27188C67.1347 8.34907 67.1103 8.42236 67.0842 8.50151C67.058 8.58164 67.0293 8.66079 67.0006 8.73994C66.9518 8.86991 66.9448 9.0155 66.8777 9.13863C66.8838 9.23732 66.8316 9.31843 66.7959 9.40149C66.7689 9.46598 66.7279 9.52168 66.6931 9.58129C66.6574 9.63992 66.6365 9.70636 66.5894 9.76206C66.5302 9.83242 66.5049 9.93502 66.4605 10.022C66.437 10.0689 66.4344 10.1344 66.3778 10.1568C66.3699 10.1598 66.3612 10.1822 66.3629 10.194C66.3743 10.28 66.3299 10.3542 66.2898 10.4031C66.2253 10.4822 66.1992 10.579 66.1583 10.6689C66.1234 10.7431 66.0999 10.8233 66.0659 10.8985C66.0424 10.9523 66.0302 11.0109 65.9901 11.0597C65.9597 11.0979 65.9605 11.1682 65.944 11.222C65.9274 11.2767 65.9048 11.3285 65.8856 11.3822L65.822 11.5581L65.7593 11.734C65.7367 11.7975 65.7175 11.863 65.6905 11.9245C65.6652 11.9822 65.626 12.034 65.6025 12.0926C65.5372 12.2578 65.5285 12.4473 65.4483 12.6086C65.4649 12.6701 65.4248 12.7033 65.4004 12.7483C65.3787 12.7893 65.3447 12.8343 65.363 12.8939C65.3682 12.9105 65.3569 12.933 65.3525 12.9525C65.3421 12.9955 65.2968 13.0151 65.302 13.0756C65.3064 13.1177 65.2698 13.1616 65.2567 13.2076C65.2428 13.2554 65.1984 13.2945 65.2262 13.3541C65.1313 13.402 65.1992 13.5281 65.1374 13.5926C65.1182 13.6131 65.1034 13.6385 65.0869 13.6619C65.0781 13.6737 65.0642 13.6844 65.0633 13.6971C65.0363 13.9385 64.9013 14.13 64.8299 14.3499C64.8212 14.3772 64.8229 14.4085 64.8186 14.4378C64.816 14.4515 64.8116 14.4662 64.8038 14.4779C64.7776 14.515 64.7611 14.5394 64.7498 14.56C64.836 14.4867 64.9179 14.4056 65.0076 14.3313C65.0346 14.3088 65.0599 14.2844 65.1008 14.2795C65.1313 14.2756 65.174 14.2473 65.1853 14.2053C65.1879 14.1965 65.1966 14.1847 65.2027 14.1847C65.2802 14.1857 65.3046 14.0997 65.3543 14.0557C65.4518 13.9668 65.5738 13.9014 65.6827 13.8202C65.7053 13.8036 65.7384 13.7958 65.7393 13.7567C65.7698 13.7665 65.7767 13.746 65.7915 13.7206C65.8063 13.6942 65.8412 13.6668 65.8673 13.6649C65.903 13.6619 65.9222 13.6375 65.9466 13.6199C65.9727 13.6014 65.9954 13.5779 66.0198 13.5574C66.072 13.5154 66.1208 13.4694 66.1661 13.4225C66.2062 13.3844 66.2332 13.3258 66.2915 13.2515C66.3142 13.2242 66.3464 13.2056 66.3751 13.188C66.403 13.1724 66.4204 13.144 66.4553 13.1489C66.4683 13.1509 66.4884 13.1284 66.5049 13.1177C66.5633 13.0786 66.6338 13.0502 66.673 12.9984C66.7105 12.9486 66.7741 12.9222 66.8028 12.8597C66.8107 12.8421 66.8394 12.8314 66.8568 12.8157C66.9274 12.7512 67.018 12.7141 67.0702 12.6281C67.1077 12.6242 67.1364 12.5959 67.1643 12.5704C67.1852 12.5519 67.2157 12.5402 67.2192 12.506C67.2192 12.502 67.227 12.4952 67.2314 12.4923C67.2593 12.4747 67.2897 12.4659 67.315 12.4366C67.335 12.4121 67.3446 12.3838 67.3681 12.3604C67.4596 12.2675 67.5676 12.1991 67.6591 12.1082C67.6948 12.0985 67.7235 12.0701 67.7549 12.0457C67.8089 12.0027 67.8507 11.946 67.9099 11.9079C67.9666 11.8718 68.0267 11.8337 68.0746 11.7897C68.1564 11.7135 68.2557 11.6656 68.3411 11.606C68.3629 11.5903 68.3855 11.5688 68.4134 11.5669C68.4204 11.5669 68.4439 11.5483 68.4482 11.5395C68.4578 11.5219 68.4779 11.5141 68.4901 11.5024C68.5249 11.4672 68.5815 11.4682 68.6077 11.4184C68.6129 11.4145 68.619 11.4105 68.6242 11.4066C68.6225 10.3855 68.5867 9.25198 68.4848 8.05006C68.4273 7.37581 68.2209 6.68789 67.9613 6.06836C67.9422 6.11917 67.923 6.16901 67.9099 6.2208C67.8655 6.39571 67.7976 6.55988 67.754 6.73088H67.7523Z" fill="currentColor"/>
<path 
d="M68.9656 3.14486C68.9656 3.14486 68.9656 3.14935 68.9656 3.15273C68.9667 3.14486 68.9667 3.14148 68.9656 3.14486Z" 
fill="currentColor"/>
<path d="M30.2325 24.3754C29.9912 23.7715 28.7151 19.3713 28.216 17.8196C27.6803 16.1574 27.0105 14.4513 26.2762 12.8712C26.1917 12.6904 26.1072 12.5116 26.021 12.3338C25.4016 11.0527 24.44 7.81045 24.2553 7.32285C23.4069 5.0822 22.9853 2.92851 21.8896 2.64611C21.515 2.54937 21.0812 2.62754 20.7014 2.62657C20.3565 2.62559 20.0133 2.58455 19.6832 2.72428C18.7564 3.11613 18.4759 4.50176 18.1736 5.45938C17.7468 6.81179 16.2364 15.4676 16.1249 16.4584C15.8636 18.7772 15.3976 21.0364 15.0614 23.3367C14.9586 24.0422 14.8889 24.7077 14.8593 25.3976C14.8419 25.807 15.1232 26.151 15.476 26.1558C17.1118 26.1773 17.698 26.1422 20.09 26.1422C20.8844 26.1422 21.2476 20.0485 22.8843 20.198C23.2798 20.2342 23.731 21.182 23.8703 21.5543C24.3633 22.8696 24.6421 23.2859 25.4138 24.6705C25.9286 25.594 28.871 26.0923 29.4259 26.1422C29.7273 26.1695 30.4067 25.891 30.5051 25.4112C30.5644 25.121 30.3301 24.6168 30.2342 24.3764L30.2325 24.3754ZM25.8267 16.005C25.7971 16.0519 25.811 16.092 25.8084 16.135C25.8058 16.1799 25.8102 16.2258 25.8084 16.2718C25.7945 16.4633 25.7614 16.6519 25.7152 16.8278C25.7065 16.861 25.6812 16.8893 25.6664 16.9206C25.6516 16.9529 25.6682 16.9949 25.6194 17.0173C25.6011 17.0252 25.6063 17.0633 25.602 17.0877C25.5854 17.1737 25.5401 17.2607 25.5576 17.3467C25.575 17.4326 25.514 17.503 25.5567 17.5929C25.568 17.6183 25.541 17.6496 25.5375 17.6799C25.5192 17.802 25.4365 17.9027 25.4574 18.0414C25.4043 18.0668 25.3929 18.1176 25.3764 18.1655C25.3651 18.2007 25.3267 18.2281 25.3555 18.2789C25.359 18.2847 25.3529 18.2974 25.3485 18.3033C25.3198 18.3395 25.2753 18.359 25.2588 18.4079C25.2457 18.4489 25.2509 18.4958 25.2239 18.5359C25.1299 18.6795 24.9748 18.7733 24.8494 18.8779C24.7954 18.8681 24.7588 18.9043 24.7179 18.9228C24.6456 18.96 24.595 19.0352 24.5149 19.0577C24.4409 19.0821 24.3607 19.1017 24.2998 19.1466C24.2466 19.1867 24.1883 19.2082 24.129 19.2257L23.9505 19.2766C23.92 19.2863 23.8877 19.3049 23.8529 19.2844C23.8442 19.2795 23.812 19.2912 23.805 19.302C23.7902 19.3244 23.7641 19.3186 23.7466 19.3284C23.6952 19.3557 23.6282 19.3039 23.5855 19.3606C23.5263 19.3733 23.4653 19.3811 23.4052 19.3909C23.3451 19.4007 23.2859 19.4114 23.2249 19.4153C23.197 19.4183 23.17 19.4241 23.1395 19.4163C23.1186 19.4114 23.0733 19.4163 23.0542 19.4241C23.0097 19.4417 22.9618 19.4378 22.9157 19.4417C22.846 19.4485 22.7763 19.4495 22.7066 19.4485C22.6369 19.4485 22.5672 19.4485 22.4975 19.4417C22.4366 19.4349 22.3756 19.4339 22.3164 19.4202C22.2554 19.4085 22.1909 19.4046 22.1334 19.386C22.1291 19.3841 22.123 19.3831 22.1178 19.3821C22.0943 19.3762 22.0699 19.3713 22.0463 19.3645C22.0159 19.3557 21.9775 19.3401 21.9601 19.3371C21.9253 19.3293 21.9061 19.3127 21.8808 19.302C21.8094 19.2687 21.7693 19.2414 21.7815 19.2345C21.7842 19.2336 21.7937 19.2345 21.8042 19.2365C21.8721 19.2521 21.8713 19.2551 21.9732 19.2942C22.0402 19.3098 22.1056 19.3303 22.1726 19.343C22.2406 19.3518 22.3077 19.3626 22.3765 19.3645C22.4662 19.3713 22.562 19.3733 22.6543 19.3626C22.7022 19.3606 22.751 19.3586 22.7989 19.3567C22.8468 19.3538 22.8947 19.345 22.9409 19.3332C23.0332 19.3098 23.123 19.2873 23.2136 19.2648C23.2824 19.2492 23.3521 19.2355 23.4209 19.2189C23.4923 19.2023 23.562 19.1681 23.6325 19.1515C23.6761 19.1407 23.7275 19.1495 23.7641 19.1202C23.8433 19.0547 23.9409 19.0489 24.0193 18.9922C24.1273 18.916 24.2475 18.8749 24.3503 18.7968C24.4043 18.7528 24.4592 18.7108 24.5132 18.6737C24.5384 18.658 24.5619 18.6404 24.5985 18.6424C24.636 18.6434 24.6734 18.615 24.69 18.5642C24.6978 18.5437 24.7118 18.5193 24.7248 18.5193C24.7553 18.5193 24.7814 18.5095 24.8006 18.488C24.8189 18.4655 24.8355 18.4411 24.852 18.4167C24.8712 18.3844 24.9304 18.3795 24.9287 18.3463C24.9234 18.2916 24.9539 18.272 24.967 18.2349C24.9766 18.2095 24.9774 18.1743 25.0236 18.1743C25.0358 18.1743 25.0489 18.1499 25.0445 18.1382C25.0166 18.0688 25.0593 18.0336 25.0759 17.9838C25.1151 17.8675 25.1508 17.7473 25.1865 17.6261C25.217 17.5255 25.1813 17.4092 25.2266 17.3115C25.1856 17.2333 25.2239 17.1688 25.2379 17.0994C25.2492 17.0476 25.2771 16.9988 25.298 16.948C25.3189 16.8972 25.318 16.8424 25.3529 16.7916C25.3964 16.7261 25.3833 16.6441 25.3999 16.5708C25.4077 16.5307 25.3842 16.4828 25.44 16.4535C25.4478 16.4496 25.4487 16.431 25.4417 16.4232C25.3921 16.3646 25.4112 16.3021 25.4347 16.2561C25.4722 16.1809 25.4565 16.1056 25.4583 16.0304C25.46 15.9679 25.4478 15.9053 25.4461 15.8418C25.4443 15.7959 25.4286 15.7539 25.4434 15.7021C25.4556 15.662 25.4191 15.619 25.4086 15.577C25.3973 15.534 25.3929 15.49 25.3842 15.4461C25.3746 15.3972 25.3659 15.3503 25.3555 15.3073C25.345 15.2633 25.3328 15.2194 25.3189 15.1764C25.3032 15.1295 25.2832 15.0845 25.2692 15.0376C25.2562 14.9927 25.2544 14.9399 25.2344 14.8969C25.2074 14.8363 25.1656 14.7855 25.1229 14.7376C25.0802 14.6868 25.0402 14.6458 25.0053 14.5783C24.9557 14.5695 24.9539 14.5197 24.9374 14.4816C24.9217 14.4454 24.9104 14.4005 24.8633 14.3907C24.8503 14.3878 24.8416 14.3702 24.832 14.3585C24.8102 14.3321 24.8215 14.2871 24.7823 14.2676C24.7544 14.2539 24.7466 14.207 24.7257 14.1796C24.7039 14.1503 24.7004 14.1005 24.6525 14.1025C24.6647 14.0086 24.5619 14.0233 24.5471 13.9569C24.5419 13.9354 24.5306 13.9158 24.5219 13.8953C24.5175 13.8845 24.5149 13.8709 24.5079 13.866C24.3694 13.779 24.2823 13.6266 24.1482 13.5308C24.1316 13.5191 24.1116 13.5152 24.0942 13.5064C24.0855 13.5025 24.0768 13.4966 24.0707 13.4888C24.0106 13.4165 24.0088 13.4175 23.9339 13.3833C23.9148 13.3754 23.8982 13.3578 23.879 13.3471C23.8303 13.3188 23.7884 13.2806 23.731 13.266C23.6743 13.2504 23.6334 13.1859 23.5846 13.1438C23.5419 13.1057 23.4993 13.0676 23.4453 13.0412L23.2432 12.9425C23.1805 12.9132 23.1151 12.8947 23.0472 12.8869C23.0298 12.8849 23.0062 12.879 22.9958 12.8839C22.9549 12.9044 22.92 12.9181 22.8782 12.882C22.8765 12.88 22.8608 12.881 22.8573 12.882C22.8216 12.9054 22.7728 12.8947 22.7327 12.8947C22.5786 12.8986 22.4313 12.9406 22.2798 12.9699C22.2554 12.9748 22.2232 12.9875 22.2084 12.9855C22.1753 12.9816 22.1657 13.0061 22.1387 13.01C22.116 13.0129 22.0864 13.0315 22.0672 13.0324C21.9967 13.0373 21.9261 13.0725 21.8686 13.1057C21.8146 13.137 21.7606 13.1712 21.7101 13.1927C21.6091 13.2337 21.5194 13.2992 21.4305 13.3637C21.3382 13.4302 21.2537 13.5034 21.1692 13.5855C21.1344 13.6187 21.0908 13.6451 21.0716 13.694C21.0682 13.7038 21.0507 13.7174 21.0394 13.7262C21.0115 13.7477 20.981 13.7653 20.9549 13.7898C20.9297 13.8142 20.9105 13.8484 20.8878 13.8767C20.8696 13.9002 20.8486 13.9168 20.8373 13.95C20.8286 13.9744 20.799 13.9959 20.7668 14.0086C20.7041 14.035 20.6352 14.0624 20.5821 14.1327C20.5359 14.1953 20.4854 14.252 20.4427 14.3164C20.4253 14.3428 20.407 14.3673 20.4027 14.4063C20.4001 14.4425 20.3704 14.4806 20.346 14.507C20.306 14.5461 20.2851 14.593 20.2833 14.6653C20.2833 14.6888 20.2738 14.7132 20.2659 14.7347C20.2171 14.8695 20.1675 15.0014 20.1265 15.1324C20.1161 15.1637 20.1143 15.1998 20.0778 15.2145C20.1074 15.2487 20.0873 15.277 20.0778 15.3034C20.0638 15.3435 20.0394 15.3786 20.029 15.4207C20.0159 15.4695 20.0142 15.5213 20.0333 15.5741C20.0508 15.6219 20.0124 15.6767 20.0447 15.7294C20.0508 15.7392 20.0281 15.7588 20.0299 15.7734C20.0386 15.832 20.0046 15.8985 20.0612 15.9503C20.0656 15.9542 20.0664 15.9679 20.063 15.9728C20.0124 16.046 20.0603 16.1135 20.0795 16.1799C20.1022 16.2542 20.0656 16.3304 20.0752 16.4066C20.0856 16.4936 20.11 16.5825 20.0969 16.6705C20.0873 16.7428 20.0926 16.8073 20.0995 16.8747L20.1396 17.073C20.157 17.1395 20.1727 17.2079 20.1936 17.2734C20.2171 17.3379 20.238 17.4053 20.2659 17.4678C20.2912 17.5225 20.3243 17.5714 20.3504 17.6251C20.3826 17.6838 20.4088 17.7463 20.4393 17.8059L20.5316 17.972C20.5473 17.9974 20.5699 18.0199 20.5717 18.0531C20.5717 18.06 20.5812 18.0756 20.5873 18.0805C20.6291 18.1147 20.6553 18.1606 20.6788 18.2134C20.6849 18.229 20.7014 18.2447 20.711 18.2613C20.738 18.3072 20.7729 18.3336 20.8051 18.3678C20.8338 18.4 20.8591 18.446 20.8931 18.4655C20.8983 18.4675 20.9122 18.4841 20.9157 18.4909C20.9601 18.574 21.0481 18.6219 21.0995 18.6961C21.13 18.7127 21.1492 18.7469 21.1692 18.7645C21.1997 18.789 21.2302 18.8124 21.2607 18.8398C21.2894 18.8652 21.3181 18.8925 21.3486 18.915C21.4044 18.957 21.4575 19.0059 21.5185 19.0401C21.5385 19.0518 21.5751 19.0753 21.596 19.0958C21.5995 19.0997 21.6126 19.1075 21.6204 19.1134C21.6857 19.1525 21.7633 19.2033 21.7763 19.2209C21.7842 19.2316 21.7807 19.2365 21.7711 19.2365C21.7659 19.2365 21.7371 19.2209 21.718 19.2121C21.6849 19.1964 21.6526 19.1828 21.6178 19.1632C21.5768 19.1388 21.5342 19.1095 21.4819 19.0753C21.3992 19.0215 21.3164 18.9561 21.2284 18.8857C21.1378 18.8192 21.0525 18.743 20.9671 18.6678C20.9253 18.6277 20.8835 18.5925 20.8391 18.5583C20.7955 18.5251 20.7615 18.4694 20.7128 18.446C20.7084 18.444 20.7014 18.4352 20.6962 18.4294C20.5987 18.3287 20.4933 18.2281 20.4149 18.1108C20.3696 18.0424 20.3251 17.975 20.2764 17.9095C20.2328 17.8401 20.1849 17.7747 20.1474 17.7004C19.9741 17.4893 19.8844 17.2118 19.8147 16.9314C19.8043 16.8874 19.7929 16.8424 19.786 16.7965C19.7825 16.774 19.7799 16.7496 19.7799 16.7271C19.7799 16.7066 19.7833 16.6851 19.7886 16.6626C19.8077 16.5874 19.7424 16.5082 19.7833 16.4242C19.7868 16.4174 19.7729 16.4037 19.7694 16.3929C19.7598 16.3666 19.7424 16.3402 19.7442 16.3138C19.7537 16.1535 19.7555 16.1555 19.7163 16.0245C19.7119 16.0089 19.7328 15.9874 19.7328 15.9688C19.7311 15.8946 19.7328 15.8193 19.7285 15.7441C19.725 15.6747 19.7581 15.6063 19.7154 15.535C19.7058 15.5193 19.718 15.49 19.7215 15.4676C19.7311 15.3943 19.7476 15.321 19.7624 15.2477C19.7799 15.1637 19.8252 15.0943 19.8147 15.0044C19.8104 14.9643 19.8713 14.9389 19.8696 14.9164C19.8661 14.8744 19.8757 14.8412 19.8922 14.8099C19.9097 14.7796 19.9393 14.7562 19.9532 14.7249C19.9654 14.6975 19.9593 14.6614 19.9706 14.634C19.9846 14.5998 20.0046 14.5666 20.0211 14.5344C20.0394 14.4992 20.0499 14.4738 20.0612 14.4298C20.0812 14.3399 20.1318 14.2774 20.1745 14.2129C20.2215 14.1474 20.2764 14.0907 20.326 14.0331C20.3643 13.9871 20.4122 13.9637 20.4558 13.9324C20.4994 13.9012 20.529 13.8435 20.5856 13.8386C20.5882 13.8386 20.5917 13.8337 20.5943 13.8308L20.8504 13.6354C20.9959 13.522 21.1335 13.4038 21.285 13.2953C21.3269 13.264 21.3704 13.2289 21.4183 13.2171C21.4288 13.2152 21.4444 13.1986 21.4575 13.1937C21.5045 13.1751 21.5255 13.1263 21.5734 13.1155C21.616 13.1048 21.6535 13.0784 21.6927 13.0588C21.738 13.0383 21.7824 13.0139 21.8286 12.9953C21.8599 12.9826 21.8878 12.966 21.9113 12.9484C21.9523 12.9513 21.9984 12.9191 22.0429 12.9132C22.0716 12.9083 22.1152 12.8996 22.1343 12.8878C22.1761 12.8605 22.2232 12.8536 22.2676 12.8409C22.3347 12.8214 22.4035 12.8116 22.4688 12.7862C22.4967 12.7745 22.5359 12.7715 22.569 12.7696C22.6003 12.7667 22.6308 12.7696 22.6622 12.7686C22.7197 12.7637 22.778 12.7598 22.8329 12.7442C22.8817 12.7305 22.9427 12.7461 22.9949 12.7217C23.0019 12.7178 23.0193 12.7198 23.0298 12.7217C23.0873 12.7334 23.1378 12.7442 23.2057 12.7452C23.2623 12.7452 23.3242 12.7803 23.3756 12.8009C23.4322 12.8233 23.4932 12.8409 23.5446 12.8722C23.5777 12.8917 23.6108 12.8614 23.6421 12.9035C23.6595 12.9269 23.7057 12.9396 23.7397 12.9562C23.7745 12.9738 23.8137 12.9846 23.8433 13.008C24.0001 13.1302 24.1874 13.2025 24.3424 13.3363C24.406 13.393 24.4984 13.4223 24.5262 13.5201C24.5959 13.5298 24.6281 13.61 24.6865 13.6324C24.7248 13.6461 24.7457 13.6725 24.7693 13.6989C24.9295 13.8767 25.0436 14.0839 25.1638 14.2539C25.1839 14.2822 25.2048 14.3086 25.2257 14.334L25.2945 14.4132C25.345 14.4728 25.3947 14.5344 25.4391 14.6018C25.4644 14.6389 25.4914 14.6751 25.4896 14.7357C25.4887 14.7796 25.5157 14.8383 25.5689 14.8656C25.5793 14.8705 25.5933 14.8861 25.5915 14.8949C25.5654 15.0122 25.663 15.0689 25.6934 15.1617C25.7231 15.2555 25.7309 15.3386 25.7387 15.4226C25.7466 15.5076 25.7518 15.5936 25.7684 15.6786C25.7753 15.7148 25.7596 15.7617 25.8128 15.7832C25.7753 15.8184 25.7971 15.8359 25.8206 15.8701C25.8433 15.9053 25.852 15.9669 25.8302 16.0011L25.8267 16.005ZM20.3852 15.6581C20.3913 15.6161 20.4044 15.5731 20.4088 15.535C20.4088 15.5272 20.4149 15.5096 20.4192 15.4969C20.4279 15.4676 20.4401 15.4373 20.4497 15.4089C20.4593 15.3806 20.4663 15.3513 20.4724 15.3229C20.4767 15.2975 20.4854 15.2731 20.4915 15.2477C20.4959 15.2281 20.5107 15.1988 20.5237 15.1744C20.5499 15.1236 20.576 15.0698 20.6048 15.0005C20.63 14.9399 20.6614 14.8803 20.7006 14.8265C20.718 14.8041 20.7337 14.7865 20.7467 14.7611C20.7589 14.7386 20.7807 14.7015 20.7964 14.6741C20.8225 14.6311 20.8452 14.5901 20.8739 14.548C20.8844 14.5334 20.8966 14.5197 20.9079 14.505C20.9776 14.42 21.042 14.3252 21.1204 14.2451C21.1387 14.2256 21.1587 14.2051 21.1762 14.1923C21.1857 14.1767 21.2066 14.1581 21.2232 14.1425L21.3007 14.0712C21.3303 14.0419 21.3591 14.0125 21.3852 13.9783C21.407 13.9471 21.4462 13.9129 21.4793 13.8875C21.4854 13.8826 21.5002 13.8757 21.5106 13.8689C21.5498 13.8425 21.6012 13.8259 21.6404 13.8103C21.6439 13.8083 21.6526 13.8054 21.657 13.8054C21.7066 13.7966 21.7476 13.7595 21.7955 13.7321C21.8512 13.7047 21.8991 13.6969 21.9531 13.6764C22.0132 13.6559 22.0786 13.6354 22.1395 13.6334C22.2432 13.6334 22.3451 13.6344 22.447 13.6354C22.5516 13.6354 22.657 13.6383 22.7606 13.6344C22.8059 13.6315 22.8512 13.6266 22.8974 13.6266C22.9488 13.6246 23.0028 13.6383 23.0498 13.653L23.1892 13.6911C23.2109 13.6979 23.2353 13.7038 23.2536 13.7126C23.2571 13.7145 23.2702 13.7194 23.2763 13.7214C23.3163 13.7331 23.3529 13.7507 23.3912 13.7692C23.4017 13.7741 23.4183 13.78 23.4313 13.7849C23.4679 13.7985 23.501 13.7995 23.5376 13.8093C23.5707 13.8171 23.6064 13.8328 23.636 13.8386C23.6404 13.8386 23.6552 13.8445 23.6604 13.8474C23.7214 13.8777 23.7998 13.8777 23.8634 13.9002C23.8921 13.9021 23.9174 13.9187 23.9374 13.9275C23.9653 13.9422 23.9923 13.9559 24.021 13.9705L24.102 14.0106C24.1499 14.037 24.2057 14.0536 24.2519 14.0966C24.2675 14.1093 24.291 14.1415 24.3006 14.165C24.3024 14.1689 24.3093 14.1806 24.3137 14.1875C24.3451 14.2461 24.3834 14.3125 24.3869 14.3301C24.3895 14.3399 24.386 14.3419 24.379 14.337C24.3755 14.335 24.3607 14.3106 24.3503 14.2959C24.3329 14.2705 24.3146 14.2461 24.2989 14.2168C24.2789 14.1826 24.2597 14.1435 24.224 14.1112C24.1952 14.0858 24.1604 14.0731 24.1229 14.0536C24.0855 14.034 24.048 14.0145 24.008 13.9959C23.9679 13.9764 23.9304 13.952 23.8904 13.9383C23.852 13.9256 23.8067 13.9187 23.7649 13.909C23.7214 13.9012 23.6796 13.8914 23.6386 13.8797C23.5986 13.8689 23.555 13.8484 23.5167 13.8474C23.5132 13.8474 23.5054 13.8455 23.5001 13.8445C23.4479 13.8367 23.3913 13.82 23.3425 13.7995C23.292 13.779 23.2467 13.7624 23.1979 13.7468C23.1421 13.7292 23.0846 13.7165 23.0271 13.7028C22.9967 13.695 22.9723 13.6881 22.9461 13.6862C22.9191 13.6842 22.8921 13.6842 22.8634 13.6862C22.8172 13.693 22.7702 13.7018 22.7197 13.7057L22.5751 13.7135C22.4793 13.7174 22.3826 13.7194 22.2868 13.7262C22.2267 13.7321 22.1639 13.735 22.1143 13.7311C22.0664 13.7262 22.015 13.7712 21.9584 13.7683C21.954 13.7683 21.9453 13.7771 21.9383 13.7819C21.9209 13.7917 21.9035 13.8064 21.8852 13.8113C21.8538 13.8191 21.8477 13.82 21.8321 13.8269C21.819 13.8328 21.8077 13.8386 21.7972 13.8455C21.7746 13.8591 21.7598 13.8777 21.7066 13.9109C21.6944 13.9187 21.6761 13.9109 21.664 13.9158C21.6387 13.9236 21.6169 13.9305 21.6012 13.9393C21.5838 13.949 21.5612 13.9627 21.5446 13.9764C21.5289 13.9891 21.5115 13.9989 21.4985 14.0116C21.4915 14.0184 21.4863 14.0253 21.4828 14.0331C21.4793 14.0419 21.4723 14.0575 21.4706 14.0722C21.468 14.0858 21.4505 14.0995 21.4392 14.1122L21.3338 14.2305C21.2964 14.2754 21.2467 14.3047 21.2319 14.3692C21.2258 14.3976 21.1814 14.3946 21.1788 14.4112C21.1735 14.4415 21.1631 14.464 21.1465 14.4826C21.13 14.5011 21.1047 14.5119 21.0891 14.5334C21.076 14.5519 21.0751 14.5842 21.0621 14.6057C21.0472 14.6301 21.0202 14.6594 21.0054 14.677C20.9959 14.6888 20.9863 14.7063 20.9854 14.7308C20.9828 14.7826 20.9575 14.8353 20.9209 14.9047C20.9114 14.9223 20.9 14.9409 20.887 14.9585C20.8791 14.9692 20.8765 14.9731 20.8748 14.976L20.8678 14.9868C20.8591 15.0014 20.8495 15.019 20.8434 15.0405C20.8338 15.0728 20.8051 15.0943 20.7824 15.1255C20.7598 15.1568 20.7763 15.2164 20.7189 15.2321C20.7162 15.2321 20.7171 15.2379 20.7154 15.2409C20.6953 15.2858 20.6727 15.3278 20.6622 15.3503L20.6553 15.3669L20.6431 15.407L20.6187 15.4812C20.5978 15.5448 20.5804 15.62 20.5717 15.6816C20.5621 15.7451 20.5664 15.7939 20.5673 15.8819C20.5673 15.9268 20.5891 15.9737 20.542 16.0148C20.5325 16.0236 20.5473 16.0421 20.5403 16.0539C20.5133 16.0969 20.6074 16.133 20.5656 16.174C20.5281 16.2112 20.5499 16.2493 20.5473 16.2854C20.5446 16.3265 20.5516 16.3666 20.5525 16.4056C20.5525 16.432 20.5638 16.4555 20.5952 16.4711C20.5412 16.5082 20.5873 16.5405 20.5682 16.5776C20.5551 16.603 20.5481 16.6431 20.5725 16.6499C20.5987 16.6577 20.6108 16.6695 20.6178 16.6851C20.6274 16.7066 20.6318 16.7301 20.6413 16.7506C20.671 16.8112 20.6701 16.8796 20.7293 16.9206C20.7546 16.9382 20.7528 16.9724 20.7554 16.9998C20.7581 17.0252 20.7424 17.0564 20.7485 17.0789C20.7528 17.0965 20.7642 17.1258 20.7772 17.1512C20.7903 17.1756 20.8077 17.1971 20.8312 17.2147C20.8722 17.2431 20.8347 17.3134 20.9079 17.3095C20.9175 17.3085 20.9183 17.3183 20.9157 17.3252C20.9096 17.3447 20.9061 17.3613 20.9105 17.3721C20.9114 17.375 20.9122 17.376 20.9148 17.3799C20.9192 17.3857 20.9244 17.3906 20.9297 17.3955C20.941 17.4053 20.9532 17.4131 20.9697 17.4199C21.022 17.4424 21.0324 17.5108 21.0568 17.5548C21.083 17.6017 21.1178 17.6378 21.1256 17.6857C21.1317 17.719 21.2093 17.6662 21.1823 17.7336C21.1762 17.7815 21.1796 17.761 21.1953 17.7795C21.2162 17.804 21.2485 17.8167 21.2598 17.8499C21.2903 17.9369 21.3434 17.9965 21.4009 18.0522L21.488 18.1343L21.508 18.1548L21.5159 18.1636L21.5411 18.1919C21.5586 18.2114 21.589 18.2173 21.6178 18.2329C21.6326 18.2408 21.6474 18.2515 21.6596 18.2681C21.6622 18.272 21.6674 18.2779 21.6674 18.2808V18.2906L21.6657 18.3199C21.7066 18.2711 21.731 18.3365 21.785 18.3072C21.8164 18.2877 21.846 18.2994 21.8756 18.3101L21.9836 18.3502C22.0159 18.361 22.0019 18.3551 22.089 18.3717C22.1509 18.3864 22.1936 18.4049 22.2214 18.4127C22.2528 18.4225 22.2476 18.4196 22.2667 18.4167C22.2955 18.4137 22.3608 18.403 22.4418 18.4382C22.4575 18.445 22.4714 18.4538 22.4819 18.4606C22.4888 18.4655 22.4888 18.4655 22.4888 18.4655H22.4897L22.4932 18.4665C22.4958 18.4665 22.4976 18.4675 22.501 18.4665C22.508 18.4655 22.515 18.4597 22.5202 18.4567C22.5097 18.4548 22.555 18.4518 22.596 18.4606C22.6299 18.4665 22.657 18.4763 22.677 18.4831C22.6961 18.4899 22.7101 18.4948 22.7162 18.5007C22.7197 18.5036 22.7205 18.5066 22.7197 18.5114C22.7197 18.5144 22.7188 18.5183 22.7179 18.5212V18.5232V18.5261L22.7214 18.5329C22.7301 18.5623 22.765 18.5701 22.7989 18.5281C22.805 18.5202 22.819 18.5144 22.8242 18.5212C22.8547 18.5662 22.8913 18.5691 22.9348 18.5671C22.9479 18.5593 22.9592 18.5398 22.9749 18.5378C23.0054 18.5349 23.0481 18.5388 23.0899 18.5359C23.1691 18.5173 23.2362 18.5173 23.285 18.5026C23.305 18.4968 23.3338 18.5114 23.3303 18.4616C23.359 18.4929 23.3651 18.4684 23.3791 18.443C23.393 18.4167 23.4252 18.401 23.4514 18.4127C23.4879 18.4294 23.5045 18.4098 23.5332 18.401C23.562 18.3912 23.589 18.3756 23.6177 18.3649L23.8006 18.2965C23.8695 18.2681 23.9313 18.2515 23.9871 18.232C24.0088 18.2251 24.0341 18.229 24.0559 18.2242C24.0672 18.2222 24.075 18.2134 24.0846 18.2085C24.0951 18.2027 24.1099 18.1968 24.1273 18.2046C24.1404 18.2095 24.1586 18.188 24.1735 18.1782C24.2248 18.146 24.2876 18.1176 24.2937 18.0678C24.3006 18.0385 24.3172 18.0121 24.3381 17.9799C24.3581 17.9496 24.3877 17.9163 24.3938 17.8861C24.3973 17.8694 24.4217 17.8606 24.4339 17.845C24.4818 17.7834 24.5541 17.7287 24.5646 17.6378C24.5977 17.6232 24.6099 17.588 24.622 17.5567C24.6308 17.5352 24.6525 17.5079 24.6421 17.4756C24.6412 17.4717 24.6447 17.462 24.6482 17.4571C24.6673 17.4268 24.6926 17.4063 24.7048 17.3701C24.7152 17.3408 24.7153 17.3125 24.7283 17.2831L24.7649 17.2059C24.7762 17.1805 24.7945 17.1483 24.8093 17.1199C24.845 17.0496 24.8607 17.0369 24.8572 16.9704C24.8642 16.9538 24.8677 16.9333 24.8712 16.9118C24.8747 16.8923 24.879 16.8717 24.8825 16.8512C24.8947 16.7867 24.8886 16.7232 24.8973 16.6558C24.906 16.5913 24.9112 16.5209 24.906 16.4594C24.8973 16.3519 24.9025 16.2444 24.9017 16.1359C24.9017 16.1086 24.8982 16.0763 24.9078 16.0509C24.9095 16.0451 24.9095 16.0138 24.9078 16.006C24.9025 15.9884 24.9069 15.9679 24.9051 15.9503C24.9017 15.9014 24.9217 15.8535 24.9086 15.8057L24.9121 15.6444C24.9121 15.5917 24.9156 15.536 24.9138 15.4861C24.9138 15.4627 24.9095 15.4392 24.9095 15.4138C24.9095 15.3962 24.9017 15.3571 24.8964 15.3415C24.8825 15.3044 24.872 15.2653 24.859 15.2281C24.8389 15.1715 24.8154 15.1158 24.7919 15.0591C24.771 15.0024 24.7405 14.9545 24.7065 14.9047C24.6769 14.8617 24.6508 14.8129 24.6281 14.765C24.6046 14.7171 24.5776 14.6692 24.5558 14.6213C24.5541 14.6174 24.5515 14.6135 24.5489 14.6096C24.5367 14.592 24.5254 14.5744 24.514 14.5578C24.4992 14.5353 24.4827 14.5041 24.4731 14.4923C24.4548 14.4679 24.4461 14.4503 24.4339 14.4308C24.3982 14.3751 24.3808 14.337 24.3903 14.3399C24.3921 14.3399 24.3982 14.3458 24.4043 14.3526C24.4426 14.3976 24.4426 14.3985 24.4957 14.4777C24.528 14.5295 24.5637 14.5764 24.5907 14.6311C24.6186 14.6848 24.6464 14.7386 24.6743 14.7933C24.7074 14.8646 24.7649 14.9262 24.8015 15.0024C24.8363 15.0826 24.8686 15.1627 24.8982 15.2428C24.9278 15.322 24.9487 15.406 24.9522 15.492C24.9539 15.5584 24.9513 15.621 24.9513 15.6855C24.9513 15.7519 24.9513 15.8203 24.9513 15.8858C24.9513 15.9268 24.9478 15.9698 24.9496 16.0079C24.953 16.092 24.953 16.1789 24.9574 16.261C24.9635 16.3753 24.9652 16.4916 24.9635 16.605C24.9626 16.6665 24.96 16.7271 24.953 16.7897C24.9496 16.818 24.9461 16.8444 24.9391 16.8737C24.9313 16.904 24.9287 16.945 24.9313 16.9841C24.9321 16.9998 24.9313 17.0281 24.9269 17.0428C24.9086 17.1033 24.8834 17.1502 24.8642 17.204C24.8511 17.2372 24.8363 17.2763 24.8294 17.2968C24.8189 17.332 24.805 17.3623 24.7919 17.3936C24.7823 17.416 24.7727 17.4414 24.7614 17.46C24.7579 17.4649 24.7492 17.4864 24.7475 17.4932C24.7362 17.5323 24.7205 17.5753 24.7039 17.6173C24.6639 17.716 24.6107 17.8089 24.5471 17.8909C24.521 17.9251 24.494 17.9574 24.4644 17.9877C24.4356 18.016 24.4147 18.0463 24.393 18.0834C24.3825 18.1069 24.3694 18.1343 24.3494 18.1577C24.3302 18.1812 24.3085 18.2007 24.2876 18.2183C24.2545 18.2456 24.2196 18.2671 24.1856 18.2886C24.1525 18.3101 24.1186 18.3365 24.0794 18.3541C24.0315 18.3776 23.9757 18.404 23.9235 18.4284C23.8947 18.4411 23.8668 18.4616 23.839 18.4694C23.8355 18.4704 23.8224 18.4772 23.8181 18.4802C23.7841 18.5046 23.7362 18.5271 23.7031 18.5417C23.6482 18.5652 23.5968 18.5935 23.5446 18.6199L23.413 18.6873C23.3799 18.701 23.3468 18.7118 23.312 18.7186C23.285 18.7235 23.2501 18.7362 23.2197 18.7469C23.1892 18.7567 23.1595 18.7714 23.1264 18.7821C23.0916 18.7938 23.055 18.8026 23.0184 18.8075C22.9819 18.8124 22.9444 18.8134 22.9069 18.8065C22.8695 18.7997 22.8312 18.7978 22.7928 18.7938C22.7563 18.7909 22.7197 18.785 22.6831 18.7772C22.6352 18.7675 22.5934 18.7421 22.5524 18.7352C22.5132 18.7284 22.4575 18.7469 22.4122 18.7274C22.4017 18.7225 22.3922 18.7147 22.3834 18.7059C22.3564 18.6834 22.3451 18.6776 22.3164 18.6756C22.2929 18.6756 22.2571 18.6815 22.2293 18.6834C22.2214 18.6834 22.2057 18.6815 22.1944 18.6785C22.1692 18.6736 22.1483 18.6619 22.1195 18.6561C22.0986 18.6522 22.0699 18.6404 22.0446 18.6355C22.0202 18.6307 21.9862 18.6267 21.961 18.6267C21.9122 18.6052 21.8634 18.6023 21.8181 18.5818C21.8042 18.575 21.7885 18.5691 21.7728 18.5642C21.765 18.5613 21.7572 18.5574 21.7502 18.5564C21.6866 18.5427 21.6178 18.5281 21.5559 18.4851C21.5011 18.4469 21.4401 18.4137 21.3843 18.3668C21.3704 18.3561 21.3556 18.3434 21.3434 18.3316C21.3373 18.3258 21.3312 18.3199 21.3251 18.3131C21.2914 18.2746 21.2572 18.2395 21.2223 18.2075C21.2093 18.1948 21.1962 18.1812 21.1831 18.1675C21.1492 18.1333 21.1178 18.0991 21.0803 18.0659C21.0438 18.0316 21.008 17.9926 20.9758 17.9427C20.9514 17.9007 20.9288 17.8587 20.9027 17.8137L20.8077 17.6437C20.7772 17.5861 20.7389 17.5392 20.7049 17.4776C20.6971 17.4629 20.6884 17.4405 20.6831 17.4326C20.6614 17.4004 20.6457 17.3691 20.6448 17.33C20.6448 17.3281 20.6405 17.3154 20.6387 17.3125C20.6213 17.2841 20.6117 17.2431 20.5995 17.2089C20.5464 17.0779 20.5098 16.9411 20.4689 16.8112C20.4619 16.7897 20.4497 16.7643 20.4471 16.7486C20.441 16.7193 20.4297 16.7086 20.4244 16.6841C20.4201 16.6636 20.4088 16.6333 20.407 16.6157C20.3983 16.5493 20.3896 16.4799 20.3818 16.4203C20.3757 16.3636 20.3713 16.306 20.3739 16.2552C20.3783 16.1555 20.3774 16.0587 20.3774 15.961C20.38 15.8614 20.3722 15.7588 20.3896 15.6552L20.3852 15.6581ZM24.3224 16.1467C24.3076 16.1604 24.3128 16.1721 24.3163 16.1916C24.3198 16.2122 24.3163 16.2434 24.3059 16.2581C24.2919 16.2776 24.2919 16.2991 24.2876 16.3196C24.2823 16.3411 24.2797 16.3636 24.2754 16.3851C24.2649 16.4301 24.2562 16.474 24.2484 16.517C24.2414 16.5581 24.2344 16.6118 24.2231 16.6577C24.2187 16.6763 24.2092 16.6929 24.2022 16.7105C24.1952 16.7281 24.1978 16.7506 24.1796 16.7633C24.1726 16.7682 24.1717 16.7877 24.1674 16.8004C24.1534 16.8463 24.1273 16.8903 24.1203 16.9343C24.1125 16.9783 24.0794 17.0115 24.0768 17.0555C24.0768 17.0682 24.062 17.0809 24.055 17.0945C24.0271 17.1502 23.9801 17.1923 23.9618 17.2568C23.9383 17.2655 23.9252 17.288 23.9095 17.3085C23.8991 17.3242 23.879 17.334 23.8808 17.3574C23.8808 17.3603 23.8764 17.3652 23.8738 17.3672C23.8564 17.3809 23.8364 17.3887 23.8207 17.4082C23.8085 17.4248 23.8024 17.4444 23.7858 17.46C23.7257 17.5157 23.6543 17.5479 23.5933 17.5997C23.5689 17.5997 23.5498 17.6164 23.5297 17.6281C23.494 17.6506 23.4662 17.6848 23.4252 17.7023C23.3869 17.718 23.346 17.7326 23.3129 17.7571C23.2554 17.7991 23.1892 17.8108 23.1247 17.8313C23.1082 17.8372 23.0899 17.847 23.0724 17.8343C23.0681 17.8313 23.0507 17.8372 23.0454 17.8431C23.0359 17.8548 23.0228 17.8509 23.0123 17.8567C22.9827 17.8724 22.9505 17.8343 22.9226 17.8665C22.8895 17.8694 22.8556 17.8694 22.8225 17.8685C22.7876 17.8665 22.7554 17.8655 22.7258 17.8616C22.711 17.8606 22.697 17.8626 22.6822 17.8509C22.6726 17.8431 22.6482 17.8401 22.6378 17.846C22.6134 17.8606 22.589 17.8528 22.5646 17.8518C22.4915 17.8489 22.4183 17.846 22.3442 17.8372C22.312 17.8333 22.2798 17.8235 22.2476 17.8157C22.2153 17.8079 22.1796 17.8137 22.1491 17.7932C22.1474 17.7913 22.1439 17.7913 22.1404 17.7913C22.1274 17.7913 22.1134 17.7932 22.1003 17.7903C22.0838 17.7854 22.0646 17.7668 22.0542 17.7698C22.0333 17.7766 22.0237 17.76 22.0098 17.7551C21.9784 17.7424 21.9627 17.715 21.9645 17.6877H21.9627C21.9619 17.6896 21.9566 17.7023 21.9523 17.7053C21.9453 17.7111 21.9279 17.7082 21.9157 17.7072C21.8939 17.7072 21.8713 17.7111 21.8512 17.7033C21.8268 17.6945 21.8051 17.676 21.7772 17.6584C21.7284 17.6378 21.6936 17.5841 21.643 17.5528C21.5917 17.5206 21.5446 17.4815 21.4976 17.4366C21.4741 17.4121 21.4497 17.3916 21.4244 17.3701C21.3992 17.3486 21.3913 17.3066 21.36 17.29C21.3573 17.288 21.3556 17.2812 21.353 17.2773C21.3129 17.2001 21.2833 17.118 21.2737 17.0428C21.2641 16.9538 21.2319 16.8854 21.211 16.7916C21.1526 16.6529 21.1526 16.4985 21.1492 16.3509C21.1465 16.305 21.1457 16.2581 21.1605 16.2112C21.1735 16.1721 21.1587 16.1213 21.1823 16.0822C21.184 16.0793 21.1805 16.0705 21.1805 16.0636C21.1805 16.049 21.177 16.0324 21.1805 16.0187C21.2032 15.9376 21.204 15.9386 21.2066 15.8672C21.2066 15.8584 21.2171 15.8506 21.2188 15.8418C21.2276 15.8047 21.2389 15.7675 21.2458 15.7304C21.2519 15.6962 21.2746 15.6659 21.2659 15.6278C21.2641 15.619 21.272 15.6063 21.2746 15.5956C21.2859 15.5614 21.2999 15.5281 21.3103 15.493C21.3234 15.4529 21.3478 15.4197 21.3495 15.3737C21.3495 15.3542 21.3782 15.3405 21.3791 15.3298C21.3809 15.3083 21.3878 15.2907 21.3974 15.2751C21.4061 15.2584 21.4227 15.2477 21.4323 15.2321C21.4401 15.2184 21.441 15.1988 21.4488 15.1842C21.468 15.148 21.5002 15.1187 21.5141 15.0816C21.5289 15.0435 21.5507 15.0181 21.5716 14.9878C21.5925 14.9565 21.6169 14.9262 21.6378 14.893C21.6544 14.8676 21.6761 14.851 21.6971 14.8314C21.7171 14.8119 21.7275 14.7767 21.758 14.7708C21.7598 14.7708 21.7606 14.7679 21.7624 14.7659C21.8033 14.723 21.8469 14.6829 21.8922 14.6438C21.9688 14.5744 22.0594 14.5197 22.1474 14.4816C22.1726 14.4708 22.197 14.4523 22.2258 14.4591C22.2319 14.4601 22.2406 14.4513 22.2484 14.4513C22.2754 14.4513 22.285 14.4122 22.3129 14.4171C22.3373 14.422 22.3573 14.4063 22.3791 14.3995C22.4043 14.3917 22.4331 14.3809 22.4592 14.3761C22.4784 14.3731 22.4941 14.3673 22.5089 14.3555C22.5315 14.3731 22.5594 14.3565 22.5838 14.3653C22.5995 14.3702 22.6239 14.377 22.6352 14.3702C22.6604 14.3555 22.6857 14.3634 22.7101 14.3634C22.7475 14.3634 22.7833 14.3731 22.8207 14.3634C22.8364 14.3585 22.8564 14.3653 22.8738 14.3692C22.8904 14.3731 22.9052 14.3839 22.9209 14.3868C22.9514 14.3927 22.981 14.3976 23.0123 14.3917C23.0393 14.3868 23.069 14.4112 23.0968 14.3946C23.1003 14.3927 23.109 14.3946 23.1143 14.3976C23.1413 14.4122 23.1674 14.421 23.2014 14.4181C23.2292 14.4142 23.2615 14.4318 23.2911 14.4405C23.3224 14.4503 23.3564 14.4581 23.3843 14.4748C23.4026 14.4855 23.4209 14.463 23.4383 14.4894C23.4479 14.5031 23.4731 14.5099 23.4914 14.5187C23.5106 14.5275 23.5315 14.5344 23.5472 14.548C23.6308 14.6174 23.7275 14.6614 23.8059 14.7366C23.8381 14.7689 23.8843 14.7884 23.8999 14.8383C23.9339 14.8471 23.9513 14.8891 23.9783 14.9008C23.9958 14.9096 24.0071 14.9223 24.0193 14.936C24.0602 14.9809 24.1012 15.0386 24.1273 15.104C24.1499 15.1666 24.1656 15.2223 24.1856 15.2809C24.21 15.3581 24.2431 15.4314 24.2658 15.5106C24.2719 15.533 24.2789 15.5545 24.2745 15.5819C24.271 15.6024 24.2771 15.6347 24.2945 15.6561C24.298 15.6601 24.3015 15.6698 24.3006 15.6737C24.285 15.7255 24.3163 15.7666 24.3215 15.8135C24.332 15.9053 24.3198 15.9962 24.3163 16.0871C24.3163 16.1066 24.3067 16.1291 24.3215 16.1457L24.3224 16.1467Z" fill="currentColor"/>
<path d="M22.7171 18.5176L22.7118 18.5455C22.7136 18.5359 22.7153 18.5272 22.7171 18.5185V18.5176Z" fill="currentColor"/>
</g>
<defs>
<clipPath id="clip0_341_508">
<rect width="83" height="26.1608" fill="currentColor"/>
</clipPath>
</defs>
</svg>
