<svg width="88" height="96" viewBox="0 0 88 96" fill="none" xmlns="http://www.w3.org/2000/svg">
<g clip-path="url(#clip0_375_2706)">
<path d="M29.576 47.5072C29.5528 47.1792 29.3441 46.8549 29.2317 46.5574C28.9837 45.8997 28.7251 45.2473 28.4735 44.5896C28.3576 44.285 28.2327 43.9964 28.1435 43.6828C28.0935 43.5072 28.0989 43.3477 27.9437 43.2348C27.4977 42.9104 26.7895 43.4445 26.4077 43.6398C25.6888 44.0054 24.9788 44.3943 24.2545 44.7473C23.5053 45.1129 22.7221 45.5161 22.0442 46.0179C21.5893 46.3549 21.0363 46.7939 20.6884 47.2545C20.1978 47.905 19.6769 48.4767 19.0686 49.0161C18.7457 49.3029 18.4531 49.647 18.1088 49.905C17.8448 50.104 17.5076 50.2097 17.2722 50.4534L17.051 50.8065V61.3351C17.051 61.5484 17.0492 61.7635 17.051 61.9767C17.0545 62.3029 17.1384 62.5394 16.7513 62.4875C16.5229 62.457 10.511 61.9767 10.0633 61.9767C9.40142 61.9767 7.33919 61.7402 6.98597 61.7348C6.65415 61.7294 6.53463 61.7061 6.44187 61.276C6.28666 60.561 6.31342 56.3853 6.31521 55.7473C6.31521 55.3369 6.14038 54.6273 6.61491 54.4678C6.90569 54.371 10.2042 53.8047 11.0801 53.6541C11.4976 53.5825 15.5578 53.3549 15.7308 53.147C15.9324 52.9068 15.8718 52.2688 15.8111 51.9713C15.7576 51.7043 15.6399 51.2796 15.3955 51.1685C15.2224 51.0896 14.9441 51.1559 14.7568 51.1559C14.2234 51.1577 13.6882 51.1559 13.1548 51.1559C12.0648 51.1559 8.91976 50.9158 8.42739 50.9212C7.53899 50.9283 5.24306 50.7491 4.04247 51.4498C3.5608 51.7312 3.11303 52.1273 2.77052 52.5896C2.54039 52.8997 1.44862 54.3979 1.22919 56.5018C1.17389 57.0394 1.12037 59.5932 1.27201 60.1971C1.45219 60.9176 2.08013 62.8118 3.14158 63.8047C3.68211 64.3118 6.58993 65.9319 6.73978 66.0825C6.98597 66.3316 6.73443 66.4821 6.53285 66.6792C6.07973 67.1219 3.34316 69.948 3.2165 70.1559C2.96853 70.5556 2.76517 70.6093 3.09519 71.0269C3.26645 71.2455 3.85694 72.1093 4.00679 72.3208C4.12631 72.4893 4.74356 73.4696 4.92908 73.7903C5.15386 74.181 5.3162 74.6058 5.53741 74.9982C5.71759 75.3154 5.87814 75.6308 6.03513 75.966C6.13681 76.1828 6.49003 76.6506 6.41332 76.9176C6.3491 77.1416 5.91739 77.242 5.75862 77.319C5.42502 77.4821 4.23335 78.1918 3.87478 78.3782C3.5501 78.5484 1.56279 80.0663 1.32909 80.3172C0.958034 80.7151 0.628005 81.1488 0.330087 81.6111C0.019681 82.0932 -0.0124299 82.4498 -0.00172627 83.0215C0.00362555 83.3136 0.219482 84.1201 0.248025 84.3136C0.387173 85.2653 0.59411 86.2653 0.991929 87.1308C1.23454 87.6559 1.43256 88.2868 1.76973 88.7599C1.97666 89.0502 2.25317 89.2688 2.52077 89.4946C3.29143 90.1506 4.33325 90.3531 5.25733 90.6667C6.56139 91.1093 7.74949 90.9929 9.182 91.0233C9.97764 91.0233 10.7733 91.0197 11.5689 91.0179C12.7088 91.0036 13.9273 91.1452 15.0654 91.0126C15.6095 90.9498 17.6325 90.1075 18.1017 89.7868C18.9259 89.224 21.1683 86.9427 21.4609 86.457C21.7641 85.9534 21.9853 85.4552 22.203 84.905C22.4777 84.2097 22.6222 83.4696 22.7935 82.7384C22.9879 81.9158 23.2983 79.0753 23.2537 78.5269C23.227 78.1882 23.0914 77.8656 22.9183 77.5663C22.4224 76.7079 21.6125 76.0789 20.6795 75.7563C18.9134 75.1452 17.067 74.8943 15.7986 74.5305C15.2242 74.3656 12.8979 73.8262 12.3217 73.6452C12.0042 73.5448 10.288 72.9337 9.96336 72.8208C9.03215 72.4964 8.7378 72.4032 8.16872 72.0896C7.87437 71.9265 7.59251 71.8835 7.53185 71.5036C7.49439 71.2652 7.49974 70.8997 7.52293 70.6506C7.54791 70.3764 8.1045 68.4176 8.23473 68.095C8.32928 67.8566 8.40777 67.6255 8.4934 67.3853C8.71104 66.7778 9.63155 66.9785 10.1346 67.0054C11.8775 67.1004 12.5893 67.0484 13.0567 67.0377C13.6989 67.0215 18.5138 67.1004 21.4591 64.9158C22.1441 64.4068 22.4617 63.6846 22.8345 62.9319C23.1181 62.3602 23.2769 61.6559 23.4464 61.0341C23.5659 60.595 23.6212 60.1147 23.6676 59.6595C23.7443 58.914 23.6854 58.1344 23.6926 57.3853C23.6997 56.5556 23.5142 55.8979 23.2466 55.1255C22.872 54.043 22.492 52.9911 21.9407 51.9911C21.468 51.1308 20.4975 50.8835 19.8535 50.2133C20.0034 49.8208 20.8704 49.9821 21.1986 49.9857C21.7677 49.9929 22.3564 49.8961 22.9219 49.8208C23.4375 49.7527 23.9423 49.6308 24.44 49.4785C25.1144 49.2706 25.7905 49.1022 26.4684 48.9283C27.0375 48.7814 27.5584 48.509 28.1274 48.3566C28.5895 48.2348 29.626 48.2348 29.5742 47.5072H29.576ZM11.4601 80.5359C12.5126 80.5968 16.7031 81.1326 16.9564 81.2276C17.2829 81.3495 17.1955 81.7258 17.1919 82.0359C17.1848 82.8208 17.199 83.6058 17.1883 84.3889C17.1794 85.0502 17.2383 87.8101 16.7566 87.9247C16.4016 88.009 10.825 87.138 10.4575 87.1058C9.70113 87.0377 7.75306 86.8853 6.34197 86.8853C6.16892 86.8853 6.03691 86.7294 6.06545 86.5592C6.21709 85.6237 6.72373 80.6255 6.85039 80.4857C7.06089 80.2527 11.0248 80.5108 11.4583 80.5359H11.4601Z" fill="#484293"/>
<path d="M1.1043 14.0825C0.950883 13.2312 3.40915 2.93372 3.94969 2.40684C4.26009 2.10397 4.7257 1.70971 5.14671 1.60756C5.68011 1.47852 15.6648 1.01974 17.1901 0.81365C18.7814 0.598596 20.3941 0.485693 21.9925 0.344116C23.0878 0.247342 24.1831 0.15236 25.282 0.0878436C25.9136 0.0502092 27.0267 -0.225776 27.2604 0.453435C27.4763 1.08068 27.3157 2.10039 27.3264 2.76706C27.3389 3.54125 27.3443 4.31544 27.3389 5.08784C27.3282 6.67924 27.2783 8.26885 27.1909 9.85666C27.1373 10.8101 26.7288 11.2079 25.7691 11.104C23.2377 10.8298 20.7062 10.5556 18.1748 10.2814C17.3792 10.1954 16.1162 9.9158 15.4668 10.5968C14.9441 11.1452 15.2634 11.957 15.7398 12.4158C17.0117 13.638 18.7136 14.5126 20.1782 15.4839C22.0549 16.4266 23.8228 17.8907 25.5621 19.0699C26.4773 19.69 27.4674 20.2617 28.3344 20.9481C28.7554 21.2814 29.7383 21.9355 29.8204 22.5305C30.1718 25.0789 29.3191 28.1882 28.3647 30.5197C27.2854 33.1559 25.5211 36.0556 23.1431 37.6972C22.1049 38.414 20.8543 38.7545 19.6644 39.1219C18.3354 39.5305 17.0242 39.9929 15.6934 40.3943C14.4071 40.7814 0.768921 44.5287 0.768921 42.6165C0.768921 39.0233 0.768921 42.1309 0.768921 39.3513C0.768921 37.0645 13.8737 34.1255 18.6119 27.7545C19.5395 26.5054 18.4442 25.38 17.4167 24.6846C16.0965 23.7921 14.6551 23.0502 13.2868 22.2312C11.4458 21.1309 9.61548 20.0126 7.79408 18.88C6.90211 18.3244 6.01014 17.7653 5.12352 17.2007C4.34572 16.7043 3.60182 16.0144 2.78299 15.604C2.35841 15.2957 1.21134 14.6757 1.1043 14.0843V14.0825Z" fill="#484293"/>
<path d="M68.2678 43.2151C68.1679 43.2151 68.0663 43.2151 67.9646 43.2115C65.6918 43.1793 66.1218 40.9732 66.12 39.2044C66.12 36.5932 66.1735 30.7008 66.0879 29.2438C66.0147 27.9947 74.4992 27.742 75.4107 27.0216C77.6228 25.276 77.6264 19.6613 77.7816 18.7671C77.9368 17.871 78.1027 15.1596 78.2633 14.2617C78.5112 12.8836 78.6076 11.4768 78.8109 10.0843C79.0179 8.66672 79.207 6.33339 79.2516 4.8997C79.2819 3.93554 79.4353 2.99647 79.5031 2.03411C79.5495 1.37461 79.776 0.754537 80.3844 0.482136C81.8187 -0.155857 83.7417 0.0466519 85.4062 0.129089C86.3695 0.177476 87.579 0.810093 87.579 1.77783C87.579 6.16672 87.7378 10.2492 87.7378 14.6363C87.7378 16.656 87.4898 25.0467 87.4077 27.0269C87.3221 29.1309 86.687 37.8603 86.6085 38.656C86.539 39.3692 86.4105 40.2151 86.2125 40.8925C86.0056 41.6004 85.6506 41.8173 84.9655 42.0682C83.3386 42.6614 81.8258 42.6631 80.1168 42.6631C77.5747 42.6631 76.5186 42.7366 72.5457 42.9338C71.0865 43.0072 69.72 43.2169 68.2696 43.2115L68.2678 43.2151Z" fill="#484293"/>
<path d="M87.8162 52.8638C87.224 51.672 84.8709 51.2545 83.7346 50.9516C82.7909 50.7007 81.7669 50.3835 80.7946 50.3495C80.3932 50.3351 79.9294 50.2509 79.5602 50.4552C78.7395 50.9122 77.4622 57.4247 77.2499 58.1505C77.0751 58.7473 77.0662 59.4265 76.4436 59.6398C75.9548 59.8064 75.4107 59.4301 75.0182 59.1183C73.7017 58.0788 69.9715 54.086 69.1366 53.3907C68.2018 52.6111 65.4759 49.7186 65.203 49.724C64.6375 49.7348 64.3859 51.3566 64.3431 51.8692C64.0862 54.9624 63.9168 61.8351 63.7758 64.224C63.6028 67.172 61.5727 84.8477 61.157 91.0896C61.0981 91.9857 61.7992 92.7473 62.693 92.7581C64.5768 92.7814 67.0101 92.8333 68.5604 92.8692C69.4452 92.8889 70.198 92.2294 70.3015 91.3459C70.3497 90.9319 70.3889 90.5233 70.3925 90.2437C70.4157 88.9516 71.5074 78.7652 71.5467 77.3799C71.5734 76.4713 71.6983 75.5143 71.8339 74.6237C71.8607 74.4444 71.9035 74.0878 71.9516 73.7025C72.0373 73.0125 72.9417 72.8136 73.3039 73.405C73.8016 74.2186 74.2708 75.2491 74.4599 75.586C75.3144 77.1057 77.3534 82.6326 77.6852 83.7688C77.8547 84.3477 80.6608 90.4695 81.4261 91.6649C82.7284 93.6971 84.1074 92.8638 84.4517 91.5663C85.481 87.6953 85.8378 83.3925 86.2695 79.3745C86.5211 77.0287 86.9243 71.31 87.1187 68.9892C87.3185 66.6219 88.4281 54.1075 87.8109 52.8638H87.8162Z" fill="#484293"/>
<path d="M46.7553 89.7258C46.725 89.6452 46.6929 89.5699 46.684 89.4749C46.6751 89.3782 46.6269 89.2491 46.5466 89.1524C46.5127 89.1129 46.4717 89.0413 46.4699 88.9964C46.4628 88.8154 46.3718 88.6542 46.3129 88.4821C46.2737 88.3746 46.2915 88.2348 46.2469 88.1775C46.1738 88.0807 46.1577 87.9749 46.122 87.8746C46.0971 87.8029 46.0525 87.7258 46.0864 87.6452C46.0953 87.6237 46.0792 87.552 46.0596 87.5341C45.9526 87.4319 45.9454 87.2814 45.9062 87.1506L45.6172 86.2133C45.5369 85.9552 45.3674 85.7456 45.2979 85.4893C45.1605 85.371 45.1195 85.1972 45.0463 85.0448C45.0231 84.9947 44.9857 84.9033 44.9678 84.828C44.9464 84.7491 44.9322 84.6721 44.9197 84.5968C44.8929 84.4481 44.8465 84.3154 44.8519 84.1685C44.8554 84.0771 44.8358 83.9875 44.8073 83.8997C44.777 83.8083 44.7466 83.7402 44.7109 83.6416C44.6771 83.5413 44.5861 83.4463 44.6325 83.328C44.6396 83.3119 44.62 83.2671 44.6021 83.2527C44.4648 83.1524 44.4237 82.9803 44.413 82.8513C44.3916 82.6362 44.3113 82.4373 44.2739 82.2384C44.2436 82.0717 44.1972 81.9104 44.1704 81.7509C44.1508 81.6362 44.1062 81.543 44.1115 81.414C44.1151 81.3172 44.0277 81.2133 43.9885 81.104C43.9492 80.9964 43.9207 80.88 43.8921 80.7617C43.8761 80.6972 43.8618 80.6309 43.8511 80.5663L43.8208 80.3835L43.7619 80.018C43.7405 79.8853 43.7119 79.7545 43.7012 79.6219C43.6923 79.5018 43.703 79.3549 43.6959 79.2223C43.6816 79.0359 43.6531 78.8585 43.6192 78.6918C43.5871 78.5197 43.546 78.3889 43.5282 78.2007C43.4372 78.1201 43.4729 78.018 43.4675 77.9158C43.4622 77.8226 43.4729 77.7097 43.3801 77.6326C43.3534 77.6111 43.3498 77.5628 43.3373 77.5251C43.3088 77.4427 43.3676 77.3567 43.2945 77.2653C43.2428 77.2008 43.2588 77.0861 43.2338 76.9965C43.2071 76.9033 43.2392 76.785 43.1304 76.7223C43.2392 76.5269 42.993 76.4122 43.0269 76.2402C43.0358 76.1846 43.0323 76.1291 43.034 76.0717C43.034 76.043 43.0465 76.009 43.034 75.9875C42.8985 75.7456 42.8396 75.4821 42.7789 75.2151C42.7558 75.285 42.8057 75.3818 42.7665 75.4373C42.6166 75.6506 42.6612 75.8871 42.7076 76.0878C42.7522 76.276 42.8021 76.4696 42.7504 76.638C42.6505 76.9714 42.6897 77.3011 42.6773 77.6309C42.6648 77.9696 42.663 78.3101 42.6683 78.6506C42.6701 78.7886 42.6112 78.9391 42.7326 79.0663C42.7575 79.0932 42.7433 79.1559 42.7326 79.199C42.7112 79.3029 42.6612 79.4068 42.6612 79.5108C42.6612 79.6147 42.7076 79.7187 42.7254 79.8226C42.7397 79.9068 42.7236 79.9857 42.7861 80.0735C42.8325 80.1362 42.7914 80.2491 42.7272 80.3477C42.5988 80.5466 42.4703 80.7527 42.4899 81.0072C42.5078 81.233 42.4846 81.4606 42.4899 81.6864C42.4917 81.7814 42.481 81.871 42.5381 81.9732C42.5881 82.0645 42.5631 82.2187 42.5256 82.328C42.465 82.5036 42.456 82.6631 42.5203 82.8352C42.5417 82.8943 42.5417 82.9642 42.5399 83.0287L42.5238 84.2169C42.5238 84.3119 42.5417 84.4122 42.465 84.4893C42.5559 84.5502 42.5256 84.6506 42.5185 84.733C42.5096 84.8602 42.4703 84.9839 42.465 85.1111C42.4578 85.2617 42.4685 85.4086 42.5256 85.5556C42.5774 85.6918 42.5024 85.862 42.5774 86.0072C42.5916 86.0341 42.5452 86.095 42.5506 86.1362C42.5738 86.3047 42.5078 86.4947 42.6273 86.6434C42.638 86.6559 42.638 86.6918 42.6309 86.7079C42.5292 86.9122 42.6255 87.1004 42.6666 87.2904C42.7112 87.5018 42.6362 87.7043 42.6505 87.914C42.6683 88.1524 42.7112 88.3979 42.6862 88.6255C42.6434 89.018 42.7004 89.4015 42.7219 89.7868C42.7433 90.181 42.7789 90.5735 42.8271 90.9642C42.8467 91.1344 42.8949 91.2975 42.9217 91.4678C42.952 91.656 42.9734 91.8459 43.0019 92.0341C43.0162 92.1344 43.0323 92.233 43.0465 92.3334C43.3623 92.3674 43.6691 92.3871 43.9581 92.3889C45.2247 92.3997 46.3094 91.5054 47.0979 90.4785C47.064 90.3961 47.0283 90.3154 46.9908 90.2366C46.9088 90.0663 46.8249 89.8979 46.7571 89.7205L46.7553 89.7258Z" fill="#484293"/>
<path d="M30.7016 64.0932C30.8051 64.1363 30.9317 64.1775 31.0548 64.2581C31.4758 64.4158 31.7541 64.7151 32.0752 64.975C32.1734 65.0556 32.2875 65.1273 32.3321 65.2635C32.3714 65.38 32.5426 65.4033 32.5498 65.5556C32.5498 65.5682 32.5837 65.5682 32.5979 65.5771C32.6354 65.5986 32.6854 65.6112 32.705 65.6452C32.8209 65.8495 32.8174 65.8513 32.9922 65.9535C33.0136 65.966 32.9975 66.0162 33.0136 66.0377C33.0814 66.1183 33.1456 66.2008 33.2259 66.2707C33.2972 66.3316 33.3133 66.4517 33.4578 66.4409C33.4899 66.4391 33.5006 66.4821 33.522 66.5036C33.588 66.5753 33.6505 66.6506 33.7236 66.7151C33.8074 66.785 33.8503 66.9122 33.9876 66.9033C34.0483 66.8997 34.0108 67.0251 34.0483 67.0251C34.1161 67.0216 34.1571 67.0413 34.1892 67.0789C34.2195 67.1147 34.2231 67.1811 34.2606 67.2115C34.2927 67.2384 34.3623 67.2223 34.3979 67.2456C34.4889 67.3047 34.5496 67.4176 34.6691 67.4391C34.7975 67.4606 34.876 67.5449 34.9724 67.6165C35.0669 67.6864 35.1293 67.7653 35.2203 67.8208C35.2899 67.8639 35.3095 67.9517 35.3488 68.0234C35.388 68.095 35.5147 68.0717 35.4826 68.2205C35.4826 68.2277 35.4915 68.2277 35.4951 68.2312C35.6057 68.3459 35.7091 68.4696 35.8376 68.5628C36.0552 68.7241 36.2996 68.8459 36.5512 68.9965C36.6207 69.0377 36.7206 69.0377 36.7278 69.1793C36.7278 69.2079 36.7777 69.1936 36.7866 69.2205C36.8223 69.3191 36.9936 69.1524 37.0078 69.2832C37.0185 69.3997 37.1095 69.3907 37.1666 69.4355C37.2308 69.4857 37.3075 69.5162 37.3735 69.5646C37.4181 69.5968 37.4734 69.6076 37.5484 69.5753C37.527 69.7277 37.6518 69.6936 37.6786 69.7886C37.6964 69.8513 37.7339 69.9266 37.791 69.9051C37.9159 69.8585 37.9533 69.9445 38.0247 69.9786C38.1335 70.0341 38.1924 70.1237 38.3351 70.0932C38.394 70.0807 38.4296 70.1291 38.4671 70.1667C38.501 70.2008 38.5135 70.2725 38.5509 70.3029C38.6241 70.3549 38.7062 70.3889 38.8168 70.3621C38.9131 70.3352 38.9434 70.4947 39.0754 70.3872C39.0933 70.3728 39.1111 70.3907 39.1218 70.4069C39.1735 70.4983 39.2288 70.5628 39.3484 70.518C39.4465 70.4803 39.5161 70.5699 39.5981 70.6022C39.6873 70.6363 39.789 70.6434 39.8621 70.7133C39.9103 70.7581 40.0084 70.5771 40.0316 70.7223C40.0441 70.8011 40.1262 70.794 40.1815 70.8191C40.2368 70.8441 40.3081 70.837 40.3527 70.8872C40.5347 71.0932 40.7862 71.1273 41.0199 71.2151C40.9254 71.0287 40.8344 70.8406 40.7416 70.6524C40.722 70.6112 40.7202 70.5413 40.6792 70.5341C40.5061 70.5036 40.3795 70.4606 40.5525 70.2653C40.5615 70.2563 40.5436 70.2223 40.5276 70.2205C40.3545 70.2044 40.3688 70.0664 40.3313 69.9714C40.1833 69.6112 39.8782 69.3208 39.7908 68.923C39.7837 68.8907 39.764 68.8585 39.7498 68.8262C39.7355 68.7958 39.7301 68.7725 39.7462 68.7492C39.814 68.647 39.6534 68.6775 39.6623 68.6094C39.6695 68.5502 39.5874 68.5072 39.607 68.4517C39.6784 68.2456 39.5517 68.104 39.4394 67.9947C39.3323 67.8907 39.2146 67.7868 39.1932 67.647C39.1486 67.371 38.9791 67.1631 38.856 66.9212C38.7311 66.6721 38.5973 66.4194 38.4725 66.1542C38.4457 66.0986 38.435 66.0395 38.4136 65.9929C38.3922 65.9445 38.3565 65.9033 38.2798 65.8872C38.2495 65.88 38.2423 65.8316 38.237 65.7975C38.2209 65.7169 38.2316 65.6255 38.1959 65.5538C38.162 65.4821 38.0818 65.4355 38.0283 65.3728C37.9854 65.3226 37.9694 65.2617 37.8838 65.233C37.8195 65.2115 37.8142 65.1183 37.832 65.018C37.8677 64.8191 37.8962 64.613 37.7785 64.4481C37.6733 64.3011 37.6019 64.1309 37.5091 63.9732C37.4699 63.9069 37.4449 63.8388 37.3557 63.7922C37.2754 63.7527 37.238 63.6237 37.2326 63.5323C37.2273 63.3907 37.172 63.2778 37.0489 63.199C37.0061 63.1721 36.9793 63.1237 36.9525 63.0789C36.8723 62.9427 36.7884 62.8011 36.7099 62.6506C36.6332 62.5001 36.5654 62.3549 36.4976 62.2133C36.4655 62.1452 36.4138 62.0843 36.4566 61.9947C36.3549 61.9947 36.3478 61.9122 36.3246 61.8549C36.2889 61.7671 36.2782 61.6667 36.2336 61.5843C36.2069 61.5359 36.1783 61.4911 36.1391 61.4499C36.098 61.4051 36.0516 61.3639 35.9946 61.3298C35.8911 61.2653 35.8786 61.1058 35.7537 61.0449C35.7305 61.0323 35.7448 60.966 35.7216 60.9391C35.6324 60.8316 35.6146 60.6631 35.454 60.613C35.4398 60.6094 35.4255 60.5825 35.4255 60.5682C35.438 60.3692 35.2846 60.2796 35.1829 60.1578C35.0705 60.0234 35.0705 59.8406 34.9866 59.6954C34.8921 59.5287 34.7726 59.3692 34.7208 59.19C34.6316 58.8836 34.4586 58.6273 34.3212 58.3513C34.1803 58.0699 34.0304 57.7904 33.8806 57.5126C33.8146 57.3907 33.729 57.2814 33.663 57.1596C33.5898 57.0234 33.5274 56.8818 33.4632 56.7402C33.4025 56.6076 33.3418 56.475 33.2883 56.337C33.2633 56.2742 33.2187 56.2097 33.2312 56.138C33.233 56.1237 33.2205 56.0843 33.2098 56.0699C33.126 55.9696 33.0885 55.8531 33.0778 55.7223C33.0743 55.6846 33.0475 55.6381 33.0386 55.5968C33.01 55.4803 32.9476 55.3961 32.903 55.2975C32.862 55.2061 32.8495 55.0879 32.7799 55.0216C32.771 55.0126 32.7531 54.966 32.7531 54.9499C32.7424 54.733 32.5623 54.5735 32.5301 54.3603C32.4713 54.2975 32.4713 54.2044 32.4445 54.1452C32.4053 54.061 32.3696 53.9786 32.3375 53.8872C32.3339 53.8782 32.3321 53.871 32.3286 53.8621C32.127 54.1398 31.9361 54.3943 31.8077 54.7581C31.6792 55.1237 31.6364 55.5036 31.5311 55.8746C31.392 56.3728 30.9228 58.0843 30.8354 58.4588C30.7587 58.7904 30.4376 62.1882 30.3484 63.8334C30.3859 63.8674 30.4215 63.8997 30.4554 63.9337C30.5286 64.0108 30.6017 64.0502 30.7105 64.095L30.7016 64.0932Z" fill="#484293"/>
<path d="M48.2413 85.6595C48.2021 85.5968 48.1628 85.5376 48.1503 85.4516C48.1379 85.3656 48.0718 85.2581 47.9773 85.2079C47.9398 85.19 47.8881 85.1469 47.881 85.1057C47.8703 85.0215 47.8292 84.9444 47.7811 84.862C47.7329 84.7814 47.6812 84.6828 47.6508 84.5914C47.6116 84.4731 47.6669 84.3441 47.6223 84.2957C47.5474 84.2133 47.5527 84.1362 47.5206 84.0753C47.4974 84.0305 47.4439 83.9749 47.4885 83.8978C47.501 83.8763 47.4778 83.819 47.4546 83.8118C47.319 83.7634 47.303 83.638 47.2405 83.5358C47.0925 83.2957 46.9319 83.0376 46.8124 82.733C46.7624 82.5986 46.7018 82.5107 46.6393 82.4086C46.5751 82.31 46.518 82.2097 46.4948 82.0932C46.3379 82.0018 46.32 81.8387 46.2611 81.6971C46.2166 81.5896 46.2058 81.4677 46.1773 81.353C46.1505 81.2366 46.0828 81.1416 46.0792 81.0072C46.0756 80.8423 45.9454 80.6989 45.8847 80.5394C45.8508 80.4534 45.7474 80.3871 45.8169 80.2634C45.8259 80.2473 45.8062 80.2079 45.7848 80.2007C45.6225 80.1398 45.5868 79.9874 45.585 79.8674C45.5815 79.6738 45.478 79.5322 45.4173 79.3674C45.3674 79.2312 45.2925 79.1021 45.2443 78.9677C45.2104 78.871 45.1444 78.7921 45.1498 78.672C45.1551 78.5788 45.0445 78.5107 44.9946 78.4265C44.9446 78.3423 44.9089 78.2509 44.8661 78.1631L44.7234 77.8763L44.5789 77.5914C44.5254 77.4892 44.4629 77.3907 44.4201 77.2814C44.3791 77.1792 44.3755 77.0591 44.3291 76.9588C44.2025 76.6882 43.942 76.4982 43.8314 76.2186L44.1133 77.7186C44.1507 77.9032 44.1936 78.0753 44.2399 78.2688C44.2881 78.4857 44.3077 78.69 44.3238 78.8745C44.3327 78.9785 44.3488 79.0717 44.2988 79.1774C44.2614 79.2581 44.281 79.3799 44.372 79.4857C44.3898 79.5036 44.4076 79.5466 44.4005 79.5645C44.2952 79.8011 44.4683 79.9839 44.504 80.19C44.5218 80.2885 44.5325 80.3996 44.5414 80.4874C44.5503 80.5735 44.5611 80.6631 44.5771 80.7545C44.6074 80.9408 44.6503 81.138 44.7109 81.3459C44.7359 81.4337 44.7234 81.5555 44.8233 81.6021C44.7644 81.6846 44.809 81.7276 44.8572 81.8011C44.9071 81.8781 44.9375 82.009 44.9107 82.0878C44.8768 82.1953 44.9161 82.276 44.9321 82.362C44.9517 82.4588 44.9821 82.534 45.016 82.6344L45.2158 83.2527C45.2497 83.3602 45.2818 83.4516 45.3157 83.5717C45.3496 83.69 45.3727 83.8064 45.3906 83.9176C45.4049 84.0054 45.3906 84.0932 45.3959 84.1774C45.3995 84.2634 45.4566 84.3387 45.4102 84.4301C45.3924 84.4641 45.4334 84.5394 45.453 84.5914C45.4691 84.638 45.4851 84.6846 45.503 84.7312C45.5226 84.7831 45.544 84.8351 45.5636 84.8871C45.6082 84.991 45.651 85.0896 45.7135 85.172C45.8348 85.3351 45.8473 85.5538 45.9918 85.6953C46.0328 85.7348 46.0364 85.8333 46.0631 85.9014C46.1719 86.1774 46.1827 86.4892 46.3503 86.7365C46.32 86.8548 46.3628 86.9713 46.3967 87.0842C46.4217 87.1667 46.4146 87.2724 46.4966 87.3226C46.5056 87.328 46.5145 87.3584 46.5163 87.3763C46.527 87.4821 46.5127 87.5824 46.5537 87.6917C46.5876 87.7831 46.6465 87.8477 46.6732 87.948C46.7232 88.1308 46.7589 88.3172 46.8017 88.5C46.8498 88.6846 46.9051 88.8674 46.9819 89.0448C46.9729 89.1595 47.0229 89.2706 47.0604 89.3835C47.1281 89.5824 47.2459 89.7509 47.3048 89.9588C47.3208 90.0143 47.3369 90.0717 47.3547 90.129C47.5331 89.8692 47.6937 89.6057 47.8328 89.353C47.9559 89.1272 48.4126 87.7545 48.7926 86.4606C48.7105 86.3226 48.6284 86.1828 48.5321 86.0538C48.4322 85.9229 48.3287 85.7975 48.2431 85.6577L48.2413 85.6595Z" fill="#484293"/>
<path d="M42.4489 91.4141C42.2348 90.7044 42.2027 89.9642 42.11 89.2402C42.0796 89.0144 42.0333 88.7886 42.0743 88.5503C42.1117 88.3478 41.9815 88.1148 42.0636 87.8997C42.0707 87.8818 42.044 87.8442 42.035 87.8137C42.0154 87.742 41.9815 87.6668 41.9833 87.5987C41.9976 87.1829 41.9994 87.1793 41.9084 86.8352C41.8977 86.794 41.9387 86.7402 41.9369 86.6918C41.9262 86.4983 41.9191 86.3048 41.8941 86.113C41.8709 85.9392 41.928 85.7528 41.8067 85.5933C41.7799 85.5574 41.796 85.4822 41.7942 85.4248C41.7835 85.242 41.7835 85.0574 41.7674 84.8764C41.7478 84.6685 41.796 84.4553 41.6907 84.251C41.6444 84.1614 41.7603 84.0323 41.7336 83.9804C41.6854 83.8836 41.6711 83.7922 41.6782 83.6972C41.6854 83.604 41.7318 83.5126 41.7318 83.4194C41.7318 83.3388 41.6729 83.2582 41.6693 83.1757C41.6568 82.9732 41.705 82.7546 41.6426 82.5682C41.5766 82.3675 41.5873 82.1775 41.5766 81.9822C41.5641 81.7779 41.5783 81.5736 41.5605 81.3711C41.5462 81.2134 41.5998 81.0718 41.6283 80.923C41.6568 80.7743 41.5587 80.6094 41.6943 80.475C41.6997 80.4696 41.6943 80.4535 41.6943 80.4409C41.7139 80.1327 41.7514 79.8263 41.755 79.518C41.7621 78.9858 41.746 78.4535 41.746 77.9212C41.746 77.7707 41.6961 77.613 41.8156 77.4714C41.8406 77.4427 41.8031 77.3782 41.821 77.3388C41.8888 77.1918 41.6568 77.0754 41.7621 76.9338C41.8566 76.8083 41.8031 76.6739 41.8103 76.5449C41.821 76.3979 41.8067 76.251 41.812 76.104C41.8156 76.0019 41.796 75.9105 41.7282 75.8263C41.8691 75.7151 41.7728 75.5556 41.8388 75.4248C41.8816 75.3388 41.9244 75.2044 41.8763 75.1417C41.7692 75.0019 41.8192 74.8621 41.8067 74.7223C41.7978 74.6166 41.8031 74.5091 41.7996 74.4033C41.7799 74.4643 41.7371 74.5162 41.7121 74.5718C41.5462 74.9392 41.5195 75.3513 41.3411 75.7169C41.3125 75.7761 41.309 75.8693 41.2626 75.8926C41.1627 75.9445 41.2662 76.0216 41.218 76.0807C41.177 76.1291 41.1894 76.2277 41.1448 76.2635C40.9807 76.3979 40.9486 76.6004 40.929 76.7743C40.9112 76.9374 40.8951 77.1058 40.8148 77.2313C40.656 77.4786 40.5936 77.7617 40.4901 78.027C40.3849 78.3012 40.2832 78.5754 40.1869 78.8513C40.1476 78.9642 40.062 79.0682 40.1084 79.2044C40.1173 79.2313 40.0888 79.2779 40.0691 79.3119C40.0228 79.3908 39.9567 79.4607 39.9246 79.5431C39.8925 79.6255 39.8943 79.7205 39.8765 79.8101C39.8604 79.8818 39.8265 79.9409 39.8426 80.027C39.8551 80.0897 39.7944 80.1686 39.7195 80.2313C39.5696 80.3549 39.4198 80.4875 39.3591 80.6954C39.3038 80.8818 39.2271 81.0539 39.1611 81.242C39.1343 81.3209 39.1005 81.3908 39.1076 81.4875C39.1147 81.5754 39.0487 81.6936 38.9845 81.7725C38.8846 81.8962 38.8257 82.0216 38.8097 82.1757C38.8043 82.2295 38.7793 82.285 38.7562 82.337C38.6134 82.6506 38.4582 82.9571 38.2959 83.2599C38.2566 83.3334 38.2281 83.4177 38.146 83.4499C38.1799 83.5306 38.1193 83.5951 38.08 83.656C38.0194 83.7474 37.9409 83.828 37.882 83.9212C37.8124 84.0306 37.7536 84.1435 37.7215 84.2761C37.6911 84.3979 37.5663 84.4911 37.5449 84.6291C37.5413 84.6542 37.4824 84.6793 37.4664 84.7116C37.4021 84.8406 37.2737 84.9463 37.2826 85.104C37.2826 85.1166 37.2683 85.1435 37.2559 85.1524C37.1007 85.2564 37.0792 85.4338 37.0222 85.5897C36.9597 85.7599 36.8259 85.8782 36.7474 86.0395C36.6582 86.2223 36.5833 86.4212 36.4674 86.5825C36.2676 86.8621 36.1213 87.1614 35.9447 87.4445C35.7645 87.7331 35.5879 88.0216 35.4273 88.3137C35.3577 88.441 35.3042 88.5789 35.2347 88.7098C35.2311 88.7169 35.2257 88.7241 35.2222 88.7331C36.1944 89.6022 37.3647 90.294 38.5135 90.9553C39.6339 91.6005 41.1948 92.0897 42.6237 92.2976C42.6095 92.2277 42.597 92.1578 42.5827 92.0879C42.5363 91.8675 42.4899 91.6488 42.4596 91.4266L42.4489 91.4141Z" fill="#484293"/>
<path d="M32.8334 54.5233C32.8941 54.6434 32.9565 54.7527 33.0261 54.8638C33.0939 54.9714 33.1207 55.1147 33.2134 55.2043C33.2223 55.2115 33.2295 55.2366 33.2366 55.2527C33.3686 55.5412 33.522 55.8226 33.6309 56.1004C33.7557 56.4283 33.9484 56.7205 34.1107 57.0287C34.4747 57.4767 34.7316 58.0018 35.042 58.4911C35.1401 58.6434 35.2542 58.7868 35.2917 58.9767C35.3238 59.1398 35.5147 59.2509 35.5111 59.4409C35.5111 59.457 35.5468 59.4731 35.5647 59.4911C35.6057 59.5341 35.661 59.5717 35.6824 59.6219C35.8091 59.9283 35.8055 59.9301 36.0053 60.1255C36.0285 60.1488 36.0124 60.2061 36.032 60.2384C36.1105 60.3656 36.1908 60.4947 36.2872 60.6076C36.3728 60.7097 36.4031 60.8656 36.5708 60.8997C36.6083 60.9068 36.6261 60.9642 36.6529 61C36.7438 61.1147 36.8402 61.2635 36.9258 61.3889C37.0311 61.5377 37.0649 61.7187 37.2326 61.8172C37.3058 61.8602 37.2469 62.0036 37.2879 62.0287C37.3647 62.0753 37.4092 62.1291 37.436 62.1954C37.461 62.2581 37.4521 62.3387 37.4877 62.3979C37.5181 62.4498 37.6001 62.4732 37.6376 62.5251C37.7304 62.6524 37.7839 62.8298 37.9159 62.9373C37.9872 62.9947 38.0443 63.0717 38.0854 63.138C38.1246 63.2007 38.1621 63.2653 38.1995 63.328C38.2834 63.4588 38.3494 63.604 38.4439 63.733C38.5171 63.8334 38.5278 63.957 38.5617 64.0735C38.5956 64.19 38.7472 64.2563 38.683 64.4176C38.6794 64.4248 38.6919 64.4337 38.6955 64.4409C38.8007 64.6667 38.8899 64.905 39.0023 65.1326C39.0986 65.328 39.1985 65.5341 39.2877 65.7276C39.3698 65.9068 39.4643 66.0843 39.5607 66.2635C39.6142 66.3656 39.7195 66.4463 39.6713 66.6022C39.6606 66.6344 39.7177 66.6595 39.7177 66.6954C39.7177 66.8298 39.9639 66.7921 39.93 66.9427C39.8996 67.0771 39.9995 67.1416 40.0441 67.2384C40.0941 67.3459 40.1654 67.4445 40.219 67.552C40.2546 67.6273 40.3082 67.6846 40.4009 67.7151C40.3189 67.862 40.4634 67.9373 40.4509 68.0663C40.4419 68.1506 40.4473 68.2688 40.5133 68.2975C40.6578 68.3674 40.656 68.4964 40.7042 68.5896C40.7791 68.7312 40.8005 68.8997 40.9593 69.0036C41.0253 69.0484 41.0396 69.1398 41.0592 69.2169C41.077 69.2886 41.0556 69.3764 41.0806 69.4463C41.127 69.5753 41.1894 69.6936 41.3179 69.7814C41.4285 69.8585 41.3714 70.0448 41.5623 70.0825C41.5872 70.0878 41.5979 70.1255 41.5979 70.1524C41.5979 70.2724 41.614 70.3782 41.7032 70.4606C41.6925 70.4051 41.6943 70.3459 41.6836 70.2939C41.6051 69.8638 41.3964 69.466 41.3589 69.018C41.3518 68.9463 41.3089 68.8549 41.3357 68.8083C41.3946 68.7061 41.2679 68.6864 41.284 68.6058C41.2965 68.5377 41.2394 68.4516 41.2626 68.3925C41.3446 68.181 41.2804 67.9714 41.218 67.7957C41.1609 67.6309 41.0967 67.4624 41.1109 67.3029C41.1395 66.9893 41.0663 66.6954 41.0306 66.3943C40.9968 66.0825 40.945 65.785 40.8933 65.4839C40.8719 65.362 40.8933 65.2205 40.7845 65.1255C40.7631 65.1058 40.7648 65.0484 40.7648 65.009C40.7648 64.9606 40.7702 64.9122 40.7738 64.8638C40.7773 64.8244 40.7791 64.785 40.7684 64.7455C40.7488 64.6667 40.6863 64.5932 40.6453 64.5018C40.6114 64.4266 40.6007 64.3459 40.5329 64.2617C40.508 64.2312 40.4972 64.181 40.4972 64.1219C40.4972 64.0645 40.5097 63.9893 40.5311 63.9534C40.6096 63.776 40.6828 63.5789 40.631 63.3567C40.5864 63.1595 40.565 62.9552 40.524 62.7527C40.5062 62.6685 40.499 62.5861 40.4402 62.5018C40.3884 62.4266 40.3813 62.2832 40.392 62.1775C40.4098 62.0108 40.3938 61.862 40.326 61.7115C40.3028 61.6595 40.2957 61.595 40.2885 61.5341C40.2475 61.1703 40.2207 60.8065 40.1904 60.4499C40.1833 60.3638 40.1601 60.2742 40.2118 60.1972C40.1387 60.147 40.153 60.0556 40.1512 59.9803C40.1476 59.8656 40.1637 59.7509 40.1565 59.6344C40.1476 59.4947 40.128 59.3602 40.0762 59.224C40.0299 59.1004 40.0762 58.9409 40.0138 58.8083C40.0031 58.7832 40.0352 58.7258 40.0281 58.6882C40.0049 58.5323 40.0495 58.3602 39.9549 58.224C39.9478 58.2133 39.9442 58.1792 39.9496 58.1649C40.0192 57.9785 39.9389 57.8083 39.8996 57.6398C39.855 57.457 39.8943 57.2742 39.8622 57.0878C39.8247 56.8764 39.7641 56.6577 39.7605 56.4463C39.7498 56.0825 39.6963 55.7276 39.6659 55.38C39.6356 55.0197 39.5981 54.6613 39.5589 54.3029C39.5411 54.147 39.5054 53.9947 39.4875 53.8387C39.4661 53.6649 39.4536 53.4893 39.4376 53.3154L39.3912 52.8226C39.3841 52.7455 39.3644 52.6613 39.3859 52.5914C39.3912 52.5771 39.3876 52.5287 39.3823 52.5108C39.3377 52.3746 39.3288 52.2384 39.3413 52.0914C39.3448 52.0502 39.3323 51.9911 39.3306 51.9427C39.327 51.8065 39.2931 51.6936 39.2753 51.5699C39.2592 51.4552 39.2681 51.3226 39.2271 51.224C39.2217 51.2115 39.2164 51.1542 39.2199 51.1362C39.2503 50.8979 39.145 50.6524 39.1486 50.4194C39.1111 50.3334 39.1218 50.2348 39.104 50.1649C39.0808 50.0628 39.0576 49.9642 39.038 49.8549C39.0201 49.7527 39.0005 49.6506 38.9827 49.5502C38.9755 49.509 38.9702 49.4678 38.9631 49.4283C37.436 49.6183 35.7074 49.9516 34.5978 50.3835C33.4828 52.1022 32.5676 53.5126 32.5676 53.5126C32.523 53.5807 32.4784 53.6452 32.4338 53.7079C32.4517 53.7473 32.4677 53.7868 32.4874 53.8262C32.5997 54.0645 32.7121 54.2868 32.8388 54.5215L32.8334 54.5233Z" fill="#484293"/>
<path d="M35.8233 86.7761C35.909 86.604 35.9732 86.4284 36.1016 86.2707C36.2122 86.1363 36.2265 85.9141 36.371 85.785C36.3835 85.7743 36.3817 85.7349 36.3906 85.7098C36.4085 85.6488 36.4192 85.5789 36.4513 85.5288C36.6439 85.2223 36.6457 85.2259 36.7438 84.9338C36.7563 84.8997 36.8063 84.8764 36.8277 84.8406C36.908 84.6954 36.9972 84.5467 37.0703 84.4033C37.1363 84.2725 37.2558 84.1632 37.2505 84.0001C37.2505 83.9642 37.2933 83.9176 37.3165 83.8746C37.3896 83.7402 37.4681 83.6076 37.5324 83.4678C37.6055 83.3101 37.7232 83.1703 37.7304 82.9822C37.7339 82.8997 37.8588 82.8442 37.8624 82.7958C37.8677 82.7062 37.8909 82.6327 37.9302 82.5628C37.9694 82.4947 38.0336 82.4409 38.0675 82.3693C38.0961 82.3083 38.0854 82.2277 38.1103 82.1632C38.1728 82.0037 38.2798 81.8513 38.2959 81.69C38.3155 81.5162 38.3833 81.3728 38.4315 81.2187C38.485 81.0574 38.5492 80.9069 38.5974 80.7331C38.633 80.6004 38.7133 80.5001 38.7758 80.3872C38.84 80.2743 38.8204 80.1148 38.9559 80.0431C38.9613 80.0395 38.9631 80.0252 38.9666 80.0162C39.0737 79.7743 39.1914 79.5377 39.286 79.2922C39.4501 78.8675 39.5982 78.4392 39.7498 78.0126C39.7926 77.8926 39.8015 77.7528 39.9246 77.6703C39.9514 77.6524 39.9407 77.5915 39.9656 77.5646C40.0548 77.4625 39.921 77.3137 40.0334 77.2259C40.1333 77.147 40.1316 77.0252 40.1708 76.9212C40.2172 76.8047 40.2457 76.6811 40.2903 76.5628C40.3207 76.4804 40.3314 76.4015 40.3064 76.3173C40.4366 76.2599 40.4116 76.1058 40.4937 76.0162C40.549 75.9571 40.615 75.8585 40.5989 75.794C40.5615 75.6524 40.6364 75.5521 40.6685 75.4356C40.7149 75.2617 40.8077 75.1058 40.797 74.9123C40.7934 74.8298 40.8469 74.7438 40.8879 74.665C40.9272 74.5933 40.9932 74.5341 41.0289 74.4607C41.0931 74.3245 41.1466 74.1847 41.152 74.0234C41.1591 73.8836 41.3143 73.7797 41.2661 73.6112C41.259 73.5879 41.2822 73.5521 41.3018 73.5323C41.3928 73.4374 41.4624 73.3442 41.482 73.2062C41.482 73.2062 41.4802 73.208 41.4784 73.2098C41.4106 73.2779 41.3321 73.3298 41.2858 73.4266C41.2412 73.5252 41.1127 73.5467 41.0164 73.6004C40.9308 73.647 40.8433 73.6918 40.7738 73.7689L40.2457 74.3531C40.2243 74.3782 40.1815 74.4015 40.1833 74.4266C40.1833 74.5305 40.1761 74.613 40.037 74.5861C40.0299 74.5861 40.012 74.6058 40.012 74.6148C40.0227 74.7133 39.9389 74.7528 39.8854 74.8065C39.6856 75.009 39.5464 75.2707 39.3056 75.4463C39.2681 75.475 39.2342 75.5288 39.1986 75.5288C39.1218 75.5288 39.1557 75.6076 39.1076 75.6273C39.0665 75.6435 39.0416 75.7062 39.0005 75.7133C38.8578 75.7402 38.7686 75.8495 38.6973 75.9445C38.6295 76.0341 38.5635 76.1291 38.4725 76.1757C38.2941 76.2671 38.1656 76.4123 38.0194 76.5359C37.8695 76.665 37.725 76.7976 37.5823 76.9356C37.5252 76.9911 37.4414 77.0305 37.4307 77.1255C37.4289 77.1452 37.3968 77.165 37.3754 77.1793C37.3236 77.2133 37.2648 77.2384 37.2219 77.2797C37.1791 77.3209 37.1542 77.38 37.1167 77.4302C37.0881 77.4696 37.0489 77.4965 37.0346 77.5556C37.0239 77.5987 36.9651 77.6291 36.9008 77.6488C36.7742 77.6865 36.6439 77.7259 36.5458 77.8388C36.4602 77.9392 36.3585 78.0252 36.2675 78.122C36.2301 78.1614 36.189 78.1954 36.1676 78.2581C36.148 78.3137 36.0767 78.3693 36.016 78.4015C35.9232 78.4535 35.8537 78.5162 35.8055 78.6094C35.7894 78.6417 35.7591 78.6703 35.7324 78.6972L35.2311 79.1829C35.19 79.2223 35.1544 79.2689 35.0937 79.2743C35.0991 79.3334 35.0455 79.3621 35.0081 79.3926C34.951 79.4409 34.8832 79.4768 34.8261 79.5252C34.7583 79.5825 34.6977 79.6452 34.6513 79.7241C34.6085 79.7976 34.5086 79.8352 34.4658 79.9194C34.4586 79.9356 34.4158 79.9409 34.3998 79.9589C34.332 80.0323 34.2267 80.0771 34.2 80.1811C34.1982 80.1901 34.1821 80.2044 34.1732 80.208C34.0519 80.2456 33.9984 80.3549 33.9288 80.4463C33.8521 80.5431 33.7415 80.5933 33.6576 80.6811C33.5631 80.7815 33.4757 80.8961 33.374 80.9804C33.1974 81.1255 33.06 81.3047 32.9137 81.475C32.7621 81.6488 32.6176 81.828 32.4749 82.0108C32.4142 82.0915 32.3625 82.1775 32.3036 82.2582C32.2376 82.3478 32.1663 82.4356 32.0985 82.5252L32.0414 82.6004C32.3946 84.027 32.9244 85.5879 33.7629 86.9983C34.0911 87.5503 34.4997 88.0395 34.9581 88.4822C34.9653 88.4678 34.9724 88.4535 34.9795 88.4392C35.1936 87.8478 35.5575 87.3209 35.8269 86.7761H35.8233Z" fill="#484293"/>
<path d="M32.9208 81.0233C33.0029 80.9158 33.0814 80.8065 33.1956 80.7222C33.2937 80.6523 33.349 80.509 33.4703 80.4534C33.481 80.448 33.4881 80.4229 33.4988 80.4086C33.5238 80.3728 33.5452 80.328 33.5755 80.3011C33.7646 80.1416 33.7646 80.1434 33.8895 79.9749C33.9038 79.9552 33.9412 79.9498 33.9609 79.9301C34.0429 79.8513 34.1286 79.776 34.2053 79.6918C34.2731 79.6183 34.373 79.5699 34.4033 79.4624C34.4104 79.4391 34.4479 79.4158 34.4711 79.3925C34.546 79.319 34.6245 79.2473 34.6941 79.1685C34.7761 79.0789 34.8814 79.0126 34.9278 78.8925C34.9492 78.8405 35.0419 78.8298 35.0544 78.7975C35.0776 78.7401 35.1097 78.6989 35.1525 78.6613C35.1936 78.6255 35.2471 78.6039 35.2863 78.5663C35.3202 78.5323 35.3327 78.4785 35.3648 78.4427C35.4433 78.3548 35.5504 78.2814 35.6057 78.1828C35.6645 78.0771 35.7466 78.0018 35.8233 77.9158C35.9018 77.828 35.991 77.7473 36.0677 77.6559C36.1266 77.5842 36.2051 77.5448 36.2746 77.4928C36.346 77.4409 36.3799 77.3369 36.4816 77.3298C36.4869 77.3298 36.4905 77.3208 36.4959 77.3154C36.6296 77.1953 36.7688 77.0789 36.899 76.9516C37.1256 76.733 37.3468 76.5108 37.5769 76.3011C37.6429 76.2419 37.6947 76.1595 37.7946 76.1488C37.816 76.147 37.8302 76.1075 37.8534 76.0986C37.9408 76.0663 37.9141 75.9337 38.0104 75.9176C38.096 75.9032 38.1371 75.8315 38.1959 75.7832C38.2637 75.7294 38.3226 75.6667 38.3886 75.6111C38.435 75.5735 38.4671 75.5305 38.4814 75.4713C38.5759 75.4803 38.6152 75.3817 38.6937 75.3566C38.7454 75.3387 38.8168 75.3029 38.8292 75.2599C38.8542 75.1649 38.9327 75.129 38.9862 75.0699C39.0665 74.9839 39.1682 74.9176 39.2128 74.7957C39.2324 74.7455 39.2877 74.7061 39.3323 74.6703C39.3733 74.6362 39.4304 74.6183 39.4697 74.5807C39.5428 74.5108 39.607 74.4355 39.6463 74.3351C39.6802 74.2491 39.7997 74.2133 39.7997 74.0968C39.7997 74.0806 39.8211 74.0627 39.8372 74.0538C39.9246 74.0036 39.9942 73.9516 40.0334 73.8423C40.0655 73.7545 40.1601 73.69 40.2279 73.6165C40.2992 73.5376 40.3652 73.4462 40.4508 73.3835C40.5061 73.3441 40.4562 73.2491 40.5579 73.2366C40.6132 73.2312 40.6578 73.1559 40.7095 73.1129C40.7613 73.0681 40.8005 73.0054 40.8594 72.9731C41.0128 72.8871 41.1448 72.7778 41.2786 72.6667C41.3321 72.6219 41.3892 72.5771 41.4463 72.5323C41.4284 72.5143 41.4124 72.4982 41.391 72.4821C41.3785 72.4749 41.3696 72.4642 41.3607 72.4552C41.3535 72.4624 41.3464 72.4695 41.3375 72.4731C41.325 72.4803 41.3089 72.4857 41.2946 72.4821C41.1609 72.4445 41.1609 72.4462 41.0467 72.5143C41.0181 72.5305 40.9842 72.5233 40.9539 72.5341C40.8754 72.5591 40.7934 72.543 40.7167 72.6129C40.6399 72.6846 40.5365 72.5842 40.4437 72.5484C40.3617 72.5161 40.2796 72.4767 40.1957 72.491C39.9852 72.5269 39.7712 72.543 39.5589 72.5681C39.5321 72.5717 39.4929 72.5538 39.4822 72.5807C39.434 72.6936 39.3876 72.7706 39.3091 72.5968C39.3056 72.5878 39.2841 72.5914 39.2788 72.6022C39.2395 72.7204 39.1646 72.6738 39.1058 72.6756C38.8792 72.6882 38.6723 72.8351 38.4421 72.8136C38.4047 72.81 38.3583 72.8441 38.3333 72.81C38.2798 72.7384 38.2709 72.8638 38.2281 72.8405C38.1924 72.8208 38.1496 72.871 38.1175 72.8423C38.0051 72.7419 37.898 72.7885 37.807 72.8333C37.7232 72.8763 37.6358 72.9247 37.5537 72.8961C37.3896 72.8387 37.238 72.8871 37.0828 72.8961C36.9222 72.905 36.7634 72.9229 36.6047 72.9444C36.5404 72.9534 36.4655 72.9176 36.4156 73.0161C36.4049 73.0358 36.3745 73.0287 36.3531 73.0233C36.3032 73.0126 36.2497 72.9821 36.2015 72.9857C36.1533 72.991 36.1087 73.0323 36.0606 73.0502C36.0213 73.0645 35.9839 73.0574 35.9482 73.1093C35.9214 73.147 35.8661 73.1237 35.8144 73.0807C35.7109 72.9946 35.6057 72.9104 35.4897 72.9391C35.388 72.9642 35.281 72.9606 35.1775 72.9803C35.1347 72.9875 35.0919 72.9857 35.0509 73.0358C35.0152 73.0789 34.942 73.0735 34.8867 73.0538C34.7993 73.0233 34.7244 73.0269 34.653 73.0896C34.6298 73.1111 34.596 73.1165 34.5674 73.1219L34.0197 73.2151C33.9751 73.2222 33.9323 73.2455 33.8842 73.1953C33.8681 73.267 33.8182 73.2545 33.7789 73.2563C33.7183 73.2599 33.654 73.2401 33.5952 73.2455C33.5238 73.2527 33.456 73.2706 33.3954 73.3226C33.3383 73.3692 33.2473 73.3262 33.1884 73.3907C33.1777 73.4032 33.142 73.371 33.1242 73.3781C33.0475 73.405 32.9494 73.3656 32.8905 73.4606C32.8852 73.4677 32.8691 73.4713 32.8602 73.466C32.7514 73.3979 32.6729 73.4767 32.5837 73.5126C32.4873 73.5502 32.3839 73.5 32.2858 73.5179C32.1734 73.5358 32.061 73.5753 31.9504 73.5609C31.7577 73.5358 31.5793 73.5842 31.3956 73.5968L30.8301 73.6398C30.8211 73.6398 30.8104 73.6434 30.8015 73.6434C30.971 75.948 31.1422 77.862 31.235 78.2921C31.392 79.0108 31.5454 80.5466 31.9646 82.3226C32.0271 82.2312 32.0895 82.1416 32.1555 82.0538C32.3678 81.681 32.6515 81.3548 32.9155 81.0161L32.9208 81.0233Z" fill="#484293"/>
<path d="M39.3519 50.7151C39.3787 50.8674 39.4019 51.0072 39.434 51.1506C39.4661 51.2886 39.4625 51.4534 39.5178 51.5825C39.5232 51.5932 39.525 51.6219 39.5267 51.6416C39.5803 51.9982 39.6534 52.362 39.682 52.7115C39.7141 53.1183 39.789 53.5162 39.8336 53.9158C39.9906 54.5592 40.0387 55.2276 40.1404 55.8782C40.1725 56.0753 40.2278 56.2706 40.2189 56.4857C40.2118 56.6703 40.3349 56.871 40.2956 57.0735C40.2921 57.0896 40.317 57.1237 40.326 57.1506C40.3474 57.2151 40.3813 57.2832 40.3848 57.3477C40.4044 57.7402 40.3991 57.7366 40.4812 58.052C40.4901 58.0896 40.4615 58.1398 40.4651 58.1828C40.4794 58.3585 40.4901 58.5341 40.5168 58.7061C40.54 58.8602 40.5061 59.0305 40.606 59.1685C40.6274 59.199 40.6203 59.2671 40.6257 59.3172C40.6453 59.4785 40.6631 59.6362 40.6934 59.8047C40.7273 59.9929 40.7095 60.19 40.8058 60.3674C40.8486 60.4445 40.7719 60.5699 40.7969 60.6147C40.8415 60.699 40.8594 60.7796 40.8629 60.8674C40.8665 60.9517 40.8397 61.0377 40.8486 61.1219C40.8558 61.1936 40.9075 61.2617 40.92 61.3334C40.9503 61.5126 40.9396 61.7097 41.0092 61.8638C41.0841 62.0305 41.1055 62.199 41.1466 62.3692C41.1876 62.5484 41.2126 62.733 41.2607 62.9158C41.2982 63.0574 41.2804 63.1954 41.2804 63.337C41.2804 63.4767 41.3749 63.6255 41.2875 63.7653C41.2839 63.7706 41.2911 63.7868 41.2911 63.7975L41.2982 63.9929C41.3018 64.0466 41.3089 64.1022 41.3214 64.1631C41.3446 64.285 41.3856 64.4194 41.4249 64.5717C41.4623 64.7115 41.4748 64.8316 41.498 64.9516L41.5604 65.3137C41.6015 65.5556 41.6479 65.7993 41.6835 66.0395C41.7032 66.1739 41.762 66.3119 41.6925 66.4516C41.6782 66.4803 41.7139 66.5341 41.7067 66.5717C41.6764 66.7115 41.8637 66.7904 41.8048 66.9284C41.7513 67.052 41.8102 67.1667 41.8209 67.2832C41.8334 67.4158 41.8637 67.5466 41.878 67.6792C41.8887 67.7706 41.9154 67.8513 41.9761 67.9176C41.8869 68.0359 41.9797 68.1667 41.9476 68.2922C41.9315 68.3549 41.9208 68.4427 41.9369 68.5036C41.9404 68.457 41.9458 68.4086 41.9547 68.3656C41.9725 68.2689 42.0011 68.181 42.0314 68.104C42.0582 68.0395 42.0742 67.9767 42.0885 67.9194L42.1063 67.8352L42.1188 67.7689C42.1367 67.6828 42.1616 67.6058 42.258 67.5162C42.1955 67.4409 42.192 67.3603 42.1937 67.2706C42.1937 67.1846 42.2009 67.0789 42.1545 67.009C42.0956 66.914 42.0992 66.8262 42.0956 66.7312C42.0903 66.5717 42.0867 66.4033 42.0956 66.2187C42.1045 66.0251 42.1438 65.8316 42.183 65.6667L42.2954 65.2169C42.3257 65.0861 42.3436 64.9588 42.3561 64.819C42.3882 64.457 42.3329 64.0717 42.3061 63.6703C42.2972 63.5574 42.2794 63.4445 42.3543 63.3154C42.4096 63.2205 42.4096 63.0502 42.3079 62.9248C42.2883 62.9015 42.2704 62.8495 42.2847 62.8298C42.4685 62.5843 42.2829 62.337 42.3008 62.0771C42.3365 61.604 42.5184 61.1757 42.5809 60.733C42.5951 60.638 42.6647 60.5377 42.5612 60.4463C42.6718 60.3907 42.6326 60.328 42.604 60.233C42.5737 60.1362 42.5951 59.9857 42.6611 59.9158C42.7539 59.819 42.7414 59.7169 42.7646 59.6165C42.7878 59.509 42.7931 59.3979 42.811 59.2922C42.8502 59.0646 42.8806 58.8387 42.9037 58.6129C42.9269 58.3889 42.9359 58.1416 42.9555 57.9068C42.9626 57.8137 43.0036 57.724 43.0233 57.6309C43.0429 57.5377 42.9929 57.4355 43.0857 57.3477C43.1196 57.3154 43.0946 57.2187 43.0964 57.1506C43.0982 56.914 43.1553 56.656 43.0875 56.4427C43.0197 56.2312 43.1071 56.0072 42.9858 55.8101C42.9519 55.7563 42.9894 55.6542 42.9822 55.5771C42.959 55.2599 43.0607 54.9319 42.9376 54.6219C43.0197 54.5072 43.0054 54.3728 43.0019 54.242C43.0001 54.147 43.0447 54.0377 42.959 53.9588C42.9483 53.9499 42.9501 53.9158 42.9537 53.8961C42.9769 53.7814 43.034 53.6775 43.0197 53.5502C43.009 53.4427 42.959 53.3567 42.9626 53.2384C42.9769 52.8154 43.0768 52.3997 43.0482 51.9749C43.1125 51.8585 43.1018 51.7258 43.1071 51.595C43.1125 51.3638 43.0465 51.1452 43.0661 50.9122C43.0839 50.69 43.1 50.4516 43.0643 50.2402C43.0233 49.9964 43.0268 49.7509 43.0322 49.5054C42.654 49.4068 42.2722 49.3244 41.8905 49.276C41.3874 49.2115 40.2938 49.2671 39.0558 49.4176C39.0843 49.5538 39.1164 49.6936 39.1521 49.837C39.2288 50.1237 39.2984 50.4176 39.3519 50.7169V50.7151Z" fill="#484293"/>
<path d="M50.5962 70.957C50.4606 71.0161 50.3179 70.9856 50.1841 71.0125C49.9968 71.0537 49.8112 71.0286 49.6328 71.0537C49.5329 71.0681 49.4491 71.0878 49.3421 71.0896C49.2957 71.0896 49.2511 71.0914 49.2029 71.0645C49.1547 71.0376 49.0834 71.034 49.0227 71.0752C48.9978 71.0914 48.9567 71.1039 48.9371 71.0914C48.8533 71.0322 48.7641 71.0609 48.6856 71.0734C48.6338 71.0806 48.5785 71.0322 48.5411 71.0645C48.4858 71.1183 48.4287 71.1093 48.3734 71.1236C48.3341 71.1326 48.2913 71.1613 48.2503 71.1093C48.2396 71.095 48.2003 71.0967 48.1914 71.1093C48.1343 71.1917 48.0558 71.1666 47.988 71.1792C47.8221 71.2096 47.6759 71.2383 47.5242 71.2831C47.3904 71.319 47.2887 71.4462 47.1442 71.4588C47.0872 71.5663 46.9837 71.5627 46.8963 71.5914C46.8285 71.6129 46.7518 71.6057 46.6786 71.6111C46.6055 71.6165 46.5431 71.6523 46.4592 71.6362C46.3557 71.6165 46.2594 71.6881 46.1559 71.7061C46.1006 71.715 46.0489 71.7813 45.9793 71.7061C45.9704 71.6953 45.9454 71.7043 45.9383 71.7168C45.883 71.8226 45.7831 71.819 45.71 71.7939C45.5922 71.7562 45.4887 71.7975 45.3888 71.801C45.3032 71.8046 45.2194 71.8279 45.1337 71.8297C45.0731 71.8297 45.016 71.8602 44.9464 71.8261C44.8947 71.801 44.8358 71.862 44.7787 71.8763C44.7217 71.8907 44.6628 71.8924 44.6039 71.8996L44.413 71.9247L44.2221 71.9498C44.1526 71.9588 44.0848 71.9749 44.0152 71.9731C43.9492 71.9731 43.8796 71.939 43.8154 71.9426C43.6317 71.9534 43.4675 72.0842 43.2784 72.0663C43.2374 72.1469 43.1839 72.0985 43.1304 72.0914C43.0929 72.086 43.0483 72.0717 43.0126 72.1021C43.0073 72.1111 43.0019 72.12 42.9966 72.1308C43.0626 72.1541 43.1268 72.1756 43.1946 72.1935L43.3391 72.2312C43.3908 72.2437 43.4229 72.2491 43.5086 72.2795C43.5906 72.3082 43.6763 72.3333 43.7137 72.4444C43.7423 72.5269 43.8297 72.586 43.9456 72.5412C43.9688 72.5322 44.0009 72.534 44.0027 72.5519C44.0152 72.7831 44.2097 72.6846 44.3006 72.7329C44.4862 72.8315 44.6378 73.0376 44.8626 73.1433C44.9107 73.1666 44.9411 73.2419 45.0321 73.1577C45.0231 73.267 45.0731 73.2383 45.1391 73.2258C45.2087 73.2114 45.2907 73.2562 45.305 73.3297C45.3139 73.3799 45.3353 73.4086 45.3603 73.4283C45.3817 73.4462 45.4049 73.4552 45.4245 73.4731C45.4673 73.5107 45.5226 73.5304 45.569 73.5645C45.767 73.7061 45.9865 73.8441 46.2077 73.9964C46.2505 74.0269 46.2772 74.0878 46.3147 74.1308C46.3522 74.1738 46.4271 74.1577 46.4253 74.2634C46.4253 74.3028 46.4842 74.3082 46.5163 74.3279C46.6323 74.3996 46.7232 74.5269 46.8624 74.5448C46.998 74.5609 47.0336 74.6953 47.1888 74.6505C47.2317 74.638 47.2548 74.6971 47.2923 74.715C47.4475 74.7849 47.5456 74.9659 47.7615 74.9605C47.7704 75.0645 47.8435 75.0985 47.906 75.1398C47.9524 75.172 47.9756 75.2455 48.0665 75.2079C48.0772 75.2025 48.0933 75.2168 48.1004 75.2276C48.1415 75.2903 48.1504 75.3745 48.2164 75.4175C48.2753 75.457 48.327 75.439 48.368 75.4785C48.5036 75.6165 48.6267 75.8136 48.8354 75.9068C48.855 75.9928 48.9228 76.0215 48.9817 76.0627C49.087 76.1326 49.2261 76.138 49.3278 76.2312C49.4223 76.3172 49.5276 76.4247 49.6328 76.4677C49.8219 76.5466 49.9468 76.7025 50.1056 76.8118C50.1466 76.8405 50.2019 76.8584 50.2055 76.9301C50.2055 76.948 50.2537 76.9749 50.2751 76.9695C50.3197 76.9588 50.3375 77 50.3678 77.0071C50.4535 77.0304 50.457 77.1881 50.5765 77.1541C50.589 77.1631 50.6033 77.1702 50.6158 77.1792C50.7871 75.8333 50.9797 74.3494 50.9797 73.6559C50.9797 73.0358 51.0404 72.0788 51.1046 70.8584C51.0065 70.8889 50.9048 70.9301 50.7978 70.9408C50.7282 70.948 50.6533 70.9247 50.5926 70.9498L50.5962 70.957Z" fill="#484293"/>
<path d="M31.9415 73.1075C32.0396 73.1308 32.1359 73.0286 32.2447 73.086C32.2536 73.0914 32.2697 73.0699 32.2822 73.0627C32.3143 73.0466 32.3464 73.0179 32.3785 73.0179C32.5765 73.0179 32.5765 73.0215 32.7282 72.9408C32.746 72.9319 32.7763 72.9605 32.7977 72.957C32.8869 72.9408 32.9761 72.9265 33.0618 72.8978C33.1385 72.8709 33.233 72.9014 33.2919 72.801C33.3044 72.7795 33.3418 72.7867 33.3686 72.7795C33.4525 72.7598 33.5363 72.7455 33.6184 72.7186C33.7111 72.6881 33.8164 72.7043 33.8967 72.6075C33.9305 72.5645 34.0073 72.6398 34.0287 72.6147C34.0661 72.5699 34.1072 72.5501 34.1535 72.5466C34.1981 72.543 34.2481 72.5699 34.2909 72.5609C34.3284 72.5537 34.3587 72.5036 34.3962 72.4928C34.4907 72.4659 34.5995 72.482 34.6798 72.4229C34.7672 72.3584 34.8582 72.3494 34.951 72.3279C35.0473 72.3046 35.1472 72.301 35.2435 72.2724C35.3185 72.2509 35.3916 72.2831 35.4665 72.2957C35.5397 72.3082 35.6128 72.2258 35.6859 72.3208C35.6895 72.3243 35.6966 72.3208 35.702 72.3208C35.8483 72.3208 35.9946 72.3297 36.1391 72.3154C36.3888 72.2921 36.6368 72.2491 36.8848 72.2222C36.9561 72.215 37.0257 72.1684 37.1006 72.2491C37.1167 72.2652 37.1434 72.2347 37.163 72.2455C37.238 72.2885 37.2737 72.1093 37.3486 72.1792C37.4146 72.2437 37.4735 72.1953 37.5341 72.1953C37.6037 72.1953 37.6715 72.1756 37.741 72.172C37.7892 72.1702 37.8302 72.1487 37.8641 72.095C37.9284 72.1935 37.9944 72.1129 38.0622 72.1559C38.1068 72.1828 38.1728 72.2079 38.1977 72.1684C38.2548 72.0806 38.3244 72.1093 38.3886 72.0932C38.4832 72.0681 38.5848 72.0896 38.6723 72C38.7097 71.9623 38.765 71.9749 38.8132 71.9803C38.8578 71.9838 38.906 72.0215 38.9488 72.0197C39.0308 72.0197 39.1111 72.0036 39.1842 71.9372C39.2485 71.8781 39.3448 71.9677 39.4019 71.8458C39.409 71.8297 39.4322 71.8315 39.4483 71.8387C39.5303 71.8763 39.6017 71.896 39.6802 71.8208C39.682 71.819 39.6855 71.819 39.6873 71.8172C39.6213 71.7329 39.5607 71.6451 39.4661 71.6147C39.2271 71.5394 38.9934 71.4355 38.7579 71.3297C38.7276 71.3172 38.699 71.2724 38.6687 71.2957C38.542 71.3924 38.4386 71.448 38.4796 71.2007C38.4814 71.1881 38.4564 71.1774 38.4457 71.1881C38.3208 71.2939 38.278 71.1881 38.2156 71.1487C38.0943 71.077 37.9569 71.0322 37.8178 70.9856C37.684 70.9337 37.5341 70.8656 37.461 70.7742C37.4342 70.7437 37.3682 70.7437 37.3753 70.6899C37.3896 70.577 37.279 70.7007 37.2647 70.6451C37.2522 70.5985 37.1738 70.6182 37.1702 70.5681C37.1577 70.3799 37.0257 70.3512 36.9115 70.3351C36.8045 70.3208 36.6903 70.3118 36.6386 70.2204C36.5369 70.043 36.3638 69.9874 36.2158 69.8853C36.0624 69.7795 35.9054 69.6863 35.7377 69.5932C35.6663 69.5537 35.6253 69.457 35.4968 69.5197C35.4701 69.5322 35.4469 69.5 35.4308 69.4785C35.3916 69.4265 35.3684 69.3512 35.3202 69.3154C35.2721 69.2795 35.1954 69.2849 35.1347 69.2616C35.0865 69.2437 35.0598 69.2025 34.9813 69.2222C34.9242 69.2365 34.8957 69.1631 34.8903 69.077C34.8796 68.9032 34.8707 68.7312 34.7494 68.6541C34.6423 68.5842 34.5621 68.482 34.4657 68.4014C34.4265 68.3674 34.3944 68.3226 34.3194 68.3297C34.2517 68.3351 34.2106 68.267 34.1928 68.1989C34.1642 68.0932 34.1036 68.0304 33.9912 68.0215C33.952 68.0179 33.9234 67.9928 33.8967 67.9695C33.7325 67.8279 33.5613 67.6738 33.4007 67.4982C33.3633 67.457 33.3044 67.4211 33.3347 67.3387C33.2455 67.3727 33.2312 67.31 33.2063 67.2706C33.1688 67.2096 33.1545 67.1308 33.1153 67.0717C33.0689 67.0018 33.0118 66.9444 32.9191 66.9157C32.8334 66.8889 32.837 66.7652 32.7317 66.7491C32.7121 66.7455 32.7282 66.6881 32.7103 66.6738C32.639 66.6129 32.6318 66.4838 32.4927 66.491C32.482 66.491 32.4695 66.4767 32.4695 66.4641C32.4873 66.3064 32.3553 66.2813 32.2679 66.2186C32.1734 66.1505 32.1716 66.0107 32.0967 65.9283C32.0128 65.8333 31.904 65.7545 31.8505 65.638C31.7577 65.439 31.5918 65.3118 31.4491 65.1631C31.3046 65.0107 31.1458 64.8709 30.9799 64.7437C30.9442 64.7168 30.905 64.6935 30.864 64.672L30.7587 64.62L30.4929 64.4749C30.4358 64.4444 30.3752 64.405 30.3163 64.3638C30.3163 64.4086 30.3163 64.4516 30.3163 64.4874C30.3163 66.0734 30.5428 70.0179 30.7801 73.301C31.0584 73.2329 31.342 73.2114 31.6221 73.1487C31.7256 73.1236 31.8255 73.086 31.9397 73.1129L31.9415 73.1075Z" fill="#484293"/>
<path d="M43.6458 51.3548C43.6458 51.4498 43.6512 51.5394 43.6191 51.6416C43.5852 51.7455 43.5852 51.8961 43.6423 52.0251C43.6655 52.0788 43.6833 52.1685 43.6655 52.2133C43.5905 52.4032 43.6262 52.6039 43.6333 52.7993C43.6369 52.9229 43.562 53.0609 43.5959 53.1362C43.653 53.2616 43.6316 53.3746 43.6405 53.491C43.6458 53.5735 43.6744 53.6685 43.6012 53.7419C43.5816 53.7616 43.5763 53.8423 43.5941 53.8674C43.6958 54.0072 43.6494 54.1685 43.6548 54.3172C43.669 54.6792 43.6744 55.0412 43.6744 55.405C43.6744 55.7043 43.7975 55.9946 43.7564 56.2957C43.8706 56.4803 43.8278 56.6846 43.8296 56.8817C43.8314 57.0323 43.7939 57.181 43.7743 57.3297C43.7547 57.4785 43.7778 57.6254 43.7279 57.7831C43.6655 57.9767 43.7279 58.2097 43.719 58.4247C43.7136 58.5394 43.7778 58.6846 43.6583 58.7867C43.6423 58.8011 43.6423 58.8566 43.6565 58.8781C43.7707 59.0448 43.7208 59.2455 43.6601 59.3799C43.5602 59.6004 43.5691 59.8208 43.5245 60.0376C43.4888 60.2168 43.4781 60.4014 43.4407 60.5788C43.4139 60.7061 43.4211 60.8351 43.3461 60.9606C43.289 61.0573 43.339 61.2025 43.3301 61.3262C43.3212 61.448 43.2998 61.5699 43.2837 61.69C43.2676 61.8226 43.2534 61.9534 43.2427 62.0842C43.2302 62.2168 43.223 62.3387 43.2195 62.4677C43.2159 62.6075 43.2266 62.7491 43.2177 62.8907C43.2088 63.0251 43.1606 63.1613 43.1606 63.2993C43.1606 63.6846 43.3319 64.0681 43.2659 64.4821C43.3622 64.5968 43.2837 64.7043 43.2569 64.8208C43.2302 64.9283 43.1749 65.0484 43.2569 65.1738C43.2819 65.2079 43.2659 65.2688 43.2623 65.3172C43.2569 65.4265 43.1428 65.4892 43.1838 65.6183C43.2141 65.7097 43.1356 65.8118 43.1267 65.9032C43.1178 65.9982 43.0268 66.0896 43.1481 66.1738C43.0464 66.2294 43.0678 66.3172 43.1053 66.3961C43.1428 66.4767 43.1963 66.5591 43.1553 66.6505C43.1285 66.7079 43.1214 66.7724 43.1053 66.8351C43.0964 66.8674 43.0732 66.9032 43.0839 66.9319C43.1303 67.0681 43.1553 67.181 43.1677 67.3172C43.1802 67.4516 43.1767 67.6039 43.1517 67.767C43.1392 67.8477 43.1196 67.9301 43.0964 68.009C43.0857 68.0484 43.0714 68.0878 43.0589 68.1272L43.0232 68.224C42.9786 68.3459 42.9465 68.4444 42.9465 68.5179C42.9465 68.5573 42.9804 68.5842 42.9983 68.6201C43.0054 68.6487 43.009 68.6792 43 68.7061C42.9233 68.9624 42.9269 68.9642 43 69.2115C43.0179 69.2742 43.0036 69.3423 43.0125 69.4068C43.0339 69.5645 43.0108 69.7222 43.0768 69.8889C43.1071 69.8459 43.1463 69.8082 43.1981 69.7778C43.166 69.6039 43.3194 69.4803 43.314 69.3262C43.3105 69.2294 43.3461 69.1613 43.38 69.0878C43.5941 68.6039 43.8171 68.1219 44.0169 67.6326C44.1471 67.31 44.247 66.9767 44.3683 66.6487C44.4022 66.5556 44.4272 66.4624 44.5235 66.3853C44.5931 66.328 44.652 66.1971 44.6217 66.0717C44.6163 66.0466 44.6217 66.0036 44.6359 65.9928C44.8393 65.8602 44.7822 65.6219 44.8536 65.4391C44.9945 65.0788 45.2193 64.7652 45.3673 64.4122C45.3995 64.3369 45.4744 64.2652 45.4191 64.172C45.5118 64.1452 45.4994 64.0878 45.5029 64.0018C45.5047 63.914 45.5582 63.7921 45.626 63.7455C45.7188 63.6828 45.7366 63.5932 45.783 63.5143C45.8312 63.4301 45.8668 63.3369 45.9132 63.2509C46.1112 62.8871 46.3182 62.5269 46.5394 62.1774C46.5822 62.1111 46.6464 62.0573 46.6964 61.9946C46.7463 61.9319 46.7517 61.8387 46.8498 61.8029C46.8855 61.7903 46.9051 61.7079 46.9319 61.6577C47.0246 61.4785 47.1566 61.3011 47.187 61.1147C47.2173 60.9319 47.3547 60.7832 47.3368 60.595C47.3315 60.543 47.3903 60.4749 47.4117 60.4122C47.5009 60.1559 47.6704 59.9337 47.6865 59.6434C47.781 59.5717 47.8185 59.4588 47.8649 59.3548C47.897 59.2778 47.9701 59.2079 47.9416 59.1165C47.938 59.1057 47.9523 59.0806 47.9612 59.0663C48.0201 58.9839 48.0986 58.9229 48.1396 58.8208C48.1735 58.7348 48.1753 58.6505 48.2234 58.5627C48.3983 58.2473 48.623 57.9695 48.7408 57.6344C48.821 57.5645 48.8567 57.4588 48.8942 57.3566C48.9638 57.1738 48.9798 56.9767 49.0672 56.7921C49.1493 56.6165 49.2403 56.4301 49.2867 56.2527C49.3687 55.9444 49.5239 55.6702 49.647 55.3817C49.672 55.3244 49.6934 55.2581 49.7344 55.2079C48.8585 53.4498 47.7685 52.052 47.2619 51.6201C46.4627 50.9409 46.0292 50.4176 45.0123 50.1039C44.5164 49.9516 44.0098 49.7796 43.4996 49.629C43.5513 49.9928 43.5477 50.362 43.5941 50.7258C43.6209 50.9337 43.6476 51.1434 43.6512 51.3495L43.6458 51.3548Z" fill="#484293"/>
<path d="M50.9993 65.7688C50.878 65.8889 50.7174 65.9624 50.5872 66.0609C50.4088 66.1989 50.2108 66.31 50.0395 66.4516C49.9467 66.5269 49.8593 66.6075 49.763 66.6774C49.7202 66.7097 49.6791 66.7419 49.6221 66.7652C49.565 66.7867 49.4954 66.8423 49.4544 66.9086C49.4365 66.9373 49.4044 66.9767 49.3777 66.9857C49.2688 67.0251 49.1921 67.1147 49.1119 67.1917C49.0601 67.2401 48.9763 67.267 48.9584 67.3082C48.9263 67.3781 48.8675 67.4193 48.8193 67.4695C48.7854 67.5054 48.7497 67.5538 48.6926 67.5538C48.6766 67.5538 48.6391 67.5824 48.6338 67.5986C48.6016 67.6917 48.5124 67.733 48.4429 67.7903C48.277 67.9265 48.1039 68.0538 47.9327 68.1774C47.7882 68.2796 47.6954 68.4229 47.5366 68.5161C47.4742 68.6308 47.3547 68.681 47.2566 68.7419C47.1816 68.7885 47.0978 68.8172 47.0229 68.853C46.9462 68.8907 46.8819 68.9426 46.8284 68.9624C46.7464 68.9928 46.7142 69.1165 46.625 69.2348C46.6018 69.2652 46.5787 69.3064 46.5501 69.3387C46.5251 69.3674 46.4948 69.3925 46.452 69.3943C46.4395 69.3943 46.4181 69.4193 46.4145 69.4337C46.3896 69.5448 46.2861 69.6147 46.2076 69.6487C46.0792 69.7061 45.9864 69.7975 45.8776 69.8692C45.7866 69.9283 45.7027 69.9964 45.6118 70.052C45.5458 70.0914 45.4922 70.1452 45.4102 70.1667C45.3495 70.1828 45.3049 70.2563 45.2514 70.3011C45.1979 70.3459 45.139 70.3871 45.0819 70.4319L44.8964 70.5788L44.7055 70.7276C44.6359 70.7814 44.5682 70.8387 44.4897 70.8835C44.4147 70.9283 44.3345 70.9462 44.2685 70.9892C44.1008 71.095 43.9759 71.2527 43.8118 71.3656C43.851 71.3674 43.8956 71.3495 43.9259 71.2975C43.9349 71.2814 43.9563 71.267 43.967 71.276C44.0936 71.4032 44.1828 71.2473 44.2899 71.233C44.4986 71.2025 44.7144 71.2652 44.9214 71.2365C44.966 71.2312 45.0231 71.2652 45.0463 71.172C45.0891 71.2419 45.1105 71.2043 45.1497 71.1667C45.189 71.1272 45.2603 71.1183 45.3031 71.1559C45.3602 71.2061 45.4102 71.1828 45.4548 71.1828C45.5047 71.1828 45.5529 71.1702 45.6028 71.1667C45.8134 71.1541 46.0292 71.1254 46.2468 71.095C46.2897 71.0896 46.3378 71.1093 46.3842 71.1111C46.4306 71.1147 46.4645 71.0645 46.5234 71.1201C46.5448 71.1416 46.584 71.1111 46.6143 71.1021C46.7214 71.0735 46.8498 71.0788 46.9301 71C47.0104 70.9229 47.1317 70.9552 47.1959 70.8405C47.2137 70.8082 47.2673 70.8226 47.3029 70.8064C47.3725 70.7778 47.4528 70.7688 47.5384 70.7545C47.6223 70.7419 47.699 70.7222 47.7703 70.6649C47.8363 70.7168 47.9006 70.6971 47.963 70.6882C48.0076 70.681 48.0647 70.7097 48.0932 70.6398C48.0968 70.6308 48.1128 70.6308 48.1218 70.6326C48.1771 70.6434 48.2288 70.681 48.2859 70.6631C48.3341 70.6487 48.3662 70.6057 48.4179 70.6004C48.4411 70.5986 48.4643 70.5968 48.4875 70.595C48.5142 70.595 48.5463 70.5914 48.5749 70.5932C48.6338 70.5932 48.6891 70.6004 48.7444 70.6057C48.8532 70.6183 48.9567 70.6344 49.0601 70.6272C49.1136 70.6774 49.1761 70.672 49.2367 70.6774C49.3438 70.6864 49.4401 70.6344 49.5578 70.6541C49.6649 70.672 49.7773 70.6917 49.879 70.672C50.052 70.638 50.2179 70.6792 50.3838 70.672C50.4266 70.672 50.473 70.6559 50.5122 70.6953C50.523 70.7061 50.5676 70.6989 50.58 70.6864C50.605 70.6595 50.6371 70.6738 50.6621 70.6631C50.7263 70.6344 50.8137 70.7204 50.8708 70.638C50.9493 70.6236 51.0314 70.6039 51.1134 70.5842C51.117 70.5842 51.1206 70.5842 51.1224 70.5824C51.1937 69.2025 51.2669 67.5107 51.2686 65.595C51.2472 65.6093 51.2258 65.6254 51.2044 65.638C51.1366 65.681 51.0546 65.7115 50.9993 65.7652V65.7688Z" fill="#484293"/>
<path d="M50.0752 77.2689C49.9075 77.2348 49.8004 77.104 49.6559 77.0431C49.5542 77.0018 49.4633 76.9445 49.3758 76.8854L49.2438 76.7975C49.2028 76.7725 49.16 76.7474 49.1136 76.7294C49.0155 76.6882 48.912 76.656 48.8175 76.6022C48.7747 76.5771 48.7301 76.5574 48.6997 76.5001C48.6694 76.4427 48.598 76.4015 48.5071 76.4122C48.4696 76.4158 48.4179 76.4069 48.4036 76.3764C48.3519 76.2545 48.2359 76.2223 48.1378 76.1596C48.0754 76.1201 48.0575 76.0072 48.0022 76.0072C47.9077 76.0036 47.8684 75.9373 47.8113 75.8979C47.7774 75.8746 47.7275 75.8674 47.7471 75.7886C47.7525 75.7671 47.7257 75.7366 47.7043 75.7438C47.5866 75.7796 47.5562 75.6954 47.4902 75.656C47.335 75.561 47.1691 75.4678 47.0014 75.3603C46.8641 75.2725 46.6553 75.285 46.5322 75.1434C46.4484 75.1524 46.4109 75.1488 46.3699 75.1219C46.3289 75.0986 46.2968 75.0628 46.2557 75.0395C46.1951 75.0018 46.1523 74.9337 46.097 74.8782C46.0417 74.8226 45.965 74.8083 45.9168 74.7259C45.8561 74.6237 45.7188 74.6219 45.6189 74.561C45.5653 74.5287 45.469 74.5574 45.469 74.4284C45.469 74.4104 45.4405 74.3997 45.4244 74.4087C45.2924 74.4803 45.2068 74.3997 45.1622 74.3208C45.1247 74.2563 45.0748 74.2169 45.0212 74.1846L44.9392 74.138C44.916 74.1255 44.8928 74.1112 44.8696 74.095C44.7947 74.0413 44.7037 74.0126 44.6252 73.9606C44.5681 73.923 44.495 73.9176 44.454 73.837C44.4218 73.7742 44.3237 73.8047 44.2577 73.7832C44.1917 73.7599 44.1328 73.7241 44.0704 73.6918L43.8635 73.5807C43.7957 73.5431 43.7243 73.5001 43.6583 73.4588C43.587 73.414 43.5138 73.3782 43.4585 73.328C43.4068 73.2814 43.3782 73.2008 43.3229 73.1649C43.2855 73.1398 43.2427 73.1273 43.1998 73.1219C43.1784 73.1183 43.157 73.1183 43.1338 73.1165L43.0571 73.1094C43.0607 73.1291 43.0625 73.147 43.0625 73.1667C43.0625 73.1793 43.0625 73.1918 43.0643 73.2026C43.1481 73.3549 43.3104 73.4696 43.248 73.6954C43.43 73.7456 43.4103 73.9481 43.5513 74.0144C43.6405 74.0574 43.6708 74.1219 43.7083 74.1882C43.9562 74.6165 44.1881 75.0556 44.4397 75.4857C44.6056 75.7689 44.8036 76.0359 44.9713 76.3208C45.0195 76.3997 45.073 76.475 45.0498 76.6022C45.032 76.6954 45.089 76.8173 45.2246 76.8585C45.2514 76.8674 45.2835 76.8943 45.2764 76.914C45.1961 77.1685 45.4512 77.2456 45.5368 77.4122C45.7063 77.7348 45.7527 78.1076 45.9061 78.4355C45.9382 78.5054 45.9257 78.6094 46.0577 78.6183C45.9899 78.7133 46.0506 78.733 46.1184 78.7814C46.1879 78.8298 46.2379 78.9391 46.2129 79.0216C46.1772 79.1327 46.2343 79.1972 46.2593 79.276C46.2861 79.3621 46.3324 79.4391 46.3628 79.5251C46.4912 79.8836 46.6232 80.242 46.7445 80.6076C46.7677 80.6793 46.7588 80.7635 46.7713 80.8406C46.782 80.9176 46.8605 80.9732 46.8034 81.0753C46.782 81.113 46.8337 81.1757 46.8551 81.2259C46.9265 81.4033 46.9515 81.6165 47.0763 81.751C47.2012 81.8854 47.1834 82.0879 47.3493 82.1954C47.3957 82.2259 47.3885 82.3155 47.4153 82.3746C47.5063 82.5735 47.5241 82.8316 47.7507 82.9857C47.7221 83.104 47.7881 83.1918 47.8417 83.2832C47.8809 83.3513 47.8827 83.4517 47.9897 83.4714C48.0022 83.4732 48.0147 83.5001 48.0183 83.5162C48.0415 83.6165 48.0272 83.7205 48.0807 83.8208C48.1289 83.9104 48.2038 83.9911 48.2216 84.095C48.2537 84.285 48.2448 84.4212 48.2698 84.5269C48.2966 84.6416 48.384 84.7796 48.4964 84.9373C48.4892 85.0502 48.5535 85.1363 48.6034 85.2277C48.6926 85.3907 48.8389 85.5054 48.9138 85.6828C48.9334 85.7277 48.9531 85.7742 48.9727 85.8208C49.11 85.3244 49.2242 84.8764 49.2866 84.5556C49.4561 83.699 50.3249 80.4051 50.3606 79.5395C50.3766 79.1237 50.4623 78.3997 50.564 77.5897C50.4587 77.5359 50.3445 77.4929 50.2518 77.4212C50.1893 77.3746 50.1447 77.2975 50.0698 77.2796L50.0752 77.2689Z" fill="#484293"/>
<path d="M49.4865 56.7976C49.4401 56.9678 49.3991 57.1363 49.342 57.303C49.317 57.3782 49.2956 57.4499 49.2403 57.5288C49.185 57.6076 49.1369 57.7295 49.1315 57.8513C49.1297 57.9015 49.1101 57.9804 49.0816 58.0108C48.962 58.1399 48.9103 58.3083 48.839 58.4624C48.7944 58.5592 48.6891 58.6399 48.682 58.708C48.6713 58.8227 48.6124 58.9015 48.5731 58.9929C48.5446 59.0574 48.5285 59.1381 48.4518 59.1703C48.4304 59.1793 48.3983 59.2384 48.4001 59.2635C48.4162 59.4033 48.3287 59.509 48.2806 59.6237C48.2217 59.7653 48.1718 59.8997 48.1182 60.0449C48.0647 60.1918 48.0059 60.337 47.947 60.4822C47.8471 60.7205 47.8328 60.9875 47.6954 61.2133C47.7079 61.3944 47.6009 61.5431 47.5278 61.6954C47.4725 61.8137 47.3886 61.9159 47.3173 62.0252C47.2441 62.1327 47.2013 62.2546 47.105 62.3567C46.9837 62.4857 46.9319 62.6739 46.8409 62.8334C46.7928 62.9194 46.7874 63.0395 46.6715 63.0807C46.6554 63.0861 46.6376 63.1273 46.6411 63.1488C46.6643 63.3065 46.5733 63.4427 46.4913 63.5323C46.3593 63.6775 46.3058 63.8549 46.2219 64.0198C46.1506 64.156 46.1024 64.3029 46.0328 64.4409C45.9847 64.5395 45.9597 64.647 45.8776 64.7366C45.8152 64.8065 45.817 64.9356 45.7831 65.0341C45.7492 65.1345 45.7028 65.2295 45.6635 65.328L45.5333 65.6506L45.4049 65.9732C45.3585 66.0897 45.3192 66.2098 45.2639 66.3227C45.2122 66.4284 45.1319 66.5234 45.0838 66.6309C44.95 66.9338 44.9321 67.2814 44.768 67.5771C44.8019 67.69 44.7198 67.751 44.6699 67.8334C44.6253 67.9087 44.5557 67.9911 44.5932 68.1004C44.6039 68.1309 44.5807 68.1721 44.5718 68.208C44.5504 68.2868 44.4576 68.3227 44.4683 68.4338C44.4772 68.5108 44.4023 68.5915 44.3755 68.6757C44.347 68.7635 44.256 68.8352 44.3131 68.9445C44.1186 69.0323 44.2578 69.2635 44.1311 69.3818C44.0919 69.4194 44.0616 69.466 44.0277 69.509C44.0098 69.5305 43.9813 69.5503 43.9795 69.5736C43.9242 70.0162 43.6477 70.3675 43.5014 70.7707C43.4836 70.8209 43.4871 70.8782 43.4782 70.932C43.4729 70.9571 43.4639 70.984 43.4479 71.0055C43.3944 71.0736 43.3605 71.1184 43.3373 71.156C43.5139 71.0216 43.6816 70.8728 43.8653 70.7366C43.9206 70.6954 43.9724 70.6506 44.0562 70.6417C44.1186 70.6345 44.2061 70.5825 44.2293 70.5055C44.2346 70.4893 44.2524 70.4678 44.2649 70.4678C44.4237 70.4696 44.4737 70.3119 44.5753 70.2313C44.7751 70.0682 45.0249 69.9481 45.2479 69.7994C45.2943 69.7689 45.3621 69.7546 45.3638 69.6829C45.4263 69.7008 45.4405 69.6632 45.4709 69.6166C45.5012 69.5682 45.5726 69.518 45.6261 69.5144C45.6992 69.509 45.7385 69.4642 45.7884 69.432C45.8419 69.3979 45.8883 69.3549 45.9383 69.3173C46.0453 69.2402 46.1452 69.156 46.238 69.07C46.32 69.0001 46.3753 68.8926 46.4949 68.7564C46.5412 68.7062 46.6072 68.6721 46.6661 68.6399C46.7232 68.6112 46.7589 68.5592 46.8302 68.5682C46.857 68.5718 46.898 68.5306 46.9319 68.5108C47.0514 68.4392 47.1959 68.3872 47.2762 68.2922C47.3529 68.2008 47.4832 68.1524 47.542 68.0377C47.5581 68.0055 47.617 67.9857 47.6526 67.9571C47.7971 67.8388 47.9827 67.7707 48.0897 67.613C48.1664 67.6058 48.2253 67.5538 48.2824 67.5073C48.3252 67.4732 48.3876 67.4517 48.3948 67.389C48.3948 67.3818 48.4108 67.3693 48.4197 67.3639C48.4768 67.3316 48.5393 67.3155 48.591 67.2617C48.632 67.2169 48.6516 67.165 48.6998 67.1219C48.8871 66.9517 49.1083 66.8262 49.2956 66.6596C49.3688 66.6417 49.4277 66.5897 49.4919 66.5449C49.6025 66.466 49.6881 66.3621 49.8094 66.2922C49.9254 66.2259 50.0485 66.156 50.1466 66.0754C50.3143 65.9356 50.5176 65.8478 50.6925 65.7384C50.7371 65.7098 50.7834 65.6703 50.8405 65.6668C50.8548 65.6668 50.903 65.6327 50.9119 65.6166C50.9315 65.5843 50.9725 65.57 50.9975 65.5485C51.0689 65.484 51.1848 65.4857 51.2384 65.3943C51.2491 65.3872 51.2615 65.38 51.2722 65.3728C51.2687 63.5001 51.1955 61.4212 50.9868 59.2169C50.8691 57.9804 50.4463 56.7187 49.9147 55.5825C49.8754 55.6757 49.8362 55.7671 49.8094 55.8621C49.7184 56.1829 49.5793 56.484 49.4901 56.7976H49.4865Z" fill="#484293"/>
<path d="M51.9733 50.2206C51.9733 50.2206 51.9733 50.2282 51.9733 50.234C51.9752 50.2206 51.9752 50.2149 51.9733 50.2206Z" fill="#484293"/>
<path d="M46.893 95.9977C46.893 95.9977 46.893 95.9895 46.893 95.9874C46.8909 96.0018 46.8889 96.0059 46.893 95.9977Z" fill="#484293"/>
<path d="M47.2833 29.29L47.2858 29.2849V29.2874L47.2833 29.29Z" fill="#484293"/>
<path d="M62.6876 39.9767C62.1935 38.8692 59.58 30.7993 58.5578 27.9534C57.4607 24.9051 56.0888 21.776 54.585 18.8782C54.4119 18.5466 54.2389 18.2187 54.0623 17.8925C52.7939 15.543 50.8244 9.59681 50.4462 8.70255C48.7087 4.59323 47.8452 0.643407 45.601 0.125485C44.834 -0.0519339 43.9455 0.0914353 43.1678 0.0896432C42.4613 0.087851 41.7584 0.0125822 41.0823 0.268855C39.1842 0.987493 38.6098 3.52871 37.9908 5.28498C37.1166 7.76527 34.0233 23.6398 33.7949 25.457C33.2597 29.7097 32.3053 33.8531 31.6167 38.0717C31.4062 39.3656 31.2635 40.5861 31.2029 41.8513C31.1672 42.6022 31.7434 43.233 32.4659 43.242C35.8161 43.2814 37.0167 43.2169 41.9154 43.2169C43.5424 43.2169 44.2863 32.0413 47.6383 32.3155C48.4482 32.3818 49.3723 34.1201 49.6577 34.8029C50.6674 37.2151 51.2383 37.9785 52.8189 40.518C53.8732 42.2115 59.8993 43.1255 61.0357 43.2169C61.6529 43.2671 63.0444 42.7563 63.246 41.8764C63.3673 41.3441 62.8874 40.4194 62.6912 39.9785L62.6876 39.9767ZM53.6645 24.6255C53.6038 24.7115 53.6323 24.785 53.627 24.8638C53.6216 24.9463 53.6306 25.0305 53.627 25.1147C53.5984 25.466 53.5307 25.8119 53.4361 26.1344C53.4183 26.1954 53.3665 26.2474 53.3362 26.3047C53.3059 26.3638 53.3398 26.4409 53.2399 26.4821C53.2024 26.4965 53.2131 26.5663 53.2042 26.6112C53.1703 26.7689 53.0775 26.9284 53.1132 27.0861C53.1489 27.2438 53.024 27.3728 53.1114 27.5377C53.1346 27.5843 53.0793 27.6416 53.0722 27.6972C53.0347 27.9212 52.8652 28.1058 52.9081 28.3603C52.7992 28.4069 52.7761 28.5 52.7422 28.5879C52.719 28.6524 52.6405 28.7025 52.6993 28.7957C52.7065 28.8065 52.694 28.8298 52.6851 28.8405C52.6262 28.9068 52.5352 28.9427 52.5013 29.0323C52.4746 29.1076 52.4853 29.1936 52.43 29.2671C52.2373 29.5305 51.9198 29.7025 51.6629 29.8943C51.5523 29.8764 51.4773 29.9427 51.3935 29.9767C51.2454 30.0448 51.142 30.1828 50.9778 30.2241C50.8262 30.2689 50.6621 30.3047 50.5372 30.3871C50.4284 30.4606 50.3089 30.5 50.1876 30.5323L49.8218 30.6255C49.7594 30.6434 49.6934 30.6775 49.622 30.6398C49.6042 30.6309 49.5382 30.6524 49.5239 30.6721C49.4936 30.7133 49.4401 30.7025 49.4044 30.7205C49.2992 30.7706 49.1618 30.6757 49.0744 30.7796C48.9531 30.8029 48.8282 30.8172 48.7051 30.8352C48.582 30.8531 48.4607 30.8728 48.3358 30.88C48.2787 30.8853 48.2234 30.8961 48.161 30.8818C48.1182 30.8728 48.0254 30.8818 47.9862 30.8961C47.8952 30.9284 47.7971 30.9212 47.7025 30.9284C47.5598 30.9409 47.4171 30.9427 47.2744 30.9409C47.1317 30.9409 46.989 30.9409 46.8462 30.9284C46.7214 30.9158 46.5965 30.914 46.4752 30.8889C46.3503 30.8674 46.2183 30.8603 46.1006 30.8262C46.0916 30.8226 46.0791 30.8208 46.0684 30.819C46.0203 30.8083 45.9703 30.7993 45.9222 30.7868C45.8597 30.7706 45.7812 30.742 45.7455 30.7366C45.6742 30.7223 45.6349 30.6918 45.5832 30.6721C45.4369 30.6112 45.3549 30.561 45.3798 30.5484C45.3852 30.5466 45.4048 30.5484 45.4262 30.552C45.5654 30.5807 45.5636 30.5861 45.7723 30.6577C45.9097 30.6864 46.0435 30.7241 46.1808 30.7474C46.32 30.7635 46.4573 30.7832 46.5983 30.7868C46.782 30.7993 46.9782 30.8029 47.1673 30.7832C47.2655 30.7796 47.3654 30.776 47.4635 30.7724C47.5616 30.7671 47.6597 30.7509 47.7543 30.7294C47.9434 30.6864 48.1271 30.6452 48.3126 30.604C48.4536 30.5753 48.5963 30.5502 48.7372 30.5198C48.8835 30.4893 49.0262 30.4266 49.1707 30.3961C49.2599 30.3764 49.3652 30.3925 49.4401 30.3387C49.6024 30.2187 49.8022 30.2079 49.9628 30.104C50.184 29.9642 50.4302 29.8889 50.6407 29.7456C50.7513 29.6649 50.8637 29.5879 50.9743 29.5198C51.026 29.4911 51.0742 29.4588 51.1491 29.4624C51.2258 29.4642 51.3025 29.4122 51.3364 29.319C51.3525 29.2814 51.381 29.2366 51.4078 29.2366C51.4702 29.2366 51.5237 29.2187 51.563 29.1793C51.6004 29.138 51.6343 29.0932 51.6682 29.0484C51.7075 28.9893 51.8288 28.9803 51.8252 28.9194C51.8145 28.819 51.877 28.7832 51.9037 28.7151C51.9233 28.6685 51.9251 28.604 52.0197 28.604C52.0446 28.604 52.0714 28.5592 52.0625 28.5377C52.0054 28.4104 52.0928 28.3459 52.1267 28.2545C52.207 28.0413 52.2801 27.8208 52.3533 27.5986C52.4157 27.414 52.3426 27.2008 52.4353 27.0215C52.3515 26.8782 52.43 26.7599 52.4585 26.6327C52.4817 26.5377 52.5388 26.4481 52.5816 26.3549C52.6244 26.2617 52.6226 26.1613 52.694 26.0681C52.7832 25.9481 52.7564 25.7975 52.7903 25.6631C52.8064 25.5896 52.7582 25.5018 52.8724 25.4481C52.8884 25.4409 52.8902 25.4069 52.876 25.3925C52.7743 25.285 52.8135 25.1703 52.8617 25.0861C52.9384 24.9481 52.9063 24.8101 52.9098 24.6721C52.9134 24.5574 52.8884 24.4427 52.8849 24.3262C52.8813 24.242 52.8492 24.1649 52.8795 24.0699C52.9045 23.9965 52.8296 23.9176 52.8082 23.8405C52.785 23.7617 52.7761 23.681 52.7582 23.6004C52.7386 23.5108 52.7208 23.4248 52.6993 23.3459C52.6779 23.2653 52.653 23.1846 52.6244 23.1058C52.5923 23.0198 52.5513 22.9373 52.5227 22.8513C52.496 22.7689 52.4924 22.6721 52.4514 22.5932C52.3961 22.4821 52.3104 22.3889 52.223 22.3011C52.1356 22.2079 52.0536 22.1327 51.9822 22.009C51.8805 21.9929 51.8769 21.9015 51.8431 21.8316C51.8109 21.7653 51.7878 21.6828 51.6914 21.6649C51.6647 21.6595 51.6468 21.6273 51.6272 21.6058C51.5826 21.5574 51.6058 21.4749 51.5255 21.4391C51.4684 21.414 51.4524 21.328 51.4096 21.2778C51.365 21.2241 51.3578 21.1327 51.2597 21.1362C51.2847 20.9642 51.0742 20.9911 51.0438 20.8692C51.0331 20.8298 51.01 20.7939 50.9921 20.7563C50.9832 20.7366 50.9778 20.7115 50.9636 20.7025C50.6799 20.543 50.5015 20.2635 50.2268 20.0879C50.1929 20.0663 50.1519 20.0592 50.1162 20.043C50.0984 20.0359 50.0805 20.0251 50.068 20.0108C49.9449 19.8782 49.9414 19.88 49.788 19.8172C49.7487 19.8029 49.7148 19.7706 49.6756 19.7509C49.5757 19.699 49.49 19.6291 49.3723 19.6022C49.2563 19.5735 49.1725 19.4552 49.0726 19.3782C48.9852 19.3083 48.8978 19.2384 48.7872 19.19L48.3733 19.009C48.2448 18.9552 48.1111 18.9212 47.9719 18.9068C47.9362 18.9033 47.8881 18.8925 47.8667 18.9015C47.7828 18.9391 47.7114 18.9642 47.6258 18.8979C47.6223 18.8943 47.5901 18.8961 47.583 18.8979C47.5099 18.9409 47.41 18.9212 47.3279 18.9212C47.0121 18.9284 46.7107 19.0054 46.4003 19.0592C46.3503 19.0681 46.2843 19.0914 46.254 19.0879C46.1862 19.0807 46.1666 19.1255 46.1113 19.1327C46.0649 19.138 46.0042 19.1721 45.965 19.1739C45.8205 19.1828 45.676 19.2474 45.5582 19.3083C45.4476 19.3656 45.337 19.4284 45.2336 19.4678C45.0266 19.543 44.8429 19.6631 44.6609 19.7814C44.4718 19.9033 44.2988 20.0377 44.1257 20.1882C44.0544 20.2491 43.9652 20.2975 43.9259 20.3871C43.9188 20.4051 43.8831 20.4301 43.8599 20.4463C43.8028 20.4857 43.7404 20.518 43.6869 20.5628C43.6351 20.6076 43.5959 20.6703 43.5495 20.7223C43.5121 20.7653 43.4692 20.7957 43.446 20.8567C43.4282 20.9015 43.3676 20.9409 43.3015 20.9642C43.1731 21.0126 43.0322 21.0628 42.9234 21.1918C42.8288 21.3065 42.7253 21.4104 42.6379 21.5287C42.6022 21.5771 42.5648 21.6219 42.5559 21.6936C42.5505 21.7599 42.4899 21.8298 42.4399 21.8782C42.3578 21.9499 42.315 22.0359 42.3115 22.1685C42.3115 22.2115 42.2918 22.2563 42.2758 22.2957C42.1759 22.5431 42.0742 22.785 41.9904 23.0251C41.9689 23.0825 41.9654 23.1488 41.8905 23.1757C41.9511 23.2384 41.9101 23.2904 41.8905 23.3387C41.8619 23.4122 41.812 23.4767 41.7905 23.5538C41.7638 23.6434 41.7602 23.7384 41.7995 23.8352C41.8351 23.923 41.7567 24.0233 41.8227 24.1201C41.8351 24.138 41.7888 24.1739 41.7923 24.2008C41.8102 24.3083 41.7406 24.4301 41.8566 24.5251C41.8655 24.5323 41.8673 24.5574 41.8601 24.5663C41.7567 24.7008 41.8548 24.8244 41.894 24.9463C41.9404 25.0825 41.8655 25.2223 41.8851 25.362C41.9065 25.5215 41.9565 25.6846 41.9297 25.8459C41.9101 25.9785 41.9208 26.0968 41.9351 26.2205L42.0171 26.5843C42.0528 26.7061 42.0849 26.8316 42.1277 26.9517C42.1759 27.0699 42.2187 27.1936 42.2758 27.3083C42.3275 27.4086 42.3953 27.4982 42.4488 27.5968C42.5148 27.7043 42.5683 27.819 42.6308 27.9284L42.8199 28.233C42.852 28.2796 42.8984 28.3208 42.9019 28.3818C42.9019 28.3943 42.9216 28.423 42.9341 28.4319C43.0197 28.4947 43.0732 28.5789 43.1214 28.6757C43.1339 28.7043 43.1678 28.733 43.1874 28.7635C43.2427 28.8477 43.314 28.8961 43.38 28.9588C43.4389 29.018 43.4906 29.1022 43.5602 29.138C43.5709 29.1416 43.5995 29.1721 43.6066 29.1846C43.6976 29.337 43.8778 29.4248 43.983 29.561C44.0455 29.5914 44.0847 29.6542 44.1257 29.6864C44.1882 29.7312 44.2506 29.7742 44.313 29.8244C44.3719 29.871 44.4308 29.9212 44.4932 29.9624C44.6074 30.0395 44.7162 30.1291 44.8411 30.1918C44.8821 30.2133 44.957 30.2563 44.9999 30.2939C45.007 30.3011 45.0338 30.3155 45.0498 30.3262C45.1836 30.3979 45.3424 30.4911 45.3691 30.5233C45.3852 30.5431 45.3781 30.552 45.3584 30.552C45.3477 30.552 45.2889 30.5233 45.2496 30.5072C45.1818 30.4785 45.1158 30.4534 45.0445 30.4176C44.9606 30.3728 44.8732 30.319 44.7662 30.2563C44.5967 30.1577 44.4272 30.0377 44.247 29.9086C44.0615 29.7868 43.8867 29.647 43.7119 29.509C43.6262 29.4355 43.5406 29.371 43.4496 29.3083C43.3604 29.2474 43.2908 29.1452 43.1909 29.1022C43.182 29.0986 43.1678 29.0825 43.157 29.0717C42.9572 28.8871 42.7414 28.7026 42.5808 28.4875C42.4881 28.362 42.3971 28.2384 42.2972 28.1183C42.208 27.9911 42.1099 27.871 42.0332 27.7348C41.6782 27.3477 41.4944 26.8387 41.3517 26.3244C41.3303 26.2438 41.3071 26.1613 41.2928 26.0771C41.2857 26.0359 41.2803 25.9911 41.2803 25.9499C41.2803 25.9122 41.2875 25.8728 41.2982 25.8316C41.3374 25.6936 41.2036 25.5484 41.2875 25.3943C41.2946 25.3818 41.2661 25.3567 41.2589 25.337C41.2393 25.2886 41.2036 25.2402 41.2072 25.1918C41.2268 24.8979 41.2304 24.9015 41.1501 24.6613C41.1412 24.6327 41.184 24.5932 41.184 24.5592C41.1804 24.423 41.184 24.285 41.1751 24.147C41.168 24.0198 41.2357 23.8943 41.1483 23.7635C41.1287 23.7348 41.1537 23.681 41.1608 23.6398C41.1804 23.5054 41.2143 23.371 41.2447 23.2366C41.2803 23.0825 41.3731 22.9552 41.3517 22.7904C41.3428 22.7169 41.4677 22.6703 41.4641 22.6291C41.457 22.552 41.4766 22.4911 41.5105 22.4337C41.5462 22.3782 41.6068 22.3352 41.6353 22.2778C41.6603 22.2276 41.6478 22.1613 41.671 22.1111C41.6996 22.0484 41.7406 21.9875 41.7745 21.9284C41.812 21.8638 41.8334 21.8172 41.8566 21.7366C41.8976 21.5717 42.0011 21.457 42.0885 21.3387C42.1848 21.2187 42.2972 21.1147 42.3989 21.009C42.4774 20.9248 42.5755 20.8818 42.6647 20.8244C42.7539 20.7671 42.8145 20.6613 42.9305 20.6524C42.9358 20.6524 42.943 20.6434 42.9483 20.638L43.4728 20.2796C43.7707 20.0717 44.0526 19.8549 44.363 19.656C44.4486 19.5986 44.5378 19.5341 44.6359 19.5126C44.6573 19.509 44.6895 19.4785 44.7162 19.4696C44.8125 19.4355 44.8554 19.3459 44.9535 19.3262C45.0409 19.3065 45.1176 19.2581 45.1979 19.2223C45.2906 19.1846 45.3816 19.1398 45.4762 19.1058C45.5404 19.0825 45.5975 19.052 45.6456 19.0198C45.7295 19.0251 45.824 18.966 45.915 18.9552C45.9739 18.9463 46.0631 18.9301 46.1023 18.9086C46.188 18.8585 46.2843 18.8459 46.3753 18.8226C46.5126 18.7868 46.6536 18.7689 46.7874 18.7223C46.8445 18.7008 46.9247 18.6954 46.9925 18.6918C47.0567 18.6864 47.1192 18.6918 47.1834 18.69C47.3011 18.681 47.4207 18.6739 47.5331 18.6452C47.633 18.6201 47.7578 18.6488 47.8649 18.604C47.8791 18.5968 47.9148 18.6004 47.9362 18.604C48.054 18.6255 48.1574 18.6452 48.2966 18.647C48.4125 18.647 48.5392 18.7115 48.6444 18.7491C48.7604 18.7904 48.8853 18.8226 48.9905 18.88C49.0583 18.9158 49.1261 18.8603 49.1903 18.9373C49.226 18.9803 49.3206 19.0036 49.3901 19.0341C49.4615 19.0663 49.5418 19.0861 49.6024 19.1291C49.9235 19.3531 50.3071 19.4857 50.6246 19.7312C50.7549 19.8352 50.944 19.8889 51.001 20.0681C51.1438 20.0861 51.2098 20.233 51.3293 20.2742C51.4078 20.2993 51.4506 20.3477 51.4988 20.3961C51.827 20.7223 52.0607 21.1022 52.3069 21.414C52.3479 21.466 52.3907 21.5144 52.4335 21.561L52.5745 21.7061C52.6779 21.8155 52.7796 21.9284 52.8706 22.052C52.9223 22.1201 52.9776 22.1864 52.9741 22.2975C52.9723 22.3782 53.0276 22.4857 53.1364 22.5359C53.1578 22.5448 53.1864 22.5735 53.1828 22.5896C53.1293 22.8047 53.3291 22.9086 53.3915 23.0789C53.4522 23.2509 53.4682 23.4033 53.4843 23.5574C53.5003 23.7133 53.511 23.871 53.5449 24.0269C53.5592 24.0932 53.5271 24.1793 53.6359 24.2187C53.5592 24.2832 53.6038 24.3155 53.652 24.3782C53.6984 24.4427 53.7162 24.5556 53.6716 24.6183L53.6645 24.6255ZM42.5184 23.9893C42.5309 23.9122 42.5576 23.8334 42.5666 23.7635C42.5666 23.7491 42.5791 23.7169 42.588 23.6936C42.6058 23.6398 42.6308 23.5843 42.6504 23.5323C42.67 23.4803 42.6843 23.4266 42.6968 23.3746C42.7057 23.328 42.7236 23.2832 42.736 23.2366C42.745 23.2008 42.7753 23.147 42.802 23.1022C42.8556 23.009 42.9091 22.9104 42.968 22.7832C43.0197 22.6721 43.0839 22.5628 43.1642 22.4642C43.1999 22.423 43.232 22.3907 43.2587 22.3441C43.2837 22.3029 43.3283 22.2348 43.3604 22.1846C43.4139 22.1058 43.4603 22.0305 43.5192 21.9534C43.5406 21.9266 43.5656 21.9015 43.5888 21.8746C43.7315 21.7187 43.8635 21.5448 44.024 21.3979C44.0615 21.362 44.1025 21.3244 44.1382 21.3011C44.1578 21.2724 44.2007 21.2384 44.2345 21.2097L44.3933 21.0789C44.454 21.0251 44.5128 20.9714 44.5664 20.9086C44.611 20.8513 44.6912 20.7886 44.759 20.742C44.7715 20.733 44.8018 20.7205 44.8232 20.7079C44.9035 20.6595 45.0088 20.6291 45.0891 20.6004C45.0962 20.5968 45.114 20.5914 45.123 20.5914C45.2246 20.5753 45.3085 20.5072 45.4066 20.457C45.5208 20.4068 45.6189 20.3925 45.7295 20.3549C45.8526 20.3172 45.9864 20.2796 46.1113 20.276C46.3235 20.276 46.5323 20.2778 46.741 20.2796C46.9551 20.2796 47.1709 20.285 47.3832 20.2778C47.476 20.2724 47.5687 20.2635 47.6633 20.2635C47.7685 20.2599 47.8791 20.285 47.9755 20.3119L48.2609 20.3818C48.3055 20.3943 48.3554 20.4051 48.3929 20.4212C48.4 20.4248 48.4268 20.4337 48.4393 20.4373C48.5214 20.4588 48.5963 20.4911 48.6748 20.5251C48.6962 20.5341 48.7301 20.5448 48.7568 20.5538C48.8318 20.5789 48.8996 20.5807 48.9745 20.5986C49.0423 20.6129 49.1154 20.6416 49.1761 20.6524C49.185 20.6524 49.2153 20.6631 49.226 20.6685C49.3509 20.7241 49.5114 20.7241 49.6417 20.7653C49.7005 20.7689 49.7523 20.7993 49.7933 20.8155C49.8504 20.8423 49.9057 20.8674 49.9646 20.8943L50.1305 20.9678C50.2286 21.0162 50.3428 21.0466 50.4373 21.1255C50.4694 21.1488 50.5176 21.2079 50.5372 21.2509C50.5408 21.2581 50.555 21.2796 50.564 21.2922C50.6282 21.3997 50.7067 21.5215 50.7138 21.5538C50.7192 21.5717 50.712 21.5753 50.6978 21.5663C50.6906 21.5628 50.6603 21.518 50.6389 21.4911C50.6032 21.4445 50.5658 21.3997 50.5336 21.3459C50.4926 21.2832 50.4534 21.2115 50.3802 21.1524C50.3214 21.1058 50.25 21.0825 50.1733 21.0466C50.0966 21.0108 50.0199 20.9749 49.9378 20.9409C49.8557 20.9051 49.779 20.8603 49.697 20.8352C49.6185 20.8119 49.5257 20.7993 49.4401 20.7814C49.3509 20.7671 49.2653 20.7491 49.1814 20.7276C49.0994 20.7079 49.0102 20.6703 48.9317 20.6685C48.9245 20.6685 48.9085 20.6649 48.8978 20.6631C48.7907 20.6488 48.6748 20.6183 48.5749 20.5807C48.4714 20.543 48.3786 20.5126 48.2787 20.4839C48.1646 20.4517 48.0468 20.4284 47.9291 20.4033C47.8667 20.3889 47.8167 20.3764 47.7632 20.3728C47.7079 20.3692 47.6526 20.3692 47.5937 20.3728C47.4992 20.3853 47.4028 20.4015 47.2994 20.4086L47.0032 20.423C46.807 20.4301 46.609 20.4337 46.4127 20.4463C46.2896 20.457 46.1612 20.4624 46.0595 20.4552C45.9614 20.4463 45.8561 20.5287 45.7402 20.5233C45.7313 20.5233 45.7134 20.5395 45.6992 20.5484C45.6635 20.5663 45.6278 20.5932 45.5903 20.6022C45.5261 20.6165 45.5136 20.6183 45.4815 20.6309C45.4548 20.6416 45.4316 20.6524 45.4102 20.6649C45.3638 20.69 45.3335 20.7241 45.2246 20.785C45.1997 20.7993 45.1622 20.785 45.1372 20.7939C45.0855 20.8083 45.0409 20.8208 45.0088 20.837C44.9731 20.8549 44.9267 20.88 44.8928 20.9051C44.8607 20.9284 44.825 20.9463 44.7983 20.9696C44.784 20.9821 44.7733 20.9947 44.7662 21.009C44.759 21.0251 44.7448 21.0538 44.7412 21.0807C44.7358 21.1058 44.7002 21.1309 44.677 21.1542L44.4611 21.371C44.3844 21.4534 44.2827 21.5072 44.2524 21.6255C44.2399 21.6775 44.1489 21.6721 44.1436 21.7025C44.1329 21.7581 44.1115 21.7993 44.0776 21.8334C44.0437 21.8674 43.9919 21.8871 43.9598 21.9266C43.9331 21.9606 43.9313 22.0198 43.9045 22.0592C43.8742 22.104 43.8189 22.1577 43.7886 22.19C43.7689 22.2115 43.7493 22.2438 43.7475 22.2886C43.7422 22.3836 43.6904 22.4803 43.6155 22.6076C43.5959 22.6398 43.5727 22.6739 43.5459 22.7061C43.5299 22.7258 43.5245 22.733 43.521 22.7384L43.5067 22.7581C43.4889 22.785 43.4692 22.8172 43.4568 22.8567C43.4371 22.9158 43.3783 22.9552 43.3319 23.0126C43.2855 23.0699 43.3194 23.1793 43.2016 23.2079C43.1963 23.2079 43.1981 23.2187 43.1945 23.2241C43.1535 23.3065 43.1071 23.3836 43.0857 23.4248L43.0714 23.4552L43.0464 23.5287L42.9965 23.6649C42.9537 23.7814 42.918 23.9194 42.9002 24.0323C42.8805 24.1488 42.8895 24.2384 42.8912 24.3997C42.8912 24.4821 42.9358 24.5681 42.8395 24.6434C42.8199 24.6595 42.8502 24.6936 42.8359 24.7151C42.7806 24.7939 42.9733 24.8603 42.8877 24.9355C42.811 25.0036 42.8556 25.0735 42.8502 25.1398C42.8449 25.2151 42.8591 25.2886 42.8609 25.3603C42.8609 25.4086 42.8841 25.4517 42.9483 25.4803C42.8377 25.5484 42.9323 25.6076 42.893 25.6757C42.8663 25.7223 42.852 25.7957 42.9019 25.8083C42.9555 25.8226 42.9804 25.8441 42.9947 25.8728C43.0143 25.9122 43.0233 25.9552 43.0429 25.9929C43.1035 26.104 43.1017 26.2294 43.2231 26.3047C43.2748 26.337 43.2712 26.3997 43.2766 26.4499C43.2819 26.4965 43.2498 26.5538 43.2623 26.595C43.2712 26.6273 43.2944 26.681 43.3212 26.7276C43.3479 26.7724 43.3836 26.8119 43.4318 26.8441C43.5156 26.8961 43.4389 27.0251 43.5888 27.018C43.6084 27.0162 43.6102 27.0341 43.6048 27.0466C43.5923 27.0825 43.5852 27.1129 43.5941 27.1327C43.5959 27.138 43.5977 27.1398 43.603 27.147C43.612 27.1577 43.6227 27.1667 43.6334 27.1757C43.6566 27.1936 43.6815 27.2079 43.7154 27.2205C43.8225 27.2617 43.8439 27.3871 43.8938 27.4678C43.9473 27.5538 44.0187 27.6201 44.0347 27.7079C44.0472 27.7689 44.206 27.6721 44.1507 27.7957C44.1382 27.8836 44.1454 27.8459 44.1775 27.88C44.2203 27.9248 44.2863 27.9481 44.3095 28.009C44.3719 28.1685 44.4807 28.2778 44.5985 28.38L44.7769 28.5305L44.8179 28.5681L44.834 28.5843L44.8857 28.6362C44.9214 28.6721 44.9838 28.6828 45.0427 28.7115C45.073 28.7258 45.1033 28.7456 45.1283 28.776C45.1337 28.7832 45.1444 28.7939 45.1444 28.7993V28.8172L45.1408 28.871C45.2246 28.7814 45.2746 28.9015 45.3852 28.8477C45.4494 28.8119 45.5101 28.8334 45.5707 28.8531L45.7919 28.9266C45.8579 28.9463 45.8294 28.9355 46.0078 28.966C46.1344 28.9929 46.2219 29.0269 46.2789 29.0413C46.3432 29.0592 46.3325 29.0538 46.3717 29.0484C46.4306 29.0431 46.5644 29.0233 46.7303 29.0879C46.7624 29.1004 46.7909 29.1165 46.8123 29.1291C46.8266 29.138 46.8266 29.138 46.8266 29.138H46.8284L46.8355 29.1398C46.8409 29.1398 46.8445 29.1416 46.8516 29.1398C46.8659 29.138 46.8801 29.1273 46.8908 29.1219C46.8694 29.1183 46.9622 29.1129 47.046 29.1291C47.1156 29.1398 47.1709 29.1577 47.2119 29.1703C47.2512 29.1828 47.2797 29.1918 47.2922 29.2025C47.2994 29.2079 47.3011 29.2133 47.2994 29.2223C47.2994 29.2276 47.2976 29.2348 47.2958 29.2402V29.2438V29.2491L47.3029 29.2617C47.3208 29.3155 47.3921 29.3298 47.4617 29.2527C47.4742 29.2384 47.5027 29.2276 47.5134 29.2402C47.5759 29.3226 47.6508 29.328 47.74 29.3244C47.7667 29.3101 47.7899 29.2742 47.8221 29.2707C47.8845 29.2653 47.9719 29.2724 48.0575 29.2671C48.2199 29.233 48.3572 29.233 48.4571 29.2061C48.4982 29.1954 48.557 29.2223 48.5499 29.1309C48.6088 29.1882 48.6213 29.1434 48.6498 29.0968C48.6783 29.0484 48.7444 29.0198 48.7979 29.0413C48.8728 29.0717 48.9067 29.0359 48.9656 29.0198C49.0244 29.0018 49.0797 28.9732 49.1386 28.9534L49.5132 28.828C49.6542 28.776 49.7808 28.7456 49.895 28.7097C49.9396 28.6972 49.9913 28.7043 50.0359 28.6954C50.0591 28.6918 50.0752 28.6757 50.0948 28.6667C50.1162 28.656 50.1465 28.6452 50.1822 28.6595C50.209 28.6685 50.2464 28.6291 50.2768 28.6112C50.382 28.552 50.5104 28.5 50.5229 28.4086C50.5372 28.3549 50.5711 28.3065 50.6139 28.2474C50.6549 28.1918 50.7156 28.1309 50.7281 28.0753C50.7352 28.0448 50.7852 28.0287 50.8102 28C50.9083 27.8871 51.0563 27.7868 51.0777 27.6201C51.1455 27.5932 51.1705 27.5287 51.1955 27.4714C51.2133 27.4319 51.2579 27.3818 51.2365 27.3226C51.2347 27.3155 51.2419 27.2975 51.249 27.2886C51.2882 27.233 51.34 27.1954 51.365 27.1291C51.3864 27.0753 51.3864 27.0233 51.4131 26.9696L51.488 26.828C51.5112 26.7814 51.5487 26.7223 51.579 26.6703C51.6522 26.5413 51.6843 26.518 51.6771 26.3961C51.6914 26.3656 51.6986 26.328 51.7057 26.2886C51.7128 26.2527 51.7217 26.2151 51.7289 26.1775C51.7539 26.0592 51.7414 25.9427 51.7592 25.819C51.7771 25.7008 51.7878 25.5717 51.777 25.4588C51.7592 25.2617 51.7699 25.0646 51.7681 24.8656C51.7681 24.8155 51.761 24.7563 51.7806 24.7097C51.7842 24.699 51.7842 24.6416 51.7806 24.6273C51.7699 24.595 51.7788 24.5574 51.7753 24.5251C51.7681 24.4355 51.8092 24.3477 51.7824 24.2599L51.7895 23.9642C51.7895 23.8674 51.7967 23.7653 51.7931 23.6739C51.7931 23.6309 51.7842 23.5879 51.7842 23.5413C51.7842 23.509 51.7681 23.4373 51.7574 23.4086C51.7289 23.3405 51.7075 23.2689 51.6807 23.2008C51.6397 23.0968 51.5915 22.9947 51.5434 22.8907C51.5005 22.7868 51.4381 22.699 51.3685 22.6076C51.3079 22.5287 51.2544 22.4391 51.208 22.3513C51.1598 22.2635 51.1045 22.1757 51.0599 22.0879C51.0563 22.0807 51.051 22.0735 51.0456 22.0663C51.0207 22.0341 50.9975 22.0018 50.9743 21.9714C50.9439 21.9301 50.9101 21.8728 50.8904 21.8513C50.853 21.8065 50.8351 21.7742 50.8102 21.7384C50.737 21.6362 50.7013 21.5663 50.721 21.5717C50.7245 21.5717 50.737 21.5825 50.7495 21.595C50.828 21.6775 50.828 21.6792 50.9368 21.8244C51.0028 21.9194 51.076 22.0054 51.1313 22.1058C51.1883 22.2043 51.2454 22.3029 51.3025 22.4033C51.3703 22.5341 51.4881 22.647 51.563 22.7868C51.6343 22.9337 51.7003 23.0807 51.761 23.2276C51.8216 23.3728 51.8645 23.5269 51.8716 23.6846C51.8752 23.8065 51.8698 23.9212 51.8698 24.0395C51.8698 24.1613 51.8698 24.2868 51.8698 24.4069C51.8698 24.4821 51.8627 24.561 51.8662 24.6309C51.8734 24.785 51.8734 24.9445 51.8823 25.095C51.8948 25.3047 51.8984 25.518 51.8948 25.7258C51.893 25.8388 51.8877 25.9499 51.8734 26.0646C51.8662 26.1165 51.8591 26.1649 51.8448 26.2187C51.8288 26.2742 51.8234 26.3495 51.8288 26.4212C51.8306 26.4499 51.8288 26.5018 51.8199 26.5287C51.7824 26.6398 51.7307 26.7258 51.6914 26.8244C51.6647 26.8853 51.6343 26.957 51.6201 26.9947C51.5987 27.0592 51.5701 27.1147 51.5434 27.1721C51.5237 27.2133 51.5041 27.2599 51.4809 27.2939C51.4738 27.3029 51.4559 27.3423 51.4524 27.3549C51.4292 27.4266 51.3971 27.5054 51.3632 27.5825C51.2811 27.7635 51.1723 27.9337 51.0421 28.0843C50.9885 28.147 50.9332 28.2061 50.8726 28.2617C50.8137 28.3137 50.7709 28.3692 50.7263 28.4373C50.7049 28.4803 50.6781 28.5305 50.6371 28.5735C50.5979 28.6165 50.5533 28.6524 50.5105 28.6846C50.4427 28.7348 50.3713 28.7742 50.3017 28.8137C50.2339 28.8531 50.1644 28.9015 50.0841 28.9337C49.986 28.9767 49.8718 29.0251 49.7648 29.0699C49.7059 29.0932 49.6488 29.1309 49.5917 29.1452C49.5846 29.147 49.5578 29.1595 49.5489 29.1649C49.4793 29.2097 49.3812 29.2509 49.3134 29.2778C49.201 29.3208 49.0958 29.3728 48.9887 29.4212L48.7194 29.5448C48.6516 29.5699 48.5838 29.5896 48.5124 29.6022C48.4571 29.6112 48.3858 29.6344 48.3233 29.6542C48.2609 29.6721 48.2002 29.699 48.1325 29.7187C48.0611 29.7402 47.9862 29.7563 47.9113 29.7653C47.8363 29.7742 47.7596 29.776 47.6829 29.7635C47.6062 29.7509 47.5277 29.7474 47.4492 29.7402C47.3743 29.7348 47.2994 29.7241 47.2244 29.7097C47.1263 29.6918 47.0407 29.6452 46.9568 29.6327C46.8766 29.6201 46.7624 29.6542 46.6696 29.6183C46.6482 29.6094 46.6286 29.595 46.6108 29.5789C46.5555 29.5377 46.5323 29.5269 46.4734 29.5233C46.4252 29.5233 46.3521 29.5341 46.295 29.5377C46.2789 29.5377 46.2468 29.5341 46.2236 29.5287C46.1719 29.5198 46.1291 29.4982 46.0702 29.4875C46.0274 29.4803 45.9685 29.4588 45.9168 29.4499C45.8669 29.4409 45.7973 29.4337 45.7455 29.4337C45.6456 29.3943 45.5457 29.3889 45.453 29.3513C45.4244 29.3387 45.3923 29.328 45.3602 29.319C45.3442 29.3137 45.3281 29.3065 45.3138 29.3047C45.1836 29.2796 45.0427 29.2527 44.916 29.1739C44.8036 29.104 44.6787 29.0431 44.5646 28.957C44.536 28.9373 44.5057 28.914 44.4807 28.8925C44.4682 28.8818 44.4558 28.871 44.4433 28.8585C44.3743 28.788 44.3041 28.7235 44.2328 28.6649C44.206 28.6416 44.1792 28.6165 44.1525 28.5914C44.0829 28.5287 44.0187 28.466 43.942 28.4051C43.8671 28.3423 43.7939 28.2707 43.7279 28.1793C43.678 28.1022 43.6316 28.0251 43.5781 27.9427L43.3836 27.6309C43.3212 27.5251 43.2427 27.4391 43.1731 27.3262C43.157 27.2993 43.1392 27.2581 43.1285 27.2438C43.0839 27.1846 43.0518 27.1273 43.05 27.0556C43.05 27.052 43.0411 27.0287 43.0375 27.0233C43.0018 26.9714 42.9822 26.8961 42.9572 26.8334C42.8484 26.5932 42.7735 26.3423 42.6897 26.104C42.6754 26.0646 42.6504 26.018 42.6451 25.9893C42.6326 25.9355 42.6094 25.9158 42.5987 25.871C42.5898 25.8334 42.5666 25.7778 42.563 25.7456C42.5452 25.6237 42.5273 25.4965 42.5113 25.3871C42.4988 25.2832 42.4899 25.1775 42.4952 25.0843C42.5041 24.9015 42.5023 24.7241 42.5023 24.5448C42.5077 24.362 42.4916 24.1739 42.5273 23.9839L42.5184 23.9893ZM50.5836 24.8853C50.5533 24.9104 50.564 24.9319 50.5711 24.9678C50.5782 25.0054 50.5711 25.0628 50.5497 25.0896C50.5212 25.1255 50.5212 25.1649 50.5122 25.2025C50.5015 25.242 50.4962 25.2832 50.4873 25.3226C50.4659 25.4051 50.448 25.4857 50.432 25.5646C50.4177 25.6398 50.4034 25.7384 50.3802 25.8226C50.3713 25.8567 50.3517 25.8871 50.3374 25.9194C50.3231 25.9517 50.3285 25.9929 50.291 26.0162C50.2768 26.0251 50.275 26.061 50.266 26.0843C50.2375 26.1685 50.184 26.2491 50.1697 26.3298C50.1537 26.4104 50.0859 26.4714 50.0805 26.552C50.0805 26.5753 50.0502 26.5986 50.0359 26.6237C49.9788 26.7258 49.8825 26.8029 49.845 26.9212C49.7969 26.9373 49.7701 26.9785 49.738 27.0162C49.7166 27.0448 49.6756 27.0628 49.6791 27.1058C49.6791 27.1112 49.6702 27.1201 49.6649 27.1237C49.6292 27.1488 49.5882 27.1631 49.556 27.199C49.5311 27.2294 49.5186 27.2653 49.4847 27.2939C49.3616 27.3961 49.2153 27.4552 49.0904 27.5502C49.0405 27.5502 49.0012 27.5807 48.9602 27.6022C48.8871 27.6434 48.83 27.7061 48.7461 27.7384C48.6676 27.7671 48.5838 27.7939 48.516 27.8387C48.3983 27.9158 48.2627 27.9373 48.1307 27.975C48.0968 27.9857 48.0593 28.0036 48.0236 27.9803C48.0147 27.975 47.979 27.9857 47.9683 27.9965C47.9487 28.018 47.922 28.0108 47.9005 28.0215C47.8399 28.0502 47.7739 27.9803 47.7168 28.0395C47.649 28.0448 47.5794 28.0448 47.5116 28.0431C47.4403 28.0395 47.3743 28.0377 47.3136 28.0305C47.2833 28.0287 47.2548 28.0323 47.2244 28.0108C47.2048 27.9965 47.1549 27.9911 47.1334 28.0018C47.0835 28.0287 47.0335 28.0144 46.9836 28.0126C46.8337 28.0072 46.6839 28.0018 46.5323 27.9857C46.4663 27.9785 46.4003 27.9606 46.3342 27.9463C46.2682 27.9319 46.1951 27.9427 46.1327 27.9051C46.1291 27.9015 46.122 27.9015 46.1148 27.9015C46.0881 27.9015 46.0595 27.9051 46.0328 27.8997C45.9989 27.8907 45.9596 27.8567 45.9382 27.862C45.8954 27.8746 45.8758 27.8441 45.8472 27.8352C45.783 27.8119 45.7509 27.7617 45.7545 27.7115H45.7509C45.7491 27.7151 45.7384 27.7384 45.7295 27.7438C45.7152 27.7545 45.6795 27.7491 45.6546 27.7474C45.61 27.7474 45.5636 27.7545 45.5226 27.7402C45.4726 27.7241 45.428 27.69 45.3709 27.6577C45.271 27.6201 45.1997 27.5215 45.0962 27.4642C44.9909 27.4051 44.8946 27.3334 44.7983 27.2509C44.7501 27.2061 44.7002 27.1685 44.6484 27.1291C44.5967 27.0896 44.5806 27.0126 44.5164 26.9821C44.5111 26.9785 44.5075 26.966 44.5021 26.9588C44.4201 26.8172 44.3594 26.6667 44.3398 26.5287C44.3202 26.3656 44.2542 26.2402 44.2114 26.0681C44.0918 25.8137 44.0918 25.5305 44.0847 25.2599C44.0793 25.1757 44.0776 25.0896 44.1079 25.0036C44.1346 24.9319 44.1043 24.8387 44.1525 24.7671C44.1561 24.7617 44.1489 24.7456 44.1489 24.733C44.1489 24.7061 44.1418 24.6757 44.1489 24.6506C44.1953 24.5018 44.1971 24.5036 44.2024 24.3728C44.2024 24.3567 44.2238 24.3423 44.2274 24.3262C44.2453 24.2581 44.2684 24.19 44.2827 24.1219C44.2952 24.0592 44.3416 24.0036 44.3237 23.9337C44.3202 23.9176 44.3362 23.8943 44.3416 23.8746C44.3648 23.8119 44.3933 23.7509 44.4147 23.6864C44.4415 23.6129 44.4914 23.552 44.495 23.4678C44.495 23.4319 44.5539 23.4069 44.5557 23.3871C44.5592 23.3477 44.5735 23.3155 44.5931 23.2868C44.611 23.2563 44.6449 23.2366 44.6645 23.2079C44.6805 23.1828 44.6823 23.147 44.6984 23.1201C44.7376 23.0538 44.8036 23 44.8322 22.9319C44.8625 22.862 44.9071 22.8155 44.9499 22.7599C44.9927 22.7025 45.0427 22.647 45.0855 22.5861C45.1194 22.5395 45.164 22.509 45.2068 22.4732C45.2478 22.4373 45.2692 22.3728 45.3317 22.362C45.3352 22.362 45.337 22.3567 45.3406 22.3531C45.4244 22.2742 45.5136 22.2008 45.6064 22.1291C45.7634 22.0018 45.9489 21.9015 46.1291 21.8316C46.1808 21.8119 46.2308 21.7778 46.2896 21.7904C46.3021 21.7922 46.32 21.776 46.336 21.776C46.3913 21.776 46.411 21.7043 46.468 21.7133C46.518 21.7223 46.559 21.6936 46.6036 21.681C46.6554 21.6667 46.7142 21.647 46.7677 21.638C46.807 21.6327 46.8391 21.6219 46.8694 21.6004C46.9158 21.6327 46.9729 21.6022 47.0228 21.6183C47.055 21.6273 47.1049 21.6398 47.1281 21.6273C47.1798 21.6004 47.2316 21.6147 47.2815 21.6147C47.3582 21.6147 47.4314 21.6327 47.5081 21.6147C47.5402 21.6058 47.5812 21.6183 47.6169 21.6255C47.6508 21.6327 47.6811 21.6524 47.7132 21.6577C47.7757 21.6685 47.8363 21.6775 47.9005 21.6667C47.9558 21.6577 48.0165 21.7025 48.0736 21.6721C48.0807 21.6685 48.0986 21.6721 48.1093 21.6775C48.1646 21.7043 48.2181 21.7205 48.2877 21.7151C48.3447 21.7079 48.4108 21.7402 48.4714 21.7563C48.5356 21.7742 48.6052 21.7886 48.6623 21.819C48.6998 21.8387 48.7372 21.7975 48.7729 21.8459C48.7925 21.871 48.8443 21.8836 48.8817 21.8997C48.921 21.9158 48.9638 21.9284 48.9959 21.9534C49.1671 22.0807 49.3652 22.1613 49.5257 22.2993C49.5917 22.3585 49.6863 22.3943 49.7184 22.4857C49.788 22.5018 49.8236 22.5789 49.8789 22.6004C49.9146 22.6165 49.9378 22.6398 49.9628 22.6649C50.0466 22.7474 50.1305 22.8531 50.184 22.9732C50.2304 23.0879 50.2625 23.19 50.3035 23.2975C50.3535 23.4391 50.4213 23.5735 50.4676 23.7187C50.4801 23.7599 50.4944 23.7993 50.4855 23.8495C50.4783 23.8871 50.4908 23.9463 50.5265 23.9857C50.5336 23.9929 50.5408 24.0108 50.539 24.018C50.5069 24.1129 50.5711 24.1882 50.5818 24.2742C50.6032 24.4427 50.5782 24.6094 50.5711 24.776C50.5711 24.8119 50.5515 24.8531 50.5818 24.8836L50.5836 24.8853Z" fill="#484293"/>
<path d="M47.2959 29.233L47.2852 29.285C47.2887 29.2671 47.2923 29.251 47.2959 29.2348V29.233Z" fill="#484293"/>
</g>
<defs>
<clipPath id="clip0_375_2706">
<rect width="88" height="96" fill="#484293"/>
</clipPath>
</defs>
</svg>
